<mxfile host="app.diagrams.net" agent="Mozilla/5.0 (Windows NT 10.0; Win64; x64) AppleWebKit/537.36 (KHTML, like Gecko) Chrome/129.0.0.0 Safari/537.36" version="24.7.17" pages="3">
  <diagram name="Use Case" id="98JNsPVTSuijFBu2K6kc">
    <mxGraphModel dx="1066" dy="692" grid="1" gridSize="10" guides="1" tooltips="1" connect="1" arrows="1" fold="1" page="1" pageScale="1" pageWidth="850" pageHeight="1100" math="0" shadow="0">
      <root>
        <mxCell id="0" />
        <mxCell id="1" parent="0" />
        <mxCell id="mtprfGPpNIzWcougev2o-1" value="&lt;font style=&quot;font-size: 15px;&quot;&gt;Pengguna&lt;/font&gt;" style="shape=umlActor;verticalLabelPosition=bottom;verticalAlign=top;html=1;outlineConnect=0;strokeWidth=5;" parent="1" vertex="1">
          <mxGeometry x="40" y="440.5" width="80" height="160" as="geometry" />
        </mxCell>
        <mxCell id="mtprfGPpNIzWcougev2o-2" value="&lt;font style=&quot;font-size: 15px;&quot;&gt;Admin&lt;/font&gt;" style="shape=umlActor;verticalLabelPosition=bottom;verticalAlign=top;html=1;outlineConnect=0;strokeWidth=5;" parent="1" vertex="1">
          <mxGeometry x="1040" y="439" width="80" height="160" as="geometry" />
        </mxCell>
        <mxCell id="mtprfGPpNIzWcougev2o-3" value="Login&lt;div style=&quot;font-size: 15px;&quot;&gt;Pengguna&lt;/div&gt;" style="ellipse;whiteSpace=wrap;html=1;strokeWidth=1;fontSize=15;" parent="1" vertex="1">
          <mxGeometry x="360" y="118.5" width="160" height="81" as="geometry" />
        </mxCell>
        <mxCell id="mtprfGPpNIzWcougev2o-4" value="Lihat Informasi&amp;nbsp;&lt;div&gt;Tentang Mitra&lt;/div&gt;" style="ellipse;whiteSpace=wrap;html=1;strokeWidth=1;fontSize=15;" parent="1" vertex="1">
          <mxGeometry x="360" y="359" width="160" height="81" as="geometry" />
        </mxCell>
        <mxCell id="mtprfGPpNIzWcougev2o-5" value="Lihat Informasi&lt;div&gt;&lt;span style=&quot;background-color: initial;&quot;&gt;Magang&lt;/span&gt;&lt;/div&gt;" style="ellipse;whiteSpace=wrap;html=1;strokeWidth=1;fontSize=15;" parent="1" vertex="1">
          <mxGeometry x="360" y="480" width="160" height="81" as="geometry" />
        </mxCell>
        <mxCell id="mtprfGPpNIzWcougev2o-6" value="Registrasi&lt;div&gt;Akun&lt;/div&gt;" style="ellipse;whiteSpace=wrap;html=1;strokeWidth=1;fontSize=15;" parent="1" vertex="1">
          <mxGeometry x="360" y="239" width="160" height="81" as="geometry" />
        </mxCell>
        <mxCell id="mtprfGPpNIzWcougev2o-7" value="Lihat Profil" style="ellipse;whiteSpace=wrap;html=1;strokeWidth=1;fontSize=15;" parent="1" vertex="1">
          <mxGeometry x="360" y="720" width="160" height="81" as="geometry" />
        </mxCell>
        <mxCell id="mtprfGPpNIzWcougev2o-8" value="Daftar Magang" style="ellipse;whiteSpace=wrap;html=1;strokeWidth=1;fontSize=15;" parent="1" vertex="1">
          <mxGeometry x="360" y="600" width="160" height="81" as="geometry" />
        </mxCell>
        <mxCell id="mtprfGPpNIzWcougev2o-9" value="Login&lt;div style=&quot;font-size: 15px;&quot;&gt;Admin&lt;/div&gt;" style="ellipse;whiteSpace=wrap;html=1;strokeWidth=1;fontSize=15;" parent="1" vertex="1">
          <mxGeometry x="640" y="238.25" width="160" height="81" as="geometry" />
        </mxCell>
        <mxCell id="mtprfGPpNIzWcougev2o-10" value="Edit Profil" style="ellipse;whiteSpace=wrap;html=1;strokeWidth=1;fontSize=15;" parent="1" vertex="1">
          <mxGeometry x="360" y="840" width="160" height="81" as="geometry" />
        </mxCell>
        <mxCell id="mtprfGPpNIzWcougev2o-11" value="Kelola Data&lt;div&gt;Pengguna&lt;/div&gt;" style="ellipse;whiteSpace=wrap;html=1;strokeWidth=1;fontSize=15;" parent="1" vertex="1">
          <mxGeometry x="640" y="358.75" width="160" height="81" as="geometry" />
        </mxCell>
        <mxCell id="mtprfGPpNIzWcougev2o-12" value="Kelola Data&lt;div&gt;Pelamar&lt;/div&gt;" style="ellipse;whiteSpace=wrap;html=1;strokeWidth=1;fontSize=15;" parent="1" vertex="1">
          <mxGeometry x="640" y="478.5" width="160" height="81" as="geometry" />
        </mxCell>
        <mxCell id="mtprfGPpNIzWcougev2o-13" value="Upload&lt;div&gt;Informasi&lt;/div&gt;" style="ellipse;whiteSpace=wrap;html=1;strokeWidth=1;fontSize=15;" parent="1" vertex="1">
          <mxGeometry x="640" y="599" width="160" height="81" as="geometry" />
        </mxCell>
        <mxCell id="mtprfGPpNIzWcougev2o-14" value="Kelola Akun&lt;div&gt;Admin&lt;/div&gt;" style="ellipse;whiteSpace=wrap;html=1;strokeWidth=1;fontSize=15;" parent="1" vertex="1">
          <mxGeometry x="640" y="718.75" width="160" height="81" as="geometry" />
        </mxCell>
        <mxCell id="mtprfGPpNIzWcougev2o-15" value="" style="endArrow=classic;html=1;rounded=0;strokeWidth=1;" parent="1" source="mtprfGPpNIzWcougev2o-2" target="mtprfGPpNIzWcougev2o-9" edge="1">
          <mxGeometry width="50" height="50" relative="1" as="geometry">
            <mxPoint x="610" y="480" as="sourcePoint" />
            <mxPoint x="660" y="430" as="targetPoint" />
          </mxGeometry>
        </mxCell>
        <mxCell id="mtprfGPpNIzWcougev2o-16" value="" style="endArrow=classic;html=1;rounded=0;strokeWidth=1;" parent="1" source="mtprfGPpNIzWcougev2o-1" target="mtprfGPpNIzWcougev2o-3" edge="1">
          <mxGeometry width="50" height="50" relative="1" as="geometry">
            <mxPoint x="660" y="490" as="sourcePoint" />
            <mxPoint x="710" y="440" as="targetPoint" />
          </mxGeometry>
        </mxCell>
        <mxCell id="mtprfGPpNIzWcougev2o-17" value="" style="endArrow=classic;html=1;rounded=0;strokeWidth=1;" parent="1" source="mtprfGPpNIzWcougev2o-1" target="mtprfGPpNIzWcougev2o-6" edge="1">
          <mxGeometry width="50" height="50" relative="1" as="geometry">
            <mxPoint x="670" y="500" as="sourcePoint" />
            <mxPoint x="720" y="450" as="targetPoint" />
          </mxGeometry>
        </mxCell>
        <mxCell id="mtprfGPpNIzWcougev2o-18" value="" style="endArrow=classic;html=1;rounded=0;strokeWidth=1;" parent="1" source="mtprfGPpNIzWcougev2o-1" target="mtprfGPpNIzWcougev2o-4" edge="1">
          <mxGeometry width="50" height="50" relative="1" as="geometry">
            <mxPoint x="680" y="510" as="sourcePoint" />
            <mxPoint x="730" y="460" as="targetPoint" />
          </mxGeometry>
        </mxCell>
        <mxCell id="mtprfGPpNIzWcougev2o-19" value="" style="endArrow=classic;html=1;rounded=0;strokeWidth=1;" parent="1" source="mtprfGPpNIzWcougev2o-1" target="mtprfGPpNIzWcougev2o-5" edge="1">
          <mxGeometry width="50" height="50" relative="1" as="geometry">
            <mxPoint x="690" y="520" as="sourcePoint" />
            <mxPoint x="740" y="470" as="targetPoint" />
          </mxGeometry>
        </mxCell>
        <mxCell id="mtprfGPpNIzWcougev2o-20" value="" style="endArrow=classic;html=1;rounded=0;strokeWidth=1;" parent="1" source="mtprfGPpNIzWcougev2o-1" target="mtprfGPpNIzWcougev2o-8" edge="1">
          <mxGeometry width="50" height="50" relative="1" as="geometry">
            <mxPoint x="700" y="530" as="sourcePoint" />
            <mxPoint x="750" y="480" as="targetPoint" />
          </mxGeometry>
        </mxCell>
        <mxCell id="mtprfGPpNIzWcougev2o-21" value="" style="endArrow=classic;html=1;rounded=0;strokeWidth=1;" parent="1" source="mtprfGPpNIzWcougev2o-1" target="mtprfGPpNIzWcougev2o-7" edge="1">
          <mxGeometry width="50" height="50" relative="1" as="geometry">
            <mxPoint x="710" y="540" as="sourcePoint" />
            <mxPoint x="760" y="490" as="targetPoint" />
          </mxGeometry>
        </mxCell>
        <mxCell id="mtprfGPpNIzWcougev2o-22" value="" style="endArrow=classic;html=1;rounded=0;strokeWidth=1;" parent="1" source="mtprfGPpNIzWcougev2o-1" target="mtprfGPpNIzWcougev2o-10" edge="1">
          <mxGeometry width="50" height="50" relative="1" as="geometry">
            <mxPoint x="720" y="550" as="sourcePoint" />
            <mxPoint x="770" y="500" as="targetPoint" />
          </mxGeometry>
        </mxCell>
        <mxCell id="mtprfGPpNIzWcougev2o-23" value="" style="endArrow=classic;html=1;rounded=0;strokeWidth=1;" parent="1" source="mtprfGPpNIzWcougev2o-2" target="mtprfGPpNIzWcougev2o-11" edge="1">
          <mxGeometry width="50" height="50" relative="1" as="geometry">
            <mxPoint x="690" y="560" as="sourcePoint" />
            <mxPoint x="740" y="510" as="targetPoint" />
          </mxGeometry>
        </mxCell>
        <mxCell id="mtprfGPpNIzWcougev2o-24" value="" style="endArrow=classic;html=1;rounded=0;strokeWidth=1;" parent="1" source="mtprfGPpNIzWcougev2o-2" target="mtprfGPpNIzWcougev2o-13" edge="1">
          <mxGeometry width="50" height="50" relative="1" as="geometry">
            <mxPoint x="700" y="570" as="sourcePoint" />
            <mxPoint x="750" y="520" as="targetPoint" />
          </mxGeometry>
        </mxCell>
        <mxCell id="mtprfGPpNIzWcougev2o-25" value="" style="endArrow=classic;html=1;rounded=0;strokeWidth=1;" parent="1" source="mtprfGPpNIzWcougev2o-2" target="mtprfGPpNIzWcougev2o-12" edge="1">
          <mxGeometry width="50" height="50" relative="1" as="geometry">
            <mxPoint x="710" y="580" as="sourcePoint" />
            <mxPoint x="760" y="530" as="targetPoint" />
          </mxGeometry>
        </mxCell>
        <mxCell id="mtprfGPpNIzWcougev2o-26" value="" style="endArrow=classic;html=1;rounded=0;strokeWidth=1;" parent="1" source="mtprfGPpNIzWcougev2o-2" target="mtprfGPpNIzWcougev2o-14" edge="1">
          <mxGeometry width="50" height="50" relative="1" as="geometry">
            <mxPoint x="720" y="590" as="sourcePoint" />
            <mxPoint x="770" y="540" as="targetPoint" />
          </mxGeometry>
        </mxCell>
        <mxCell id="mtprfGPpNIzWcougev2o-27" value="&lt;font style=&quot;font-size: 15px;&quot;&gt;Include&lt;/font&gt;" style="endArrow=classic;html=1;rounded=0;strokeWidth=1;dashed=1;" parent="1" source="mtprfGPpNIzWcougev2o-13" target="mtprfGPpNIzWcougev2o-5" edge="1">
          <mxGeometry width="50" height="50" relative="1" as="geometry">
            <mxPoint x="570" y="590" as="sourcePoint" />
            <mxPoint x="540" y="510" as="targetPoint" />
          </mxGeometry>
        </mxCell>
        <mxCell id="mtprfGPpNIzWcougev2o-28" value="&lt;font style=&quot;font-size: 15px;&quot;&gt;Use Case Diagram&lt;/font&gt;" style="shape=umlFrame;whiteSpace=wrap;html=1;pointerEvents=0;recursiveResize=0;container=1;collapsible=0;width=160;height=40;strokeWidth=1;" parent="1" vertex="1">
          <mxGeometry x="240" y="40" width="680" height="960" as="geometry" />
        </mxCell>
      </root>
    </mxGraphModel>
  </diagram>
  <diagram name="Activity" id="DsEQdEoV1zBrSn3IEx1E">
    <mxGraphModel dx="2982" dy="1384" grid="1" gridSize="10" guides="1" tooltips="1" connect="1" arrows="1" fold="1" page="1" pageScale="1" pageWidth="850" pageHeight="1100" math="0" shadow="0">
      <root>
        <mxCell id="0" />
        <mxCell id="1" parent="0" />
        <mxCell id="bwRHMofNBBqOk8iZfQdX-9" value="" style="ellipse;whiteSpace=wrap;html=1;aspect=fixed;fontSize=15;" parent="1" vertex="1">
          <mxGeometry x="220" y="200" width="40" height="40" as="geometry" />
        </mxCell>
        <mxCell id="iLO7dBaF0v2jmyG7skQd-9" value="Pengguna" style="swimlane;whiteSpace=wrap;html=1;fontSize=15;" parent="1" vertex="1">
          <mxGeometry x="80" y="140" width="280" height="1380" as="geometry" />
        </mxCell>
        <mxCell id="38LU1QrOyRtCWwfQMIvd-19" value="Mengakses&lt;div style=&quot;font-size: 15px;&quot;&gt;halaman Beranda&lt;/div&gt;" style="rounded=1;whiteSpace=wrap;html=1;fontSize=15;" parent="iLO7dBaF0v2jmyG7skQd-9" vertex="1">
          <mxGeometry x="80" y="180" width="160" height="80" as="geometry" />
        </mxCell>
        <mxCell id="38LU1QrOyRtCWwfQMIvd-20" value="Menekan tombol Masuk" style="rounded=1;whiteSpace=wrap;html=1;fontSize=15;" parent="iLO7dBaF0v2jmyG7skQd-9" vertex="1">
          <mxGeometry x="80" y="340" width="160" height="80" as="geometry" />
        </mxCell>
        <mxCell id="zKETHxeGn-HKhwvjtsdP-66" value="Memilih menu&lt;div style=&quot;font-size: 15px;&quot;&gt;Login Pengguna&lt;/div&gt;" style="rounded=1;whiteSpace=wrap;html=1;fontSize=15;" parent="iLO7dBaF0v2jmyG7skQd-9" vertex="1">
          <mxGeometry x="80" y="500" width="160" height="80" as="geometry" />
        </mxCell>
        <mxCell id="nKFIUN-Ugbit4O_SoITC-8" value="Menekan tombol&lt;br style=&quot;font-size: 15px;&quot;&gt;Masuk" style="rounded=1;whiteSpace=wrap;html=1;fontSize=15;" vertex="1" parent="iLO7dBaF0v2jmyG7skQd-9">
          <mxGeometry x="80" y="820" width="160" height="80" as="geometry" />
        </mxCell>
        <mxCell id="iLO7dBaF0v2jmyG7skQd-14" value="Start" style="endArrow=classic;html=1;rounded=0;fontSize=15;" parent="1" source="bwRHMofNBBqOk8iZfQdX-9" target="38LU1QrOyRtCWwfQMIvd-19" edge="1">
          <mxGeometry width="50" height="50" relative="1" as="geometry">
            <mxPoint x="490" y="490" as="sourcePoint" />
            <mxPoint x="520" y="220" as="targetPoint" />
            <mxPoint as="offset" />
          </mxGeometry>
        </mxCell>
        <mxCell id="38LU1QrOyRtCWwfQMIvd-1" value="Sistem" style="swimlane;whiteSpace=wrap;html=1;fontSize=15;" parent="1" vertex="1">
          <mxGeometry x="360" y="140" width="240" height="1380" as="geometry" />
        </mxCell>
        <mxCell id="38LU1QrOyRtCWwfQMIvd-21" value="Menampilkan halaman Pilihan Login" style="rounded=1;whiteSpace=wrap;html=1;fontSize=15;" parent="38LU1QrOyRtCWwfQMIvd-1" vertex="1">
          <mxGeometry x="40" y="340" width="160" height="80" as="geometry" />
        </mxCell>
        <mxCell id="XRfkj-H-BZ0eDyvUn66A-1" value="Memasukkan NIK&lt;div style=&quot;font-size: 15px;&quot;&gt;dan Password&lt;/div&gt;" style="rounded=1;whiteSpace=wrap;html=1;fontSize=15;" parent="38LU1QrOyRtCWwfQMIvd-1" vertex="1">
          <mxGeometry x="-200" y="660" width="160" height="80" as="geometry" />
        </mxCell>
        <mxCell id="iLO7dBaF0v2jmyG7skQd-1" value="" style="rhombus;whiteSpace=wrap;html=1;fontSize=15;" parent="38LU1QrOyRtCWwfQMIvd-1" vertex="1">
          <mxGeometry x="80" y="980" width="80" height="80" as="geometry" />
        </mxCell>
        <mxCell id="iLO7dBaF0v2jmyG7skQd-3" value="Validasi login" style="rounded=1;whiteSpace=wrap;html=1;fontSize=15;" parent="38LU1QrOyRtCWwfQMIvd-1" vertex="1">
          <mxGeometry x="40" y="820" width="160" height="80" as="geometry" />
        </mxCell>
        <mxCell id="iLO7dBaF0v2jmyG7skQd-4" value="" style="endArrow=classic;html=1;rounded=0;fontSize=15;" parent="38LU1QrOyRtCWwfQMIvd-1" source="iLO7dBaF0v2jmyG7skQd-3" target="iLO7dBaF0v2jmyG7skQd-1" edge="1">
          <mxGeometry width="50" height="50" relative="1" as="geometry">
            <mxPoint x="-100" y="250" as="sourcePoint" />
            <mxPoint x="-50" y="200" as="targetPoint" />
          </mxGeometry>
        </mxCell>
        <mxCell id="iLO7dBaF0v2jmyG7skQd-7" value="Menampilkan&lt;div style=&quot;font-size: 15px;&quot;&gt;halaman Beranda&lt;/div&gt;" style="rounded=1;whiteSpace=wrap;html=1;fontSize=15;" parent="38LU1QrOyRtCWwfQMIvd-1" vertex="1">
          <mxGeometry x="40" y="1140" width="160" height="80" as="geometry" />
        </mxCell>
        <mxCell id="iLO7dBaF0v2jmyG7skQd-8" value="Valid" style="endArrow=classic;html=1;rounded=0;fontSize=15;" parent="38LU1QrOyRtCWwfQMIvd-1" source="iLO7dBaF0v2jmyG7skQd-1" target="iLO7dBaF0v2jmyG7skQd-7" edge="1">
          <mxGeometry width="50" height="50" relative="1" as="geometry">
            <mxPoint x="-100" y="750" as="sourcePoint" />
            <mxPoint x="-50" y="700" as="targetPoint" />
            <mxPoint as="offset" />
          </mxGeometry>
        </mxCell>
        <mxCell id="iLO7dBaF0v2jmyG7skQd-13" value="" style="ellipse;html=1;shape=endState;fillColor=#000000;fontSize=15;" parent="38LU1QrOyRtCWwfQMIvd-1" vertex="1">
          <mxGeometry x="100" y="1300" width="40" height="40" as="geometry" />
        </mxCell>
        <mxCell id="38LU1QrOyRtCWwfQMIvd-2" value="End" style="endArrow=classic;html=1;rounded=0;fontSize=15;" parent="38LU1QrOyRtCWwfQMIvd-1" source="iLO7dBaF0v2jmyG7skQd-7" target="iLO7dBaF0v2jmyG7skQd-13" edge="1">
          <mxGeometry width="50" height="50" relative="1" as="geometry">
            <mxPoint x="290" y="700" as="sourcePoint" />
            <mxPoint x="120" y="980" as="targetPoint" />
          </mxGeometry>
        </mxCell>
        <mxCell id="38LU1QrOyRtCWwfQMIvd-22" value="Menampilkan&lt;div style=&quot;font-size: 15px;&quot;&gt;halaman Beranda&lt;/div&gt;" style="rounded=1;whiteSpace=wrap;html=1;fontSize=15;" parent="38LU1QrOyRtCWwfQMIvd-1" vertex="1">
          <mxGeometry x="40" y="180" width="160" height="80" as="geometry" />
        </mxCell>
        <mxCell id="zKETHxeGn-HKhwvjtsdP-68" value="Menampilkan halaman Login Pengguna" style="rounded=1;whiteSpace=wrap;html=1;fontSize=15;" parent="38LU1QrOyRtCWwfQMIvd-1" vertex="1">
          <mxGeometry x="40" y="500" width="160" height="80" as="geometry" />
        </mxCell>
        <mxCell id="zKETHxeGn-HKhwvjtsdP-71" value="" style="endArrow=classic;html=1;rounded=0;fontSize=15;" parent="38LU1QrOyRtCWwfQMIvd-1" source="zKETHxeGn-HKhwvjtsdP-68" target="XRfkj-H-BZ0eDyvUn66A-1" edge="1">
          <mxGeometry width="50" height="50" relative="1" as="geometry">
            <mxPoint x="-20" y="640" as="sourcePoint" />
            <mxPoint x="30" y="590" as="targetPoint" />
            <Array as="points">
              <mxPoint x="120" y="620" />
              <mxPoint x="-120" y="620" />
            </Array>
          </mxGeometry>
        </mxCell>
        <mxCell id="zKETHxeGn-HKhwvjtsdP-125" value="Tidak Valid" style="endArrow=classic;html=1;rounded=0;fontSize=15;" parent="38LU1QrOyRtCWwfQMIvd-1" source="iLO7dBaF0v2jmyG7skQd-1" target="XRfkj-H-BZ0eDyvUn66A-1" edge="1">
          <mxGeometry x="-0.5294" width="50" height="50" relative="1" as="geometry">
            <mxPoint x="40" y="690" as="sourcePoint" />
            <mxPoint x="90" y="640" as="targetPoint" />
            <Array as="points">
              <mxPoint x="-240" y="1020" />
              <mxPoint x="-240" y="700" />
            </Array>
            <mxPoint as="offset" />
          </mxGeometry>
        </mxCell>
        <mxCell id="38LU1QrOyRtCWwfQMIvd-16" value="Login Pengguna" style="text;html=1;align=center;verticalAlign=middle;whiteSpace=wrap;rounded=0;fontSize=25;" parent="1" vertex="1">
          <mxGeometry x="120" y="80" width="480" height="40" as="geometry" />
        </mxCell>
        <mxCell id="38LU1QrOyRtCWwfQMIvd-23" value="" style="endArrow=classic;html=1;rounded=0;fontSize=15;" parent="1" source="38LU1QrOyRtCWwfQMIvd-19" target="38LU1QrOyRtCWwfQMIvd-22" edge="1">
          <mxGeometry width="50" height="50" relative="1" as="geometry">
            <mxPoint x="420" y="420" as="sourcePoint" />
            <mxPoint x="470" y="370" as="targetPoint" />
          </mxGeometry>
        </mxCell>
        <mxCell id="38LU1QrOyRtCWwfQMIvd-24" value="" style="endArrow=classic;html=1;rounded=0;fontSize=15;" parent="1" source="38LU1QrOyRtCWwfQMIvd-22" target="38LU1QrOyRtCWwfQMIvd-20" edge="1">
          <mxGeometry width="50" height="50" relative="1" as="geometry">
            <mxPoint x="330" y="370" as="sourcePoint" />
            <mxPoint x="410" y="370" as="targetPoint" />
            <Array as="points">
              <mxPoint x="480" y="440" />
              <mxPoint x="240" y="440" />
            </Array>
          </mxGeometry>
        </mxCell>
        <mxCell id="38LU1QrOyRtCWwfQMIvd-25" value="" style="endArrow=classic;html=1;rounded=0;fontSize=15;" parent="1" source="38LU1QrOyRtCWwfQMIvd-20" target="38LU1QrOyRtCWwfQMIvd-21" edge="1">
          <mxGeometry width="50" height="50" relative="1" as="geometry">
            <mxPoint x="340" y="380" as="sourcePoint" />
            <mxPoint x="420" y="380" as="targetPoint" />
          </mxGeometry>
        </mxCell>
        <mxCell id="38LU1QrOyRtCWwfQMIvd-47" value="Registrasi Pengguna" style="text;html=1;align=center;verticalAlign=middle;whiteSpace=wrap;rounded=0;fontSize=25;" parent="1" vertex="1">
          <mxGeometry x="680" y="80" width="640" height="40" as="geometry" />
        </mxCell>
        <mxCell id="tN-KXd3DmiFzPKlBks3N-2" value="Pengguna" style="swimlane;whiteSpace=wrap;html=1;fontSize=15;" parent="1" vertex="1">
          <mxGeometry x="2160" y="140" width="280" height="1060" as="geometry" />
        </mxCell>
        <mxCell id="p4RgYQNxMF_yrCPV_QGR-174" value="" style="ellipse;whiteSpace=wrap;html=1;aspect=fixed;fontSize=15;" vertex="1" parent="tN-KXd3DmiFzPKlBks3N-2">
          <mxGeometry x="140" y="60" width="40" height="40" as="geometry" />
        </mxCell>
        <mxCell id="tN-KXd3DmiFzPKlBks3N-6" value="Sistem" style="swimlane;whiteSpace=wrap;html=1;fontSize=15;" parent="1" vertex="1">
          <mxGeometry x="2440" y="140" width="240" height="1060" as="geometry" />
        </mxCell>
        <mxCell id="tN-KXd3DmiFzPKlBks3N-20" value="Lihat Profil Pengguna" style="text;html=1;align=center;verticalAlign=middle;whiteSpace=wrap;rounded=0;fontSize=25;" parent="1" vertex="1">
          <mxGeometry x="2160" y="80" width="520" height="40" as="geometry" />
        </mxCell>
        <mxCell id="zKETHxeGn-HKhwvjtsdP-3" value="" style="ellipse;whiteSpace=wrap;html=1;aspect=fixed;fontSize=15;" parent="1" vertex="1">
          <mxGeometry x="2940" y="200" width="40" height="40" as="geometry" />
        </mxCell>
        <mxCell id="zKETHxeGn-HKhwvjtsdP-4" value="Pengguna" style="swimlane;whiteSpace=wrap;html=1;fontSize=15;" parent="1" vertex="1">
          <mxGeometry x="2800" y="140" width="280" height="1540" as="geometry" />
        </mxCell>
        <mxCell id="zKETHxeGn-HKhwvjtsdP-5" value="Menekan nama pengguna&amp;nbsp;&lt;span style=&quot;background-color: initial; font-size: 15px;&quot;&gt;pada&lt;/span&gt;&lt;div style=&quot;font-size: 15px;&quot;&gt;&lt;span style=&quot;background-color: initial; font-size: 15px;&quot;&gt;Navigation Bar&lt;/span&gt;&lt;/div&gt;" style="rounded=1;whiteSpace=wrap;html=1;fontSize=15;" parent="zKETHxeGn-HKhwvjtsdP-4" vertex="1">
          <mxGeometry x="80" y="180" width="160" height="80" as="geometry" />
        </mxCell>
        <mxCell id="zKETHxeGn-HKhwvjtsdP-6" value="Memilih menu akun" style="rounded=1;whiteSpace=wrap;html=1;fontSize=15;" parent="zKETHxeGn-HKhwvjtsdP-4" vertex="1">
          <mxGeometry x="80" y="340" width="160" height="80" as="geometry" />
        </mxCell>
        <mxCell id="zKETHxeGn-HKhwvjtsdP-17" value="Menekan tombol&lt;div style=&quot;font-size: 15px;&quot;&gt;Update Profile&lt;/div&gt;" style="rounded=1;whiteSpace=wrap;html=1;fontSize=15;" parent="zKETHxeGn-HKhwvjtsdP-4" vertex="1">
          <mxGeometry x="80" y="500" width="160" height="80" as="geometry" />
        </mxCell>
        <mxCell id="zKETHxeGn-HKhwvjtsdP-22" value="Mengganti data&lt;div style=&quot;font-size: 15px;&quot;&gt;yang diinginkan&lt;/div&gt;" style="rounded=1;whiteSpace=wrap;html=1;fontSize=15;" parent="zKETHxeGn-HKhwvjtsdP-4" vertex="1">
          <mxGeometry x="80" y="660" width="160" height="80" as="geometry" />
        </mxCell>
        <mxCell id="p4RgYQNxMF_yrCPV_QGR-172" value="Menekan tombol&lt;br style=&quot;font-size: 15px;&quot;&gt;SImpan" style="rounded=1;whiteSpace=wrap;html=1;fontSize=15;" vertex="1" parent="zKETHxeGn-HKhwvjtsdP-4">
          <mxGeometry x="80" y="820" width="160" height="80" as="geometry" />
        </mxCell>
        <mxCell id="p4RgYQNxMF_yrCPV_QGR-173" value="" style="endArrow=classic;html=1;rounded=0;fontSize=15;" edge="1" parent="zKETHxeGn-HKhwvjtsdP-4" source="zKETHxeGn-HKhwvjtsdP-22" target="p4RgYQNxMF_yrCPV_QGR-172">
          <mxGeometry width="50" height="50" relative="1" as="geometry">
            <mxPoint x="-170" y="840" as="sourcePoint" />
            <mxPoint x="-120" y="790" as="targetPoint" />
          </mxGeometry>
        </mxCell>
        <mxCell id="zKETHxeGn-HKhwvjtsdP-7" value="Start" style="endArrow=classic;html=1;rounded=0;fontSize=15;" parent="1" source="zKETHxeGn-HKhwvjtsdP-3" target="zKETHxeGn-HKhwvjtsdP-5" edge="1">
          <mxGeometry width="50" height="50" relative="1" as="geometry">
            <mxPoint x="3210" y="490" as="sourcePoint" />
            <mxPoint x="3240" y="220" as="targetPoint" />
          </mxGeometry>
        </mxCell>
        <mxCell id="zKETHxeGn-HKhwvjtsdP-8" value="Sistem" style="swimlane;whiteSpace=wrap;html=1;fontSize=15;" parent="1" vertex="1">
          <mxGeometry x="3080" y="140" width="240" height="1540" as="geometry" />
        </mxCell>
        <mxCell id="zKETHxeGn-HKhwvjtsdP-9" value="Menampilkan halaman Profil Pengguna" style="rounded=1;whiteSpace=wrap;html=1;fontSize=15;" parent="zKETHxeGn-HKhwvjtsdP-8" vertex="1">
          <mxGeometry x="40" y="340" width="160" height="80" as="geometry" />
        </mxCell>
        <mxCell id="zKETHxeGn-HKhwvjtsdP-10" value="Menampilkan&lt;div style=&quot;font-size: 15px;&quot;&gt;menu dropdown&lt;/div&gt;" style="rounded=1;whiteSpace=wrap;html=1;fontSize=15;" parent="zKETHxeGn-HKhwvjtsdP-8" vertex="1">
          <mxGeometry x="40" y="180" width="160" height="80" as="geometry" />
        </mxCell>
        <mxCell id="zKETHxeGn-HKhwvjtsdP-18" value="Menampilkan&lt;div style=&quot;font-size: 15px;&quot;&gt;halaman Edit Profil&lt;/div&gt;" style="rounded=1;whiteSpace=wrap;html=1;fontSize=15;" parent="zKETHxeGn-HKhwvjtsdP-8" vertex="1">
          <mxGeometry x="40" y="500" width="160" height="80" as="geometry" />
        </mxCell>
        <mxCell id="zKETHxeGn-HKhwvjtsdP-24" value="Validasi data" style="rounded=1;whiteSpace=wrap;html=1;fontSize=15;" parent="zKETHxeGn-HKhwvjtsdP-8" vertex="1">
          <mxGeometry x="40" y="820" width="160" height="80" as="geometry" />
        </mxCell>
        <mxCell id="zKETHxeGn-HKhwvjtsdP-32" value="" style="rhombus;whiteSpace=wrap;html=1;fontSize=15;" parent="zKETHxeGn-HKhwvjtsdP-8" vertex="1">
          <mxGeometry x="80" y="980" width="80" height="80" as="geometry" />
        </mxCell>
        <mxCell id="zKETHxeGn-HKhwvjtsdP-33" value="" style="endArrow=classic;html=1;rounded=0;fontSize=15;" parent="zKETHxeGn-HKhwvjtsdP-8" source="zKETHxeGn-HKhwvjtsdP-24" target="zKETHxeGn-HKhwvjtsdP-32" edge="1">
          <mxGeometry width="50" height="50" relative="1" as="geometry">
            <mxPoint x="-10" y="990" as="sourcePoint" />
            <mxPoint x="40" y="940" as="targetPoint" />
          </mxGeometry>
        </mxCell>
        <mxCell id="zKETHxeGn-HKhwvjtsdP-34" value="Menyimpan data" style="rounded=1;whiteSpace=wrap;html=1;fontSize=15;" parent="zKETHxeGn-HKhwvjtsdP-8" vertex="1">
          <mxGeometry x="40" y="1140" width="160" height="80" as="geometry" />
        </mxCell>
        <mxCell id="zKETHxeGn-HKhwvjtsdP-35" value="Valid" style="endArrow=classic;html=1;rounded=0;fontSize=15;" parent="zKETHxeGn-HKhwvjtsdP-8" source="zKETHxeGn-HKhwvjtsdP-32" target="zKETHxeGn-HKhwvjtsdP-34" edge="1">
          <mxGeometry width="50" height="50" relative="1" as="geometry">
            <mxPoint x="-10" y="1060" as="sourcePoint" />
            <mxPoint x="40" y="1010" as="targetPoint" />
            <mxPoint as="offset" />
          </mxGeometry>
        </mxCell>
        <mxCell id="zKETHxeGn-HKhwvjtsdP-37" value="Menampilkan halaman Profil Pengguna" style="rounded=1;whiteSpace=wrap;html=1;fontSize=15;" parent="zKETHxeGn-HKhwvjtsdP-8" vertex="1">
          <mxGeometry x="40" y="1300" width="160" height="80" as="geometry" />
        </mxCell>
        <mxCell id="zKETHxeGn-HKhwvjtsdP-38" value="" style="endArrow=classic;html=1;rounded=0;fontSize=15;" parent="zKETHxeGn-HKhwvjtsdP-8" source="zKETHxeGn-HKhwvjtsdP-34" target="zKETHxeGn-HKhwvjtsdP-37" edge="1">
          <mxGeometry width="50" height="50" relative="1" as="geometry">
            <mxPoint x="-10" y="1210" as="sourcePoint" />
            <mxPoint x="40" y="1160" as="targetPoint" />
          </mxGeometry>
        </mxCell>
        <mxCell id="zKETHxeGn-HKhwvjtsdP-42" value="" style="ellipse;html=1;shape=endState;fillColor=#000000;fontSize=15;" parent="zKETHxeGn-HKhwvjtsdP-8" vertex="1">
          <mxGeometry x="100" y="1460" width="40" height="40" as="geometry" />
        </mxCell>
        <mxCell id="zKETHxeGn-HKhwvjtsdP-41" value="End" style="endArrow=classic;html=1;rounded=0;fontSize=15;" parent="zKETHxeGn-HKhwvjtsdP-8" source="zKETHxeGn-HKhwvjtsdP-37" target="zKETHxeGn-HKhwvjtsdP-42" edge="1">
          <mxGeometry width="50" height="50" relative="1" as="geometry">
            <mxPoint x="125" y="1370" as="sourcePoint" />
            <mxPoint x="135" y="1770" as="targetPoint" />
          </mxGeometry>
        </mxCell>
        <mxCell id="zKETHxeGn-HKhwvjtsdP-13" value="Edit Profil Pengguna" style="text;html=1;align=center;verticalAlign=middle;whiteSpace=wrap;rounded=0;fontSize=25;" parent="1" vertex="1">
          <mxGeometry x="2800" y="80" width="480" height="40" as="geometry" />
        </mxCell>
        <mxCell id="zKETHxeGn-HKhwvjtsdP-14" value="" style="endArrow=classic;html=1;rounded=0;fontSize=15;" parent="1" source="zKETHxeGn-HKhwvjtsdP-5" target="zKETHxeGn-HKhwvjtsdP-10" edge="1">
          <mxGeometry width="50" height="50" relative="1" as="geometry">
            <mxPoint x="3140" y="420" as="sourcePoint" />
            <mxPoint x="3190" y="370" as="targetPoint" />
          </mxGeometry>
        </mxCell>
        <mxCell id="zKETHxeGn-HKhwvjtsdP-15" value="" style="endArrow=classic;html=1;rounded=0;fontSize=15;" parent="1" source="zKETHxeGn-HKhwvjtsdP-10" target="zKETHxeGn-HKhwvjtsdP-6" edge="1">
          <mxGeometry width="50" height="50" relative="1" as="geometry">
            <mxPoint x="3050" y="370" as="sourcePoint" />
            <mxPoint x="3130" y="370" as="targetPoint" />
            <Array as="points">
              <mxPoint x="3200" y="440" />
              <mxPoint x="2960" y="440" />
            </Array>
          </mxGeometry>
        </mxCell>
        <mxCell id="zKETHxeGn-HKhwvjtsdP-16" value="" style="endArrow=classic;html=1;rounded=0;fontSize=15;" parent="1" source="zKETHxeGn-HKhwvjtsdP-6" target="zKETHxeGn-HKhwvjtsdP-9" edge="1">
          <mxGeometry width="50" height="50" relative="1" as="geometry">
            <mxPoint x="3060" y="380" as="sourcePoint" />
            <mxPoint x="3140" y="380" as="targetPoint" />
          </mxGeometry>
        </mxCell>
        <mxCell id="zKETHxeGn-HKhwvjtsdP-19" value="" style="endArrow=classic;html=1;rounded=0;fontSize=15;" parent="1" source="zKETHxeGn-HKhwvjtsdP-9" target="zKETHxeGn-HKhwvjtsdP-17" edge="1">
          <mxGeometry width="50" height="50" relative="1" as="geometry">
            <mxPoint x="2940" y="720" as="sourcePoint" />
            <mxPoint x="2990" y="670" as="targetPoint" />
            <Array as="points">
              <mxPoint x="3200" y="600" />
              <mxPoint x="2960" y="600" />
            </Array>
          </mxGeometry>
        </mxCell>
        <mxCell id="zKETHxeGn-HKhwvjtsdP-20" value="" style="endArrow=classic;html=1;rounded=0;fontSize=15;" parent="1" source="zKETHxeGn-HKhwvjtsdP-17" target="zKETHxeGn-HKhwvjtsdP-18" edge="1">
          <mxGeometry width="50" height="50" relative="1" as="geometry">
            <mxPoint x="2940" y="720" as="sourcePoint" />
            <mxPoint x="2990" y="670" as="targetPoint" />
          </mxGeometry>
        </mxCell>
        <mxCell id="zKETHxeGn-HKhwvjtsdP-23" value="" style="endArrow=classic;html=1;rounded=0;fontSize=15;" parent="1" source="zKETHxeGn-HKhwvjtsdP-18" target="zKETHxeGn-HKhwvjtsdP-22" edge="1">
          <mxGeometry width="50" height="50" relative="1" as="geometry">
            <mxPoint x="2980" y="800" as="sourcePoint" />
            <mxPoint x="3030" y="750" as="targetPoint" />
            <Array as="points">
              <mxPoint x="3200" y="760" />
              <mxPoint x="2960" y="760" />
            </Array>
          </mxGeometry>
        </mxCell>
        <mxCell id="zKETHxeGn-HKhwvjtsdP-25" value="" style="endArrow=classic;html=1;rounded=0;fontSize=15;" parent="1" source="p4RgYQNxMF_yrCPV_QGR-172" target="zKETHxeGn-HKhwvjtsdP-24" edge="1">
          <mxGeometry width="50" height="50" relative="1" as="geometry">
            <mxPoint x="3040" y="1000" as="sourcePoint" />
            <mxPoint x="3030" y="910" as="targetPoint" />
          </mxGeometry>
        </mxCell>
        <mxCell id="zKETHxeGn-HKhwvjtsdP-40" value="Tidak Valid" style="endArrow=classic;html=1;rounded=0;fontSize=15;" parent="1" source="zKETHxeGn-HKhwvjtsdP-32" target="zKETHxeGn-HKhwvjtsdP-22" edge="1">
          <mxGeometry x="-0.5294" width="50" height="50" relative="1" as="geometry">
            <mxPoint x="2900" y="1110" as="sourcePoint" />
            <mxPoint x="2960" y="1040" as="targetPoint" />
            <Array as="points">
              <mxPoint x="2840" y="1160" />
              <mxPoint x="2840" y="840" />
            </Array>
            <mxPoint as="offset" />
          </mxGeometry>
        </mxCell>
        <mxCell id="zKETHxeGn-HKhwvjtsdP-44" value="Pengguna" style="swimlane;whiteSpace=wrap;html=1;fontSize=15;" parent="1" vertex="1">
          <mxGeometry x="-720" y="140" width="240" height="1060" as="geometry" />
        </mxCell>
        <mxCell id="zKETHxeGn-HKhwvjtsdP-45" value="Mengakses&lt;div style=&quot;font-size: 15px;&quot;&gt;halaman Beranda&lt;/div&gt;" style="rounded=1;whiteSpace=wrap;html=1;fontSize=15;" parent="zKETHxeGn-HKhwvjtsdP-44" vertex="1">
          <mxGeometry x="40" y="180" width="160" height="80" as="geometry" />
        </mxCell>
        <mxCell id="zKETHxeGn-HKhwvjtsdP-46" value="Menekan tombol Masuk" style="rounded=1;whiteSpace=wrap;html=1;fontSize=15;" parent="zKETHxeGn-HKhwvjtsdP-44" vertex="1">
          <mxGeometry x="40" y="340" width="160" height="80" as="geometry" />
        </mxCell>
        <mxCell id="zKETHxeGn-HKhwvjtsdP-43" value="" style="ellipse;whiteSpace=wrap;html=1;aspect=fixed;fontSize=15;" parent="zKETHxeGn-HKhwvjtsdP-44" vertex="1">
          <mxGeometry x="100" y="60" width="40" height="40" as="geometry" />
        </mxCell>
        <mxCell id="zKETHxeGn-HKhwvjtsdP-47" value="Start" style="endArrow=classic;html=1;rounded=0;fontSize=15;" parent="zKETHxeGn-HKhwvjtsdP-44" source="zKETHxeGn-HKhwvjtsdP-43" target="zKETHxeGn-HKhwvjtsdP-45" edge="1">
          <mxGeometry width="50" height="50" relative="1" as="geometry">
            <mxPoint x="410" y="410" as="sourcePoint" />
            <mxPoint x="440" y="140" as="targetPoint" />
          </mxGeometry>
        </mxCell>
        <mxCell id="zKETHxeGn-HKhwvjtsdP-48" value="Sistem" style="swimlane;whiteSpace=wrap;html=1;fontSize=15;" parent="1" vertex="1">
          <mxGeometry x="-480" y="140" width="240" height="1060" as="geometry" />
        </mxCell>
        <mxCell id="zKETHxeGn-HKhwvjtsdP-49" value="Menampilkan halaman Login Pengguna" style="rounded=1;whiteSpace=wrap;html=1;fontSize=15;" parent="zKETHxeGn-HKhwvjtsdP-48" vertex="1">
          <mxGeometry x="40" y="340" width="160" height="80" as="geometry" />
        </mxCell>
        <mxCell id="zKETHxeGn-HKhwvjtsdP-50" value="Memasukkan NIK dan Password" style="rounded=1;whiteSpace=wrap;html=1;fontSize=15;" parent="zKETHxeGn-HKhwvjtsdP-48" vertex="1">
          <mxGeometry x="-200" y="500" width="160" height="80" as="geometry" />
        </mxCell>
        <mxCell id="zKETHxeGn-HKhwvjtsdP-51" value="" style="rhombus;whiteSpace=wrap;html=1;fontSize=15;" parent="zKETHxeGn-HKhwvjtsdP-48" vertex="1">
          <mxGeometry x="80" y="660" width="80" height="80" as="geometry" />
        </mxCell>
        <mxCell id="zKETHxeGn-HKhwvjtsdP-52" value="Validasi Login" style="rounded=1;whiteSpace=wrap;html=1;fontSize=15;" parent="zKETHxeGn-HKhwvjtsdP-48" vertex="1">
          <mxGeometry x="40" y="500" width="160" height="80" as="geometry" />
        </mxCell>
        <mxCell id="zKETHxeGn-HKhwvjtsdP-53" value="" style="endArrow=classic;html=1;rounded=0;fontSize=15;" parent="zKETHxeGn-HKhwvjtsdP-48" source="zKETHxeGn-HKhwvjtsdP-52" target="zKETHxeGn-HKhwvjtsdP-51" edge="1">
          <mxGeometry width="50" height="50" relative="1" as="geometry">
            <mxPoint x="-100" y="250" as="sourcePoint" />
            <mxPoint x="-50" y="200" as="targetPoint" />
          </mxGeometry>
        </mxCell>
        <mxCell id="zKETHxeGn-HKhwvjtsdP-54" value="Tidak Valid" style="endArrow=none;html=1;rounded=0;fontSize=15;endFill=0;startArrow=classic;startFill=1;" parent="zKETHxeGn-HKhwvjtsdP-48" source="zKETHxeGn-HKhwvjtsdP-50" target="zKETHxeGn-HKhwvjtsdP-51" edge="1">
          <mxGeometry x="0.375" width="50" height="50" relative="1" as="geometry">
            <mxPoint x="-20" y="590" as="sourcePoint" />
            <mxPoint x="30" y="540" as="targetPoint" />
            <Array as="points">
              <mxPoint x="-120" y="700" />
            </Array>
            <mxPoint as="offset" />
          </mxGeometry>
        </mxCell>
        <mxCell id="zKETHxeGn-HKhwvjtsdP-55" value="Menampilkan&lt;div style=&quot;font-size: 15px;&quot;&gt;halaman Beranda&lt;/div&gt;" style="rounded=1;whiteSpace=wrap;html=1;fontSize=15;" parent="zKETHxeGn-HKhwvjtsdP-48" vertex="1">
          <mxGeometry x="40" y="820" width="160" height="80" as="geometry" />
        </mxCell>
        <mxCell id="zKETHxeGn-HKhwvjtsdP-56" value="Valid" style="endArrow=classic;html=1;rounded=0;fontSize=15;" parent="zKETHxeGn-HKhwvjtsdP-48" source="zKETHxeGn-HKhwvjtsdP-51" target="zKETHxeGn-HKhwvjtsdP-55" edge="1">
          <mxGeometry width="50" height="50" relative="1" as="geometry">
            <mxPoint x="-100" y="750" as="sourcePoint" />
            <mxPoint x="-50" y="700" as="targetPoint" />
          </mxGeometry>
        </mxCell>
        <mxCell id="zKETHxeGn-HKhwvjtsdP-57" value="" style="ellipse;html=1;shape=endState;fillColor=#000000;fontSize=15;" parent="zKETHxeGn-HKhwvjtsdP-48" vertex="1">
          <mxGeometry x="100" y="980" width="40" height="40" as="geometry" />
        </mxCell>
        <mxCell id="zKETHxeGn-HKhwvjtsdP-58" value="End" style="endArrow=classic;html=1;rounded=0;fontSize=15;" parent="zKETHxeGn-HKhwvjtsdP-48" source="zKETHxeGn-HKhwvjtsdP-55" target="zKETHxeGn-HKhwvjtsdP-57" edge="1">
          <mxGeometry width="50" height="50" relative="1" as="geometry">
            <mxPoint x="290" y="700" as="sourcePoint" />
            <mxPoint x="120" y="980" as="targetPoint" />
          </mxGeometry>
        </mxCell>
        <mxCell id="zKETHxeGn-HKhwvjtsdP-59" value="Menampilkan&lt;div style=&quot;font-size: 15px;&quot;&gt;halaman Beranda&lt;/div&gt;" style="rounded=1;whiteSpace=wrap;html=1;fontSize=15;" parent="zKETHxeGn-HKhwvjtsdP-48" vertex="1">
          <mxGeometry x="40" y="180" width="160" height="80" as="geometry" />
        </mxCell>
        <mxCell id="zKETHxeGn-HKhwvjtsdP-60" value="" style="endArrow=classic;html=1;rounded=0;fontSize=15;" parent="zKETHxeGn-HKhwvjtsdP-48" source="zKETHxeGn-HKhwvjtsdP-49" target="zKETHxeGn-HKhwvjtsdP-50" edge="1">
          <mxGeometry width="50" height="50" relative="1" as="geometry">
            <mxPoint x="-10" y="250" as="sourcePoint" />
            <mxPoint x="70" y="250" as="targetPoint" />
            <Array as="points">
              <mxPoint x="120" y="460" />
              <mxPoint x="-120" y="460" />
            </Array>
          </mxGeometry>
        </mxCell>
        <mxCell id="zKETHxeGn-HKhwvjtsdP-61" value="" style="endArrow=classic;html=1;rounded=0;fontSize=15;" parent="zKETHxeGn-HKhwvjtsdP-48" source="zKETHxeGn-HKhwvjtsdP-50" target="zKETHxeGn-HKhwvjtsdP-52" edge="1">
          <mxGeometry width="50" height="50" relative="1" as="geometry">
            <mxPoint y="260" as="sourcePoint" />
            <mxPoint x="80" y="260" as="targetPoint" />
          </mxGeometry>
        </mxCell>
        <mxCell id="zKETHxeGn-HKhwvjtsdP-62" value="Login Pengguna V1" style="text;html=1;align=center;verticalAlign=middle;whiteSpace=wrap;rounded=0;fontSize=25;" parent="1" vertex="1">
          <mxGeometry x="-720" y="80" width="480" height="40" as="geometry" />
        </mxCell>
        <mxCell id="zKETHxeGn-HKhwvjtsdP-63" value="" style="endArrow=classic;html=1;rounded=0;fontSize=15;" parent="1" source="zKETHxeGn-HKhwvjtsdP-45" target="zKETHxeGn-HKhwvjtsdP-59" edge="1">
          <mxGeometry width="50" height="50" relative="1" as="geometry">
            <mxPoint x="-380" y="480" as="sourcePoint" />
            <mxPoint x="-330" y="430" as="targetPoint" />
          </mxGeometry>
        </mxCell>
        <mxCell id="zKETHxeGn-HKhwvjtsdP-64" value="" style="endArrow=classic;html=1;rounded=0;fontSize=15;" parent="1" source="zKETHxeGn-HKhwvjtsdP-59" target="zKETHxeGn-HKhwvjtsdP-46" edge="1">
          <mxGeometry width="50" height="50" relative="1" as="geometry">
            <mxPoint x="-470" y="430" as="sourcePoint" />
            <mxPoint x="-390" y="430" as="targetPoint" />
            <Array as="points">
              <mxPoint x="-360" y="440" />
              <mxPoint x="-600" y="440" />
            </Array>
          </mxGeometry>
        </mxCell>
        <mxCell id="zKETHxeGn-HKhwvjtsdP-65" value="" style="endArrow=classic;html=1;rounded=0;fontSize=15;" parent="1" source="zKETHxeGn-HKhwvjtsdP-46" target="zKETHxeGn-HKhwvjtsdP-49" edge="1">
          <mxGeometry width="50" height="50" relative="1" as="geometry">
            <mxPoint x="-460" y="440" as="sourcePoint" />
            <mxPoint x="-380" y="440" as="targetPoint" />
          </mxGeometry>
        </mxCell>
        <mxCell id="zKETHxeGn-HKhwvjtsdP-69" value="" style="endArrow=classic;html=1;rounded=0;fontSize=15;" parent="1" source="38LU1QrOyRtCWwfQMIvd-21" target="zKETHxeGn-HKhwvjtsdP-66" edge="1">
          <mxGeometry width="50" height="50" relative="1" as="geometry">
            <mxPoint x="340" y="690" as="sourcePoint" />
            <mxPoint x="390" y="640" as="targetPoint" />
            <Array as="points">
              <mxPoint x="480" y="600" />
              <mxPoint x="240" y="600" />
            </Array>
          </mxGeometry>
        </mxCell>
        <mxCell id="zKETHxeGn-HKhwvjtsdP-70" value="" style="endArrow=classic;html=1;rounded=0;fontSize=15;" parent="1" source="zKETHxeGn-HKhwvjtsdP-66" target="zKETHxeGn-HKhwvjtsdP-68" edge="1">
          <mxGeometry width="50" height="50" relative="1" as="geometry">
            <mxPoint x="340" y="690" as="sourcePoint" />
            <mxPoint x="390" y="640" as="targetPoint" />
          </mxGeometry>
        </mxCell>
        <mxCell id="zKETHxeGn-HKhwvjtsdP-118" value="Login Admin" style="text;html=1;align=center;verticalAlign=middle;whiteSpace=wrap;rounded=0;fontSize=25;" parent="1" vertex="1">
          <mxGeometry x="80" y="3040" width="520" height="40" as="geometry" />
        </mxCell>
        <mxCell id="zKETHxeGn-HKhwvjtsdP-228" value="Upload Informasi" style="text;html=1;align=center;verticalAlign=middle;whiteSpace=wrap;rounded=0;fontSize=25;" parent="1" vertex="1">
          <mxGeometry x="3360" y="3040" width="520" height="40" as="geometry" />
        </mxCell>
        <mxCell id="zKETHxeGn-HKhwvjtsdP-238" value="" style="ellipse;whiteSpace=wrap;html=1;aspect=fixed;fontSize=15;" parent="1" vertex="1">
          <mxGeometry x="4140" y="3160" width="40" height="40" as="geometry" />
        </mxCell>
        <mxCell id="zKETHxeGn-HKhwvjtsdP-239" value="Admin" style="swimlane;whiteSpace=wrap;html=1;fontSize=15;" parent="1" vertex="1">
          <mxGeometry x="4000" y="3100" width="320" height="1060" as="geometry" />
        </mxCell>
        <mxCell id="zKETHxeGn-HKhwvjtsdP-240" value="Mengakses&amp;nbsp;&lt;span style=&quot;background-color: initial; font-size: 15px;&quot;&gt;halaman Akun Admin&lt;/span&gt;" style="rounded=1;whiteSpace=wrap;html=1;fontSize=15;" parent="zKETHxeGn-HKhwvjtsdP-239" vertex="1">
          <mxGeometry x="80" y="180" width="160" height="80" as="geometry" />
        </mxCell>
        <mxCell id="zKETHxeGn-HKhwvjtsdP-266" value="Memilih&lt;div style=&quot;font-size: 15px;&quot;&gt;tombol aksi&lt;/div&gt;" style="rounded=1;whiteSpace=wrap;html=1;fontSize=15;" parent="zKETHxeGn-HKhwvjtsdP-239" vertex="1">
          <mxGeometry x="80" y="340" width="160" height="80" as="geometry" />
        </mxCell>
        <mxCell id="zKETHxeGn-HKhwvjtsdP-265" value="" style="rhombus;whiteSpace=wrap;html=1;fontSize=15;" parent="zKETHxeGn-HKhwvjtsdP-239" vertex="1">
          <mxGeometry x="120" y="500" width="80" height="80" as="geometry" />
        </mxCell>
        <mxCell id="zKETHxeGn-HKhwvjtsdP-268" value="Memasukkan data" style="rounded=1;whiteSpace=wrap;html=1;fontSize=15;" parent="zKETHxeGn-HKhwvjtsdP-239" vertex="1">
          <mxGeometry x="80" y="660" width="160" height="80" as="geometry" />
        </mxCell>
        <mxCell id="zKETHxeGn-HKhwvjtsdP-274" value="Menghapus data" style="rounded=1;whiteSpace=wrap;html=1;fontSize=15;" parent="zKETHxeGn-HKhwvjtsdP-239" vertex="1">
          <mxGeometry x="80" y="820" width="160" height="80" as="geometry" />
        </mxCell>
        <mxCell id="zKETHxeGn-HKhwvjtsdP-276" value="" style="endArrow=classic;html=1;rounded=0;fontSize=15;" parent="zKETHxeGn-HKhwvjtsdP-239" source="zKETHxeGn-HKhwvjtsdP-266" target="zKETHxeGn-HKhwvjtsdP-265" edge="1">
          <mxGeometry width="50" height="50" relative="1" as="geometry">
            <mxPoint x="340" y="580" as="sourcePoint" />
            <mxPoint x="390" y="530" as="targetPoint" />
          </mxGeometry>
        </mxCell>
        <mxCell id="zKETHxeGn-HKhwvjtsdP-280" value="Hapus&lt;div style=&quot;font-size: 15px;&quot;&gt;Akun&lt;/div&gt;" style="endArrow=classic;html=1;rounded=0;fontSize=15;" parent="zKETHxeGn-HKhwvjtsdP-239" source="zKETHxeGn-HKhwvjtsdP-265" target="zKETHxeGn-HKhwvjtsdP-274" edge="1">
          <mxGeometry x="-0.8182" width="50" height="50" relative="1" as="geometry">
            <mxPoint x="130" y="720" as="sourcePoint" />
            <mxPoint x="180" y="670" as="targetPoint" />
            <Array as="points">
              <mxPoint x="40" y="540" />
              <mxPoint x="40" y="860" />
            </Array>
            <mxPoint as="offset" />
          </mxGeometry>
        </mxCell>
        <mxCell id="zKETHxeGn-HKhwvjtsdP-243" value="Start" style="endArrow=classic;html=1;rounded=0;fontSize=15;" parent="1" source="zKETHxeGn-HKhwvjtsdP-238" target="zKETHxeGn-HKhwvjtsdP-240" edge="1">
          <mxGeometry width="50" height="50" relative="1" as="geometry">
            <mxPoint x="4450" y="3450" as="sourcePoint" />
            <mxPoint x="4480" y="3180" as="targetPoint" />
          </mxGeometry>
        </mxCell>
        <mxCell id="zKETHxeGn-HKhwvjtsdP-244" value="Sistem" style="swimlane;whiteSpace=wrap;html=1;fontSize=15;" parent="1" vertex="1">
          <mxGeometry x="4320" y="3100" width="240" height="1060" as="geometry" />
        </mxCell>
        <mxCell id="zKETHxeGn-HKhwvjtsdP-254" value="Menampilkan&lt;div style=&quot;font-size: 15px;&quot;&gt;halaman Akun Admin&lt;/div&gt;" style="rounded=1;whiteSpace=wrap;html=1;fontSize=15;" parent="zKETHxeGn-HKhwvjtsdP-244" vertex="1">
          <mxGeometry x="40" y="180" width="160" height="80" as="geometry" />
        </mxCell>
        <mxCell id="zKETHxeGn-HKhwvjtsdP-267" value="Menampilkan form tambah admin" style="rounded=1;whiteSpace=wrap;html=1;fontSize=15;" parent="zKETHxeGn-HKhwvjtsdP-244" vertex="1">
          <mxGeometry x="40" y="500" width="160" height="80" as="geometry" />
        </mxCell>
        <mxCell id="zKETHxeGn-HKhwvjtsdP-269" value="Menyimpan data" style="rounded=1;whiteSpace=wrap;html=1;fontSize=15;" parent="zKETHxeGn-HKhwvjtsdP-244" vertex="1">
          <mxGeometry x="40" y="660" width="160" height="80" as="geometry" />
        </mxCell>
        <mxCell id="zKETHxeGn-HKhwvjtsdP-270" value="Menampilkan&lt;div style=&quot;font-size: 15px;&quot;&gt;update data&lt;/div&gt;" style="rounded=1;whiteSpace=wrap;html=1;fontSize=15;" parent="zKETHxeGn-HKhwvjtsdP-244" vertex="1">
          <mxGeometry x="40" y="820" width="160" height="80" as="geometry" />
        </mxCell>
        <mxCell id="zKETHxeGn-HKhwvjtsdP-271" value="" style="endArrow=classic;html=1;rounded=0;fontSize=15;" parent="zKETHxeGn-HKhwvjtsdP-244" source="zKETHxeGn-HKhwvjtsdP-269" target="zKETHxeGn-HKhwvjtsdP-270" edge="1">
          <mxGeometry width="50" height="50" relative="1" as="geometry">
            <mxPoint x="-140" y="770" as="sourcePoint" />
            <mxPoint x="-90" y="720" as="targetPoint" />
          </mxGeometry>
        </mxCell>
        <mxCell id="zKETHxeGn-HKhwvjtsdP-282" value="" style="ellipse;html=1;shape=endState;fillColor=#000000;fontSize=15;" parent="zKETHxeGn-HKhwvjtsdP-244" vertex="1">
          <mxGeometry x="100" y="980" width="40" height="40" as="geometry" />
        </mxCell>
        <mxCell id="zKETHxeGn-HKhwvjtsdP-283" value="End" style="endArrow=classic;html=1;rounded=0;fontSize=15;" parent="zKETHxeGn-HKhwvjtsdP-244" source="zKETHxeGn-HKhwvjtsdP-270" target="zKETHxeGn-HKhwvjtsdP-282" edge="1">
          <mxGeometry width="50" height="50" relative="1" as="geometry">
            <mxPoint x="170" y="1090" as="sourcePoint" />
            <mxPoint x="430" y="880" as="targetPoint" />
          </mxGeometry>
        </mxCell>
        <mxCell id="zKETHxeGn-HKhwvjtsdP-259" value="Kelola Akun Admin" style="text;html=1;align=center;verticalAlign=middle;whiteSpace=wrap;rounded=0;fontSize=25;" parent="1" vertex="1">
          <mxGeometry x="4000" y="3040" width="560" height="40" as="geometry" />
        </mxCell>
        <mxCell id="zKETHxeGn-HKhwvjtsdP-260" value="" style="endArrow=classic;html=1;rounded=0;fontSize=15;" parent="1" source="zKETHxeGn-HKhwvjtsdP-240" target="zKETHxeGn-HKhwvjtsdP-254" edge="1">
          <mxGeometry width="50" height="50" relative="1" as="geometry">
            <mxPoint x="4380" y="3380" as="sourcePoint" />
            <mxPoint x="4430" y="3330" as="targetPoint" />
          </mxGeometry>
        </mxCell>
        <mxCell id="zKETHxeGn-HKhwvjtsdP-272" value="" style="endArrow=classic;html=1;rounded=0;fontSize=15;" parent="1" source="zKETHxeGn-HKhwvjtsdP-268" target="zKETHxeGn-HKhwvjtsdP-269" edge="1">
          <mxGeometry width="50" height="50" relative="1" as="geometry">
            <mxPoint x="4180" y="3870" as="sourcePoint" />
            <mxPoint x="4230" y="3820" as="targetPoint" />
          </mxGeometry>
        </mxCell>
        <mxCell id="zKETHxeGn-HKhwvjtsdP-278" value="Tambah&lt;div style=&quot;font-size: 15px;&quot;&gt;Admin&lt;/div&gt;" style="endArrow=classic;html=1;rounded=0;fontSize=15;" parent="1" source="zKETHxeGn-HKhwvjtsdP-265" target="zKETHxeGn-HKhwvjtsdP-267" edge="1">
          <mxGeometry width="50" height="50" relative="1" as="geometry">
            <mxPoint x="4130" y="3670" as="sourcePoint" />
            <mxPoint x="4180" y="3620" as="targetPoint" />
            <mxPoint as="offset" />
          </mxGeometry>
        </mxCell>
        <mxCell id="zKETHxeGn-HKhwvjtsdP-279" value="" style="endArrow=classic;html=1;rounded=0;fontSize=15;" parent="1" source="zKETHxeGn-HKhwvjtsdP-267" target="zKETHxeGn-HKhwvjtsdP-268" edge="1">
          <mxGeometry width="50" height="50" relative="1" as="geometry">
            <mxPoint x="4130" y="3670" as="sourcePoint" />
            <mxPoint x="4180" y="3620" as="targetPoint" />
            <Array as="points">
              <mxPoint x="4440" y="3720" />
              <mxPoint x="4160" y="3720" />
            </Array>
          </mxGeometry>
        </mxCell>
        <mxCell id="zKETHxeGn-HKhwvjtsdP-281" value="" style="endArrow=classic;html=1;rounded=0;fontSize=15;" parent="1" source="zKETHxeGn-HKhwvjtsdP-274" target="zKETHxeGn-HKhwvjtsdP-270" edge="1">
          <mxGeometry width="50" height="50" relative="1" as="geometry">
            <mxPoint x="4130" y="3820" as="sourcePoint" />
            <mxPoint x="4180" y="3770" as="targetPoint" />
          </mxGeometry>
        </mxCell>
        <mxCell id="zKETHxeGn-HKhwvjtsdP-275" value="" style="endArrow=classic;html=1;rounded=0;fontSize=15;" parent="1" source="zKETHxeGn-HKhwvjtsdP-254" target="zKETHxeGn-HKhwvjtsdP-266" edge="1">
          <mxGeometry width="50" height="50" relative="1" as="geometry">
            <mxPoint x="4160" y="3360" as="sourcePoint" />
            <mxPoint x="4390" y="3450" as="targetPoint" />
            <Array as="points">
              <mxPoint x="4440" y="3400" />
              <mxPoint x="4160" y="3400" />
            </Array>
          </mxGeometry>
        </mxCell>
        <mxCell id="y6XtzaPkcWh3qXqfJvdl-58" value="Admin" style="swimlane;whiteSpace=wrap;html=1;fontSize=15;" parent="1" vertex="1">
          <mxGeometry x="1600" y="3100" width="480" height="1540" as="geometry" />
        </mxCell>
        <mxCell id="y6XtzaPkcWh3qXqfJvdl-59" value="Mengakses&amp;nbsp;&lt;span style=&quot;background-color: initial; font-size: 15px;&quot;&gt;halaman&lt;/span&gt;&lt;div style=&quot;font-size: 15px;&quot;&gt;Data Pengguna&lt;/div&gt;" style="rounded=1;whiteSpace=wrap;html=1;fontSize=15;" parent="y6XtzaPkcWh3qXqfJvdl-58" vertex="1">
          <mxGeometry x="40" y="180" width="160" height="80" as="geometry" />
        </mxCell>
        <mxCell id="y6XtzaPkcWh3qXqfJvdl-60" value="Memilih menu" style="rounded=1;whiteSpace=wrap;html=1;fontSize=15;" parent="y6XtzaPkcWh3qXqfJvdl-58" vertex="1">
          <mxGeometry x="40" y="340" width="160" height="80" as="geometry" />
        </mxCell>
        <mxCell id="y6XtzaPkcWh3qXqfJvdl-61" value="" style="ellipse;whiteSpace=wrap;html=1;aspect=fixed;fontSize=15;" parent="y6XtzaPkcWh3qXqfJvdl-58" vertex="1">
          <mxGeometry x="100" y="60" width="40" height="40" as="geometry" />
        </mxCell>
        <mxCell id="y6XtzaPkcWh3qXqfJvdl-62" value="Start" style="endArrow=classic;html=1;rounded=0;fontSize=15;" parent="y6XtzaPkcWh3qXqfJvdl-58" source="y6XtzaPkcWh3qXqfJvdl-61" target="y6XtzaPkcWh3qXqfJvdl-59" edge="1">
          <mxGeometry width="50" height="50" relative="1" as="geometry">
            <mxPoint x="650" y="350" as="sourcePoint" />
            <mxPoint x="680" y="80" as="targetPoint" />
          </mxGeometry>
        </mxCell>
        <mxCell id="y6XtzaPkcWh3qXqfJvdl-63" value="" style="rhombus;whiteSpace=wrap;html=1;fontSize=15;" parent="y6XtzaPkcWh3qXqfJvdl-58" vertex="1">
          <mxGeometry x="80" y="500" width="80" height="80" as="geometry" />
        </mxCell>
        <mxCell id="y6XtzaPkcWh3qXqfJvdl-64" value="" style="endArrow=classic;html=1;rounded=0;fontSize=15;" parent="y6XtzaPkcWh3qXqfJvdl-58" source="y6XtzaPkcWh3qXqfJvdl-60" target="y6XtzaPkcWh3qXqfJvdl-63" edge="1">
          <mxGeometry width="50" height="50" relative="1" as="geometry">
            <mxPoint x="120" y="390" as="sourcePoint" />
            <mxPoint x="170" y="340" as="targetPoint" />
          </mxGeometry>
        </mxCell>
        <mxCell id="y6XtzaPkcWh3qXqfJvdl-87" value="Menekan salah satu tautan pada tabel" style="rounded=1;whiteSpace=wrap;html=1;fontSize=15;" parent="y6XtzaPkcWh3qXqfJvdl-58" vertex="1">
          <mxGeometry x="280" y="500" width="160" height="80" as="geometry" />
        </mxCell>
        <mxCell id="y6XtzaPkcWh3qXqfJvdl-88" value="Melihat&lt;div style=&quot;font-size: 15px;&quot;&gt;detail file&lt;/div&gt;" style="endArrow=classic;html=1;rounded=0;fontSize=15;" parent="y6XtzaPkcWh3qXqfJvdl-58" source="y6XtzaPkcWh3qXqfJvdl-63" target="y6XtzaPkcWh3qXqfJvdl-87" edge="1">
          <mxGeometry width="50" height="50" relative="1" as="geometry">
            <mxPoint x="160" y="540" as="sourcePoint" />
            <mxPoint x="480" y="540" as="targetPoint" />
          </mxGeometry>
        </mxCell>
        <mxCell id="y6XtzaPkcWh3qXqfJvdl-89" value="Memilih&lt;div style=&quot;font-size: 15px;&quot;&gt;tombol aksi&lt;/div&gt;" style="rounded=1;whiteSpace=wrap;html=1;fontSize=15;" parent="y6XtzaPkcWh3qXqfJvdl-58" vertex="1">
          <mxGeometry x="40" y="660" width="160" height="80" as="geometry" />
        </mxCell>
        <mxCell id="y6XtzaPkcWh3qXqfJvdl-86" value="Memverifikasi&lt;div style=&quot;font-size: 15px;&quot;&gt;status&lt;/div&gt;" style="endArrow=classic;html=1;rounded=0;fontSize=15;" parent="y6XtzaPkcWh3qXqfJvdl-58" source="y6XtzaPkcWh3qXqfJvdl-63" target="y6XtzaPkcWh3qXqfJvdl-89" edge="1">
          <mxGeometry width="50" height="50" relative="1" as="geometry">
            <mxPoint x="140" y="530" as="sourcePoint" />
            <mxPoint x="190" y="480" as="targetPoint" />
            <Array as="points" />
          </mxGeometry>
        </mxCell>
        <mxCell id="y6XtzaPkcWh3qXqfJvdl-73" value="" style="rhombus;whiteSpace=wrap;html=1;fontSize=15;" parent="y6XtzaPkcWh3qXqfJvdl-58" vertex="1">
          <mxGeometry x="80" y="820" width="80" height="80" as="geometry" />
        </mxCell>
        <mxCell id="y6XtzaPkcWh3qXqfJvdl-75" value="" style="endArrow=classic;html=1;rounded=0;fontSize=15;" parent="y6XtzaPkcWh3qXqfJvdl-58" source="y6XtzaPkcWh3qXqfJvdl-89" target="y6XtzaPkcWh3qXqfJvdl-73" edge="1">
          <mxGeometry width="50" height="50" relative="1" as="geometry">
            <mxPoint x="600" y="740" as="sourcePoint" />
            <mxPoint x="170" y="790" as="targetPoint" />
          </mxGeometry>
        </mxCell>
        <mxCell id="y6XtzaPkcWh3qXqfJvdl-65" value="Sistem" style="swimlane;whiteSpace=wrap;html=1;fontSize=15;" parent="1" vertex="1">
          <mxGeometry x="2080" y="3100" width="280" height="1540" as="geometry" />
        </mxCell>
        <mxCell id="y6XtzaPkcWh3qXqfJvdl-66" value="Menampilkan&lt;div style=&quot;font-size: 15px;&quot;&gt;halaman Data Pengguna&lt;/div&gt;" style="rounded=1;whiteSpace=wrap;html=1;fontSize=15;" parent="y6XtzaPkcWh3qXqfJvdl-65" vertex="1">
          <mxGeometry x="40" y="180" width="160" height="80" as="geometry" />
        </mxCell>
        <mxCell id="y6XtzaPkcWh3qXqfJvdl-67" value="" style="ellipse;html=1;shape=endState;fillColor=#000000;fontSize=15;" parent="y6XtzaPkcWh3qXqfJvdl-65" vertex="1">
          <mxGeometry x="100" y="1460" width="40" height="40" as="geometry" />
        </mxCell>
        <mxCell id="y6XtzaPkcWh3qXqfJvdl-68" value="End" style="endArrow=classic;html=1;rounded=0;fontSize=15;" parent="y6XtzaPkcWh3qXqfJvdl-65" source="y6XtzaPkcWh3qXqfJvdl-78" target="y6XtzaPkcWh3qXqfJvdl-67" edge="1">
          <mxGeometry width="50" height="50" relative="1" as="geometry">
            <mxPoint x="120" y="1380" as="sourcePoint" />
            <mxPoint x="380" y="1170" as="targetPoint" />
          </mxGeometry>
        </mxCell>
        <mxCell id="y6XtzaPkcWh3qXqfJvdl-69" value="Mengubah status menjadi Verifying" style="rounded=1;whiteSpace=wrap;html=1;fontSize=15;" parent="y6XtzaPkcWh3qXqfJvdl-65" vertex="1">
          <mxGeometry x="40" y="980" width="160" height="80" as="geometry" />
        </mxCell>
        <mxCell id="y6XtzaPkcWh3qXqfJvdl-70" value="Mengubah status menjadi Not Verifying" style="rounded=1;whiteSpace=wrap;html=1;fontSize=15;" parent="y6XtzaPkcWh3qXqfJvdl-65" vertex="1">
          <mxGeometry x="40" y="820" width="160" height="80" as="geometry" />
        </mxCell>
        <mxCell id="y6XtzaPkcWh3qXqfJvdl-71" value="Menampilkan preview detail file&amp;nbsp;&lt;span style=&quot;background-color: initial; font-size: 15px;&quot;&gt;(Foto / CV / Transkrip Nilai)&lt;/span&gt;" style="rounded=1;whiteSpace=wrap;html=1;fontSize=15;" parent="y6XtzaPkcWh3qXqfJvdl-65" vertex="1">
          <mxGeometry x="40" y="500" width="160" height="80" as="geometry" />
        </mxCell>
        <mxCell id="y6XtzaPkcWh3qXqfJvdl-77" value="Menyimpan data" style="rounded=1;whiteSpace=wrap;html=1;fontSize=15;" parent="y6XtzaPkcWh3qXqfJvdl-65" vertex="1">
          <mxGeometry x="40" y="1140" width="160" height="80" as="geometry" />
        </mxCell>
        <mxCell id="y6XtzaPkcWh3qXqfJvdl-78" value="Menampilkan&lt;div style=&quot;font-size: 15px;&quot;&gt;update status&lt;/div&gt;" style="rounded=1;whiteSpace=wrap;html=1;fontSize=15;" parent="y6XtzaPkcWh3qXqfJvdl-65" vertex="1">
          <mxGeometry x="40" y="1300" width="160" height="80" as="geometry" />
        </mxCell>
        <mxCell id="y6XtzaPkcWh3qXqfJvdl-79" value="" style="endArrow=classic;html=1;rounded=0;fontSize=15;" parent="y6XtzaPkcWh3qXqfJvdl-65" source="y6XtzaPkcWh3qXqfJvdl-77" target="y6XtzaPkcWh3qXqfJvdl-78" edge="1">
          <mxGeometry width="50" height="50" relative="1" as="geometry">
            <mxPoint x="120" y="1280" as="sourcePoint" />
            <mxPoint x="170" y="1230" as="targetPoint" />
          </mxGeometry>
        </mxCell>
        <mxCell id="y6XtzaPkcWh3qXqfJvdl-80" value="" style="endArrow=classic;html=1;rounded=0;fontSize=15;" parent="y6XtzaPkcWh3qXqfJvdl-65" source="y6XtzaPkcWh3qXqfJvdl-69" edge="1" target="y6XtzaPkcWh3qXqfJvdl-77">
          <mxGeometry width="50" height="50" relative="1" as="geometry">
            <mxPoint x="130" y="1280" as="sourcePoint" />
            <mxPoint x="130" y="1140" as="targetPoint" />
            <Array as="points" />
          </mxGeometry>
        </mxCell>
        <mxCell id="y6XtzaPkcWh3qXqfJvdl-81" value="" style="endArrow=classic;html=1;rounded=0;startArrow=none;startFill=0;endFill=1;fontSize=15;" parent="y6XtzaPkcWh3qXqfJvdl-65" source="y6XtzaPkcWh3qXqfJvdl-70" edge="1" target="y6XtzaPkcWh3qXqfJvdl-77">
          <mxGeometry width="50" height="50" relative="1" as="geometry">
            <mxPoint x="130" y="1280" as="sourcePoint" />
            <mxPoint x="210" y="1180" as="targetPoint" />
            <Array as="points">
              <mxPoint x="240" y="860" />
              <mxPoint x="240" y="1180" />
            </Array>
          </mxGeometry>
        </mxCell>
        <mxCell id="y6XtzaPkcWh3qXqfJvdl-91" value="" style="endArrow=classic;html=1;rounded=0;fontSize=15;" parent="y6XtzaPkcWh3qXqfJvdl-65" source="y6XtzaPkcWh3qXqfJvdl-71" target="y6XtzaPkcWh3qXqfJvdl-66" edge="1">
          <mxGeometry width="50" height="50" relative="1" as="geometry">
            <mxPoint x="-190" y="470" as="sourcePoint" />
            <mxPoint x="-140" y="420" as="targetPoint" />
            <Array as="points">
              <mxPoint x="240" y="540" />
              <mxPoint x="240" y="220" />
            </Array>
          </mxGeometry>
        </mxCell>
        <mxCell id="y6XtzaPkcWh3qXqfJvdl-82" value="Data Pengguna" style="text;html=1;align=center;verticalAlign=middle;whiteSpace=wrap;rounded=0;fontSize=25;" parent="1" vertex="1">
          <mxGeometry x="1600" y="3040" width="760" height="40" as="geometry" />
        </mxCell>
        <mxCell id="y6XtzaPkcWh3qXqfJvdl-83" value="" style="endArrow=classic;html=1;rounded=0;fontSize=15;" parent="1" source="y6XtzaPkcWh3qXqfJvdl-59" target="y6XtzaPkcWh3qXqfJvdl-66" edge="1">
          <mxGeometry width="50" height="50" relative="1" as="geometry">
            <mxPoint x="2150" y="3380" as="sourcePoint" />
            <mxPoint x="2200" y="3330" as="targetPoint" />
          </mxGeometry>
        </mxCell>
        <mxCell id="y6XtzaPkcWh3qXqfJvdl-84" value="" style="endArrow=classic;html=1;rounded=0;fontSize=15;" parent="1" source="y6XtzaPkcWh3qXqfJvdl-66" target="y6XtzaPkcWh3qXqfJvdl-60" edge="1">
          <mxGeometry width="50" height="50" relative="1" as="geometry">
            <mxPoint x="2060" y="3330" as="sourcePoint" />
            <mxPoint x="2140" y="3330" as="targetPoint" />
            <Array as="points">
              <mxPoint x="2200" y="3400" />
              <mxPoint x="1720" y="3400" />
            </Array>
          </mxGeometry>
        </mxCell>
        <mxCell id="y6XtzaPkcWh3qXqfJvdl-85" value="" style="endArrow=classic;html=1;rounded=0;fontSize=15;" parent="1" source="y6XtzaPkcWh3qXqfJvdl-87" target="y6XtzaPkcWh3qXqfJvdl-71" edge="1">
          <mxGeometry width="50" height="50" relative="1" as="geometry">
            <mxPoint x="1660" y="3580" as="sourcePoint" />
            <mxPoint x="2180" y="3640" as="targetPoint" />
          </mxGeometry>
        </mxCell>
        <mxCell id="y6XtzaPkcWh3qXqfJvdl-74" value="Terima" style="endArrow=classic;html=1;rounded=0;fontSize=15;" parent="1" source="y6XtzaPkcWh3qXqfJvdl-73" target="y6XtzaPkcWh3qXqfJvdl-69" edge="1">
          <mxGeometry x="0.2308" width="50" height="50" relative="1" as="geometry">
            <mxPoint x="1730" y="3940" as="sourcePoint" />
            <mxPoint x="1780" y="3890" as="targetPoint" />
            <Array as="points">
              <mxPoint x="1720" y="4120" />
            </Array>
            <mxPoint as="offset" />
          </mxGeometry>
        </mxCell>
        <mxCell id="y6XtzaPkcWh3qXqfJvdl-76" value="Tolak" style="endArrow=classic;html=1;rounded=0;fontSize=15;" parent="1" source="y6XtzaPkcWh3qXqfJvdl-73" target="y6XtzaPkcWh3qXqfJvdl-70" edge="1">
          <mxGeometry width="50" height="50" relative="1" as="geometry">
            <mxPoint x="2290" y="4160" as="sourcePoint" />
            <mxPoint x="2340" y="4110" as="targetPoint" />
            <Array as="points" />
          </mxGeometry>
        </mxCell>
        <mxCell id="y6XtzaPkcWh3qXqfJvdl-92" value="Admin" style="swimlane;whiteSpace=wrap;html=1;fontSize=15;" parent="1" vertex="1">
          <mxGeometry x="2480" y="3100" width="480" height="1540" as="geometry" />
        </mxCell>
        <mxCell id="y6XtzaPkcWh3qXqfJvdl-93" value="Mengakses&amp;nbsp;&lt;span style=&quot;background-color: initial; font-size: 15px;&quot;&gt;halaman&lt;/span&gt;&lt;div style=&quot;font-size: 15px;&quot;&gt;Data Pelamar&lt;/div&gt;" style="rounded=1;whiteSpace=wrap;html=1;fontSize=15;" parent="y6XtzaPkcWh3qXqfJvdl-92" vertex="1">
          <mxGeometry x="40" y="180" width="160" height="80" as="geometry" />
        </mxCell>
        <mxCell id="y6XtzaPkcWh3qXqfJvdl-94" value="Memilih menu" style="rounded=1;whiteSpace=wrap;html=1;fontSize=15;" parent="y6XtzaPkcWh3qXqfJvdl-92" vertex="1">
          <mxGeometry x="40" y="340" width="160" height="80" as="geometry" />
        </mxCell>
        <mxCell id="y6XtzaPkcWh3qXqfJvdl-95" value="" style="ellipse;whiteSpace=wrap;html=1;aspect=fixed;fontSize=15;" parent="y6XtzaPkcWh3qXqfJvdl-92" vertex="1">
          <mxGeometry x="100" y="60" width="40" height="40" as="geometry" />
        </mxCell>
        <mxCell id="y6XtzaPkcWh3qXqfJvdl-96" value="Start" style="endArrow=classic;html=1;rounded=0;fontSize=15;" parent="y6XtzaPkcWh3qXqfJvdl-92" source="y6XtzaPkcWh3qXqfJvdl-95" target="y6XtzaPkcWh3qXqfJvdl-93" edge="1">
          <mxGeometry width="50" height="50" relative="1" as="geometry">
            <mxPoint x="120" y="100" as="sourcePoint" />
            <mxPoint x="680" y="80" as="targetPoint" />
          </mxGeometry>
        </mxCell>
        <mxCell id="y6XtzaPkcWh3qXqfJvdl-97" value="" style="rhombus;whiteSpace=wrap;html=1;fontSize=15;" parent="y6XtzaPkcWh3qXqfJvdl-92" vertex="1">
          <mxGeometry x="80" y="500" width="80" height="80" as="geometry" />
        </mxCell>
        <mxCell id="y6XtzaPkcWh3qXqfJvdl-98" value="" style="endArrow=classic;html=1;rounded=0;fontSize=15;" parent="y6XtzaPkcWh3qXqfJvdl-92" source="y6XtzaPkcWh3qXqfJvdl-94" target="y6XtzaPkcWh3qXqfJvdl-97" edge="1">
          <mxGeometry width="50" height="50" relative="1" as="geometry">
            <mxPoint x="120" y="390" as="sourcePoint" />
            <mxPoint x="170" y="340" as="targetPoint" />
          </mxGeometry>
        </mxCell>
        <mxCell id="y6XtzaPkcWh3qXqfJvdl-99" value="Menekan salah satu tautan pada tabel" style="rounded=1;whiteSpace=wrap;html=1;fontSize=15;" parent="y6XtzaPkcWh3qXqfJvdl-92" vertex="1">
          <mxGeometry x="280" y="500" width="160" height="80" as="geometry" />
        </mxCell>
        <mxCell id="y6XtzaPkcWh3qXqfJvdl-100" value="Melihat&lt;div style=&quot;font-size: 15px;&quot;&gt;detail file&lt;/div&gt;" style="endArrow=classic;html=1;rounded=0;fontSize=15;" parent="y6XtzaPkcWh3qXqfJvdl-92" source="y6XtzaPkcWh3qXqfJvdl-97" target="y6XtzaPkcWh3qXqfJvdl-99" edge="1">
          <mxGeometry width="50" height="50" relative="1" as="geometry">
            <mxPoint x="160" y="540" as="sourcePoint" />
            <mxPoint x="480" y="540" as="targetPoint" />
            <mxPoint as="offset" />
          </mxGeometry>
        </mxCell>
        <mxCell id="y6XtzaPkcWh3qXqfJvdl-101" value="Memilih&lt;div style=&quot;font-size: 15px;&quot;&gt;tombol aksi&lt;/div&gt;" style="rounded=1;whiteSpace=wrap;html=1;fontSize=15;" parent="y6XtzaPkcWh3qXqfJvdl-92" vertex="1">
          <mxGeometry x="40" y="660" width="160" height="80" as="geometry" />
        </mxCell>
        <mxCell id="y6XtzaPkcWh3qXqfJvdl-102" value="Memverifikasi&lt;div style=&quot;font-size: 15px;&quot;&gt;status&lt;/div&gt;" style="endArrow=classic;html=1;rounded=0;fontSize=15;" parent="y6XtzaPkcWh3qXqfJvdl-92" source="y6XtzaPkcWh3qXqfJvdl-97" target="y6XtzaPkcWh3qXqfJvdl-101" edge="1">
          <mxGeometry width="50" height="50" relative="1" as="geometry">
            <mxPoint x="140" y="530" as="sourcePoint" />
            <mxPoint x="190" y="480" as="targetPoint" />
            <Array as="points" />
            <mxPoint as="offset" />
          </mxGeometry>
        </mxCell>
        <mxCell id="y6XtzaPkcWh3qXqfJvdl-103" value="" style="rhombus;whiteSpace=wrap;html=1;fontSize=15;" parent="y6XtzaPkcWh3qXqfJvdl-92" vertex="1">
          <mxGeometry x="80" y="820" width="80" height="80" as="geometry" />
        </mxCell>
        <mxCell id="y6XtzaPkcWh3qXqfJvdl-104" value="" style="endArrow=classic;html=1;rounded=0;fontSize=15;" parent="y6XtzaPkcWh3qXqfJvdl-92" source="y6XtzaPkcWh3qXqfJvdl-101" target="y6XtzaPkcWh3qXqfJvdl-103" edge="1">
          <mxGeometry width="50" height="50" relative="1" as="geometry">
            <mxPoint x="600" y="740" as="sourcePoint" />
            <mxPoint x="170" y="790" as="targetPoint" />
          </mxGeometry>
        </mxCell>
        <mxCell id="y6XtzaPkcWh3qXqfJvdl-105" value="Sistem" style="swimlane;whiteSpace=wrap;html=1;fontSize=15;" parent="1" vertex="1">
          <mxGeometry x="2960" y="3100" width="280" height="1540" as="geometry" />
        </mxCell>
        <mxCell id="y6XtzaPkcWh3qXqfJvdl-106" value="Menampilkan&lt;div style=&quot;font-size: 15px;&quot;&gt;halaman Data&lt;/div&gt;&lt;div style=&quot;font-size: 15px;&quot;&gt;Pelamar&lt;/div&gt;" style="rounded=1;whiteSpace=wrap;html=1;fontSize=15;" parent="y6XtzaPkcWh3qXqfJvdl-105" vertex="1">
          <mxGeometry x="40" y="180" width="160" height="80" as="geometry" />
        </mxCell>
        <mxCell id="y6XtzaPkcWh3qXqfJvdl-107" value="" style="ellipse;html=1;shape=endState;fillColor=#000000;fontSize=15;" parent="y6XtzaPkcWh3qXqfJvdl-105" vertex="1">
          <mxGeometry x="100" y="1460" width="40" height="40" as="geometry" />
        </mxCell>
        <mxCell id="y6XtzaPkcWh3qXqfJvdl-108" value="End" style="endArrow=classic;html=1;rounded=0;fontSize=15;" parent="y6XtzaPkcWh3qXqfJvdl-105" source="y6XtzaPkcWh3qXqfJvdl-113" target="y6XtzaPkcWh3qXqfJvdl-107" edge="1">
          <mxGeometry width="50" height="50" relative="1" as="geometry">
            <mxPoint x="110" y="1380" as="sourcePoint" />
            <mxPoint x="370" y="1170" as="targetPoint" />
          </mxGeometry>
        </mxCell>
        <mxCell id="y6XtzaPkcWh3qXqfJvdl-109" value="Mengubah status menjadi Accepted" style="rounded=1;whiteSpace=wrap;html=1;fontSize=15;" parent="y6XtzaPkcWh3qXqfJvdl-105" vertex="1">
          <mxGeometry x="40" y="980" width="160" height="80" as="geometry" />
        </mxCell>
        <mxCell id="y6XtzaPkcWh3qXqfJvdl-110" value="Mengubah status menjadi Not Accepted" style="rounded=1;whiteSpace=wrap;html=1;fontSize=15;" parent="y6XtzaPkcWh3qXqfJvdl-105" vertex="1">
          <mxGeometry x="40" y="820" width="160" height="80" as="geometry" />
        </mxCell>
        <mxCell id="y6XtzaPkcWh3qXqfJvdl-111" value="Menampilkan preview detail file&amp;nbsp;&lt;span style=&quot;background-color: initial; font-size: 15px;&quot;&gt;(Surat Rekomendasi / CV / Portofolio)&lt;/span&gt;" style="rounded=1;whiteSpace=wrap;html=1;fontSize=15;" parent="y6XtzaPkcWh3qXqfJvdl-105" vertex="1">
          <mxGeometry x="40" y="500" width="160" height="80" as="geometry" />
        </mxCell>
        <mxCell id="y6XtzaPkcWh3qXqfJvdl-112" value="Menyimpan data" style="rounded=1;whiteSpace=wrap;html=1;fontSize=15;" parent="y6XtzaPkcWh3qXqfJvdl-105" vertex="1">
          <mxGeometry x="40" y="1140" width="160" height="80" as="geometry" />
        </mxCell>
        <mxCell id="y6XtzaPkcWh3qXqfJvdl-113" value="Menampilkan&lt;div style=&quot;font-size: 15px;&quot;&gt;update status&lt;/div&gt;" style="rounded=1;whiteSpace=wrap;html=1;fontSize=15;" parent="y6XtzaPkcWh3qXqfJvdl-105" vertex="1">
          <mxGeometry x="40" y="1300" width="160" height="80" as="geometry" />
        </mxCell>
        <mxCell id="y6XtzaPkcWh3qXqfJvdl-114" value="" style="endArrow=classic;html=1;rounded=0;fontSize=15;" parent="y6XtzaPkcWh3qXqfJvdl-105" source="y6XtzaPkcWh3qXqfJvdl-112" target="y6XtzaPkcWh3qXqfJvdl-113" edge="1">
          <mxGeometry width="50" height="50" relative="1" as="geometry">
            <mxPoint x="110" y="1280" as="sourcePoint" />
            <mxPoint x="160" y="1230" as="targetPoint" />
          </mxGeometry>
        </mxCell>
        <mxCell id="y6XtzaPkcWh3qXqfJvdl-115" value="" style="endArrow=classic;html=1;rounded=0;fontSize=15;" parent="y6XtzaPkcWh3qXqfJvdl-105" source="y6XtzaPkcWh3qXqfJvdl-109" edge="1">
          <mxGeometry width="50" height="50" relative="1" as="geometry">
            <mxPoint x="120" y="1280" as="sourcePoint" />
            <mxPoint x="120" y="1140" as="targetPoint" />
            <Array as="points">
              <mxPoint x="120" y="1100" />
            </Array>
          </mxGeometry>
        </mxCell>
        <mxCell id="y6XtzaPkcWh3qXqfJvdl-116" value="" style="endArrow=classic;html=1;rounded=0;startArrow=none;startFill=0;endFill=1;fontSize=15;" parent="y6XtzaPkcWh3qXqfJvdl-105" source="y6XtzaPkcWh3qXqfJvdl-110" edge="1" target="y6XtzaPkcWh3qXqfJvdl-112">
          <mxGeometry width="50" height="50" relative="1" as="geometry">
            <mxPoint x="120" y="1280" as="sourcePoint" />
            <mxPoint x="200" y="1180" as="targetPoint" />
            <Array as="points">
              <mxPoint x="240" y="860" />
              <mxPoint x="240" y="1180" />
            </Array>
          </mxGeometry>
        </mxCell>
        <mxCell id="y6XtzaPkcWh3qXqfJvdl-117" value="" style="endArrow=classic;html=1;rounded=0;fontSize=15;" parent="y6XtzaPkcWh3qXqfJvdl-105" source="y6XtzaPkcWh3qXqfJvdl-111" target="y6XtzaPkcWh3qXqfJvdl-106" edge="1">
          <mxGeometry width="50" height="50" relative="1" as="geometry">
            <mxPoint x="-200" y="470" as="sourcePoint" />
            <mxPoint x="-150" y="420" as="targetPoint" />
            <Array as="points">
              <mxPoint x="240" y="540" />
              <mxPoint x="240" y="220" />
            </Array>
          </mxGeometry>
        </mxCell>
        <mxCell id="y6XtzaPkcWh3qXqfJvdl-118" value="Data Pelamar" style="text;html=1;align=center;verticalAlign=middle;whiteSpace=wrap;rounded=0;fontSize=25;" parent="1" vertex="1">
          <mxGeometry x="2480" y="3040" width="760" height="40" as="geometry" />
        </mxCell>
        <mxCell id="y6XtzaPkcWh3qXqfJvdl-119" value="" style="endArrow=classic;html=1;rounded=0;fontSize=15;" parent="1" source="y6XtzaPkcWh3qXqfJvdl-93" target="y6XtzaPkcWh3qXqfJvdl-106" edge="1">
          <mxGeometry width="50" height="50" relative="1" as="geometry">
            <mxPoint x="3020" y="3380" as="sourcePoint" />
            <mxPoint x="3070" y="3330" as="targetPoint" />
          </mxGeometry>
        </mxCell>
        <mxCell id="y6XtzaPkcWh3qXqfJvdl-120" value="" style="endArrow=classic;html=1;rounded=0;fontSize=15;" parent="1" source="y6XtzaPkcWh3qXqfJvdl-106" target="y6XtzaPkcWh3qXqfJvdl-94" edge="1">
          <mxGeometry width="50" height="50" relative="1" as="geometry">
            <mxPoint x="2930" y="3330" as="sourcePoint" />
            <mxPoint x="3010" y="3330" as="targetPoint" />
            <Array as="points">
              <mxPoint x="3080" y="3400" />
              <mxPoint x="2600" y="3400" />
            </Array>
          </mxGeometry>
        </mxCell>
        <mxCell id="y6XtzaPkcWh3qXqfJvdl-121" value="" style="endArrow=classic;html=1;rounded=0;fontSize=15;" parent="1" source="y6XtzaPkcWh3qXqfJvdl-99" target="y6XtzaPkcWh3qXqfJvdl-111" edge="1">
          <mxGeometry width="50" height="50" relative="1" as="geometry">
            <mxPoint x="2530" y="3580" as="sourcePoint" />
            <mxPoint x="3050" y="3640" as="targetPoint" />
          </mxGeometry>
        </mxCell>
        <mxCell id="y6XtzaPkcWh3qXqfJvdl-122" value="Terima" style="endArrow=classic;html=1;rounded=0;fontSize=15;" parent="1" source="y6XtzaPkcWh3qXqfJvdl-103" target="y6XtzaPkcWh3qXqfJvdl-109" edge="1">
          <mxGeometry x="0.2308" width="50" height="50" relative="1" as="geometry">
            <mxPoint x="2600" y="3940" as="sourcePoint" />
            <mxPoint x="2650" y="3890" as="targetPoint" />
            <Array as="points">
              <mxPoint x="2600" y="4120" />
            </Array>
            <mxPoint as="offset" />
          </mxGeometry>
        </mxCell>
        <mxCell id="y6XtzaPkcWh3qXqfJvdl-123" value="Tolak" style="endArrow=classic;html=1;rounded=0;fontSize=15;" parent="1" source="y6XtzaPkcWh3qXqfJvdl-103" target="y6XtzaPkcWh3qXqfJvdl-110" edge="1">
          <mxGeometry width="50" height="50" relative="1" as="geometry">
            <mxPoint x="3160" y="4160" as="sourcePoint" />
            <mxPoint x="3210" y="4110" as="targetPoint" />
            <Array as="points" />
            <mxPoint as="offset" />
          </mxGeometry>
        </mxCell>
        <mxCell id="nKFIUN-Ugbit4O_SoITC-9" value="" style="endArrow=classic;html=1;rounded=0;fontSize=15;" edge="1" parent="1" source="nKFIUN-Ugbit4O_SoITC-8" target="iLO7dBaF0v2jmyG7skQd-3">
          <mxGeometry width="50" height="50" relative="1" as="geometry">
            <mxPoint x="440" y="1050" as="sourcePoint" />
            <mxPoint x="490" y="1000" as="targetPoint" />
          </mxGeometry>
        </mxCell>
        <mxCell id="38LU1QrOyRtCWwfQMIvd-27" value="" style="endArrow=classic;html=1;rounded=0;fontSize=15;" parent="1" source="XRfkj-H-BZ0eDyvUn66A-1" target="nKFIUN-Ugbit4O_SoITC-8" edge="1">
          <mxGeometry width="50" height="50" relative="1" as="geometry">
            <mxPoint x="360" y="400" as="sourcePoint" />
            <mxPoint x="440" y="400" as="targetPoint" />
          </mxGeometry>
        </mxCell>
        <mxCell id="p4RgYQNxMF_yrCPV_QGR-1" value="" style="ellipse;whiteSpace=wrap;html=1;aspect=fixed;fontSize=15;" vertex="1" parent="1">
          <mxGeometry x="1500" y="200" width="40" height="40" as="geometry" />
        </mxCell>
        <mxCell id="p4RgYQNxMF_yrCPV_QGR-2" value="Pengguna" style="swimlane;whiteSpace=wrap;html=1;fontSize=15;" vertex="1" parent="1">
          <mxGeometry x="1360" y="140" width="280" height="2500" as="geometry" />
        </mxCell>
        <mxCell id="p4RgYQNxMF_yrCPV_QGR-3" value="Mengakses halaman Daftar Magang" style="rounded=1;whiteSpace=wrap;html=1;fontSize=15;" vertex="1" parent="p4RgYQNxMF_yrCPV_QGR-2">
          <mxGeometry x="80" y="180" width="160" height="80" as="geometry" />
        </mxCell>
        <mxCell id="p4RgYQNxMF_yrCPV_QGR-4" value="Menekan tombol&lt;div style=&quot;font-size: 15px;&quot;&gt;Daftar Magang&lt;/div&gt;" style="rounded=1;whiteSpace=wrap;html=1;fontSize=15;" vertex="1" parent="p4RgYQNxMF_yrCPV_QGR-2">
          <mxGeometry x="80" y="340" width="160" height="80" as="geometry" />
        </mxCell>
        <mxCell id="p4RgYQNxMF_yrCPV_QGR-5" value="Menekan tombol Selanjutnya" style="rounded=1;whiteSpace=wrap;html=1;fontSize=15;" vertex="1" parent="p4RgYQNxMF_yrCPV_QGR-2">
          <mxGeometry x="80" y="820" width="160" height="80" as="geometry" />
        </mxCell>
        <mxCell id="p4RgYQNxMF_yrCPV_QGR-6" value="&lt;div style=&quot;font-size: 15px;&quot;&gt;Memasukkan file&lt;/div&gt;&lt;div style=&quot;font-size: 15px;&quot;&gt;yang diperlukan&lt;/div&gt;" style="rounded=1;whiteSpace=wrap;html=1;fontSize=15;" vertex="1" parent="p4RgYQNxMF_yrCPV_QGR-2">
          <mxGeometry x="80" y="1140" width="160" height="80" as="geometry" />
        </mxCell>
        <mxCell id="p4RgYQNxMF_yrCPV_QGR-7" value="Start" style="endArrow=classic;html=1;rounded=0;fontSize=15;" edge="1" parent="1" source="p4RgYQNxMF_yrCPV_QGR-1" target="p4RgYQNxMF_yrCPV_QGR-3">
          <mxGeometry width="50" height="50" relative="1" as="geometry">
            <mxPoint x="1770" y="810" as="sourcePoint" />
            <mxPoint x="1800" y="540" as="targetPoint" />
          </mxGeometry>
        </mxCell>
        <mxCell id="p4RgYQNxMF_yrCPV_QGR-8" value="Sistem" style="swimlane;whiteSpace=wrap;html=1;fontSize=15;" vertex="1" parent="1">
          <mxGeometry x="1640" y="140" width="400" height="2500" as="geometry" />
        </mxCell>
        <mxCell id="p4RgYQNxMF_yrCPV_QGR-9" value="Menampilkan halaman Form Pendaftaran 1" style="rounded=1;whiteSpace=wrap;html=1;fontSize=15;" vertex="1" parent="p4RgYQNxMF_yrCPV_QGR-8">
          <mxGeometry x="40" y="660" width="160" height="80" as="geometry" />
        </mxCell>
        <mxCell id="p4RgYQNxMF_yrCPV_QGR-10" value="Memilih opsi Ketersediaan Penempatan" style="rounded=1;whiteSpace=wrap;html=1;fontSize=15;" vertex="1" parent="p4RgYQNxMF_yrCPV_QGR-8">
          <mxGeometry x="-200" y="660" width="160" height="80" as="geometry" />
        </mxCell>
        <mxCell id="p4RgYQNxMF_yrCPV_QGR-11" value="Menampilkan halaman Daftar Magang" style="rounded=1;whiteSpace=wrap;html=1;fontSize=15;" vertex="1" parent="p4RgYQNxMF_yrCPV_QGR-8">
          <mxGeometry x="40" y="180" width="160" height="80" as="geometry" />
        </mxCell>
        <mxCell id="p4RgYQNxMF_yrCPV_QGR-12" value="Menampilkan halaman Form Pendaftaran 2" style="rounded=1;whiteSpace=wrap;html=1;fontSize=15;" vertex="1" parent="p4RgYQNxMF_yrCPV_QGR-8">
          <mxGeometry x="40" y="1140" width="160" height="80" as="geometry" />
        </mxCell>
        <mxCell id="p4RgYQNxMF_yrCPV_QGR-13" value="Menyimpan data" style="rounded=1;whiteSpace=wrap;html=1;fontSize=15;" vertex="1" parent="p4RgYQNxMF_yrCPV_QGR-8">
          <mxGeometry x="40" y="2100" width="160" height="80" as="geometry" />
        </mxCell>
        <mxCell id="p4RgYQNxMF_yrCPV_QGR-14" value="" style="rhombus;whiteSpace=wrap;html=1;fontSize=15;" vertex="1" parent="p4RgYQNxMF_yrCPV_QGR-8">
          <mxGeometry x="80" y="980" width="80" height="80" as="geometry" />
        </mxCell>
        <mxCell id="p4RgYQNxMF_yrCPV_QGR-15" value="Validasi input" style="rounded=1;whiteSpace=wrap;html=1;fontSize=15;" vertex="1" parent="p4RgYQNxMF_yrCPV_QGR-8">
          <mxGeometry x="40" y="820" width="160" height="80" as="geometry" />
        </mxCell>
        <mxCell id="p4RgYQNxMF_yrCPV_QGR-16" value="" style="endArrow=classic;html=1;rounded=0;fontSize=15;" edge="1" parent="p4RgYQNxMF_yrCPV_QGR-8" source="p4RgYQNxMF_yrCPV_QGR-15" target="p4RgYQNxMF_yrCPV_QGR-14">
          <mxGeometry width="50" height="50" relative="1" as="geometry">
            <mxPoint x="-120" y="1080" as="sourcePoint" />
            <mxPoint x="-70" y="1030" as="targetPoint" />
          </mxGeometry>
        </mxCell>
        <mxCell id="p4RgYQNxMF_yrCPV_QGR-17" value="Belum Dipilih" style="endArrow=classic;html=1;rounded=0;fontSize=15;" edge="1" parent="p4RgYQNxMF_yrCPV_QGR-8" source="p4RgYQNxMF_yrCPV_QGR-14" target="p4RgYQNxMF_yrCPV_QGR-10">
          <mxGeometry x="-0.5294" width="50" height="50" relative="1" as="geometry">
            <mxPoint x="-120" y="980" as="sourcePoint" />
            <mxPoint x="-70" y="930" as="targetPoint" />
            <Array as="points">
              <mxPoint x="-240" y="1020" />
              <mxPoint x="-240" y="700" />
            </Array>
            <mxPoint as="offset" />
          </mxGeometry>
        </mxCell>
        <mxCell id="p4RgYQNxMF_yrCPV_QGR-18" value="Sudah Dipilih" style="endArrow=classic;html=1;rounded=0;fontSize=15;" edge="1" parent="p4RgYQNxMF_yrCPV_QGR-8" source="p4RgYQNxMF_yrCPV_QGR-14">
          <mxGeometry width="50" height="50" relative="1" as="geometry">
            <mxPoint x="10" y="1110" as="sourcePoint" />
            <mxPoint x="120" y="1140" as="targetPoint" />
            <mxPoint as="offset" />
          </mxGeometry>
        </mxCell>
        <mxCell id="p4RgYQNxMF_yrCPV_QGR-19" value="Validasi data" style="rounded=1;whiteSpace=wrap;html=1;fontSize=15;" vertex="1" parent="p4RgYQNxMF_yrCPV_QGR-8">
          <mxGeometry x="40" y="1300" width="160" height="80" as="geometry" />
        </mxCell>
        <mxCell id="p4RgYQNxMF_yrCPV_QGR-20" value="Melakukan Login" style="rounded=1;whiteSpace=wrap;html=1;fontSize=15;" vertex="1" parent="p4RgYQNxMF_yrCPV_QGR-8">
          <mxGeometry x="-200" y="500" width="160" height="80" as="geometry" />
        </mxCell>
        <mxCell id="p4RgYQNxMF_yrCPV_QGR-21" value="Autentikasi&lt;div style=&quot;font-size: 15px;&quot;&gt;pengguna&lt;/div&gt;" style="rounded=1;whiteSpace=wrap;html=1;fontSize=15;" vertex="1" parent="p4RgYQNxMF_yrCPV_QGR-8">
          <mxGeometry x="40" y="340" width="160" height="80" as="geometry" />
        </mxCell>
        <mxCell id="p4RgYQNxMF_yrCPV_QGR-22" value="" style="rhombus;whiteSpace=wrap;html=1;fontSize=15;" vertex="1" parent="p4RgYQNxMF_yrCPV_QGR-8">
          <mxGeometry x="275" y="500" width="80" height="80" as="geometry" />
        </mxCell>
        <mxCell id="p4RgYQNxMF_yrCPV_QGR-23" value="Menampilkan&lt;div style=&quot;font-size: 15px;&quot;&gt;halaman Login&lt;/div&gt;" style="rounded=1;whiteSpace=wrap;html=1;fontSize=15;" vertex="1" parent="p4RgYQNxMF_yrCPV_QGR-8">
          <mxGeometry x="40" y="500" width="160" height="80" as="geometry" />
        </mxCell>
        <mxCell id="p4RgYQNxMF_yrCPV_QGR-24" value="Sudah&lt;div style=&quot;font-size: 15px;&quot;&gt;Login&lt;/div&gt;" style="endArrow=classic;html=1;rounded=0;fontSize=15;" edge="1" parent="p4RgYQNxMF_yrCPV_QGR-8" source="p4RgYQNxMF_yrCPV_QGR-22">
          <mxGeometry x="-0.4894" width="50" height="50" relative="1" as="geometry">
            <mxPoint x="30" y="570" as="sourcePoint" />
            <mxPoint x="200" y="700" as="targetPoint" />
            <Array as="points">
              <mxPoint x="315" y="700" />
            </Array>
            <mxPoint as="offset" />
          </mxGeometry>
        </mxCell>
        <mxCell id="p4RgYQNxMF_yrCPV_QGR-25" value="Belum&lt;div style=&quot;font-size: 15px;&quot;&gt;Login&lt;/div&gt;" style="endArrow=none;html=1;rounded=0;endFill=0;startArrow=classic;startFill=1;fontSize=15;" edge="1" parent="p4RgYQNxMF_yrCPV_QGR-8" source="p4RgYQNxMF_yrCPV_QGR-23" target="p4RgYQNxMF_yrCPV_QGR-22">
          <mxGeometry width="50" height="50" relative="1" as="geometry">
            <mxPoint x="30" y="570" as="sourcePoint" />
            <mxPoint x="80" y="520" as="targetPoint" />
            <Array as="points" />
          </mxGeometry>
        </mxCell>
        <mxCell id="p4RgYQNxMF_yrCPV_QGR-26" value="" style="endArrow=classic;html=1;rounded=0;fontSize=15;" edge="1" parent="p4RgYQNxMF_yrCPV_QGR-8" source="p4RgYQNxMF_yrCPV_QGR-21" target="p4RgYQNxMF_yrCPV_QGR-22">
          <mxGeometry width="50" height="50" relative="1" as="geometry">
            <mxPoint x="30" y="500" as="sourcePoint" />
            <mxPoint x="80" y="450" as="targetPoint" />
            <Array as="points">
              <mxPoint x="315" y="380" />
            </Array>
          </mxGeometry>
        </mxCell>
        <mxCell id="p4RgYQNxMF_yrCPV_QGR-27" value="" style="endArrow=classic;html=1;rounded=0;fontSize=15;" edge="1" parent="p4RgYQNxMF_yrCPV_QGR-8" source="p4RgYQNxMF_yrCPV_QGR-23" target="p4RgYQNxMF_yrCPV_QGR-20">
          <mxGeometry width="50" height="50" relative="1" as="geometry">
            <mxPoint x="30" y="590" as="sourcePoint" />
            <mxPoint x="80" y="540" as="targetPoint" />
          </mxGeometry>
        </mxCell>
        <mxCell id="p4RgYQNxMF_yrCPV_QGR-28" value="" style="endArrow=classic;html=1;rounded=0;fontSize=15;" edge="1" parent="p4RgYQNxMF_yrCPV_QGR-8" source="p4RgYQNxMF_yrCPV_QGR-20">
          <mxGeometry width="50" height="50" relative="1" as="geometry">
            <mxPoint x="30" y="590" as="sourcePoint" />
            <mxPoint x="120" y="660" as="targetPoint" />
            <Array as="points">
              <mxPoint x="-120" y="620" />
              <mxPoint x="120" y="620" />
            </Array>
          </mxGeometry>
        </mxCell>
        <mxCell id="p4RgYQNxMF_yrCPV_QGR-29" value="" style="endArrow=classic;html=1;rounded=0;fontSize=15;" edge="1" parent="p4RgYQNxMF_yrCPV_QGR-8" source="p4RgYQNxMF_yrCPV_QGR-9" target="p4RgYQNxMF_yrCPV_QGR-10">
          <mxGeometry width="50" height="50" relative="1" as="geometry">
            <mxPoint x="-100" y="750" as="sourcePoint" />
            <mxPoint x="-50" y="700" as="targetPoint" />
          </mxGeometry>
        </mxCell>
        <mxCell id="p4RgYQNxMF_yrCPV_QGR-30" value="Pendaftaran Magang" style="text;html=1;align=center;verticalAlign=middle;whiteSpace=wrap;rounded=0;fontSize=25;" vertex="1" parent="1">
          <mxGeometry x="1360" y="80" width="680" height="40" as="geometry" />
        </mxCell>
        <mxCell id="p4RgYQNxMF_yrCPV_QGR-31" value="" style="endArrow=classic;html=1;rounded=0;fontSize=15;" edge="1" parent="1" source="p4RgYQNxMF_yrCPV_QGR-3" target="p4RgYQNxMF_yrCPV_QGR-11">
          <mxGeometry width="50" height="50" relative="1" as="geometry">
            <mxPoint x="1700" y="740" as="sourcePoint" />
            <mxPoint x="1750" y="690" as="targetPoint" />
          </mxGeometry>
        </mxCell>
        <mxCell id="p4RgYQNxMF_yrCPV_QGR-32" value="" style="endArrow=classic;html=1;rounded=0;fontSize=15;" edge="1" parent="1" source="p4RgYQNxMF_yrCPV_QGR-11" target="p4RgYQNxMF_yrCPV_QGR-4">
          <mxGeometry width="50" height="50" relative="1" as="geometry">
            <mxPoint x="1610" y="690" as="sourcePoint" />
            <mxPoint x="1690" y="690" as="targetPoint" />
            <Array as="points">
              <mxPoint x="1760" y="440" />
              <mxPoint x="1520" y="440" />
            </Array>
          </mxGeometry>
        </mxCell>
        <mxCell id="p4RgYQNxMF_yrCPV_QGR-33" value="" style="endArrow=classic;html=1;rounded=0;fontSize=15;" edge="1" parent="1" source="p4RgYQNxMF_yrCPV_QGR-4" target="p4RgYQNxMF_yrCPV_QGR-21">
          <mxGeometry width="50" height="50" relative="1" as="geometry">
            <mxPoint x="1620" y="700" as="sourcePoint" />
            <mxPoint x="1700" y="700" as="targetPoint" />
          </mxGeometry>
        </mxCell>
        <mxCell id="p4RgYQNxMF_yrCPV_QGR-34" value="End" style="endArrow=classic;html=1;rounded=0;fontSize=15;" edge="1" parent="1" source="p4RgYQNxMF_yrCPV_QGR-40" target="p4RgYQNxMF_yrCPV_QGR-35">
          <mxGeometry width="50" height="50" relative="1" as="geometry">
            <mxPoint x="1240" y="1870" as="sourcePoint" />
            <mxPoint x="1240" y="2000" as="targetPoint" />
          </mxGeometry>
        </mxCell>
        <mxCell id="p4RgYQNxMF_yrCPV_QGR-35" value="" style="ellipse;html=1;shape=endState;fillColor=#000000;fontSize=15;" vertex="1" parent="1">
          <mxGeometry x="1740" y="2560" width="40" height="40" as="geometry" />
        </mxCell>
        <mxCell id="p4RgYQNxMF_yrCPV_QGR-36" value="" style="endArrow=classic;html=1;rounded=0;fontSize=15;" edge="1" parent="1" source="p4RgYQNxMF_yrCPV_QGR-10" target="p4RgYQNxMF_yrCPV_QGR-5">
          <mxGeometry width="50" height="50" relative="1" as="geometry">
            <mxPoint x="1640" y="560" as="sourcePoint" />
            <mxPoint x="1680" y="840" as="targetPoint" />
          </mxGeometry>
        </mxCell>
        <mxCell id="p4RgYQNxMF_yrCPV_QGR-37" value="" style="endArrow=classic;html=1;rounded=0;fontSize=15;" edge="1" parent="1" source="p4RgYQNxMF_yrCPV_QGR-5" target="p4RgYQNxMF_yrCPV_QGR-15">
          <mxGeometry width="50" height="50" relative="1" as="geometry">
            <mxPoint x="1530" y="890" as="sourcePoint" />
            <mxPoint x="1530" y="970" as="targetPoint" />
          </mxGeometry>
        </mxCell>
        <mxCell id="p4RgYQNxMF_yrCPV_QGR-38" value="" style="endArrow=classic;html=1;rounded=0;fontSize=15;" edge="1" parent="1" source="p4RgYQNxMF_yrCPV_QGR-47" target="p4RgYQNxMF_yrCPV_QGR-48">
          <mxGeometry width="50" height="50" relative="1" as="geometry">
            <mxPoint x="950" y="1830" as="sourcePoint" />
            <mxPoint x="1000" y="1780" as="targetPoint" />
          </mxGeometry>
        </mxCell>
        <mxCell id="p4RgYQNxMF_yrCPV_QGR-39" value="" style="endArrow=classic;html=1;rounded=0;fontSize=15;" edge="1" parent="1" source="p4RgYQNxMF_yrCPV_QGR-12" target="p4RgYQNxMF_yrCPV_QGR-6">
          <mxGeometry width="50" height="50" relative="1" as="geometry">
            <mxPoint x="1470" y="1340" as="sourcePoint" />
            <mxPoint x="1520" y="1290" as="targetPoint" />
          </mxGeometry>
        </mxCell>
        <mxCell id="p4RgYQNxMF_yrCPV_QGR-40" value="Menampilkan&lt;div style=&quot;font-size: 15px;&quot;&gt;halaman Beranda&lt;/div&gt;" style="rounded=1;whiteSpace=wrap;html=1;fontSize=15;" vertex="1" parent="1">
          <mxGeometry x="1680" y="2400" width="160" height="80" as="geometry" />
        </mxCell>
        <mxCell id="p4RgYQNxMF_yrCPV_QGR-41" value="" style="endArrow=classic;html=1;rounded=0;fontSize=15;" edge="1" parent="1" source="p4RgYQNxMF_yrCPV_QGR-13" target="p4RgYQNxMF_yrCPV_QGR-40">
          <mxGeometry width="50" height="50" relative="1" as="geometry">
            <mxPoint x="950" y="1740" as="sourcePoint" />
            <mxPoint x="1000" y="1690" as="targetPoint" />
          </mxGeometry>
        </mxCell>
        <mxCell id="p4RgYQNxMF_yrCPV_QGR-42" value="" style="endArrow=classic;html=1;rounded=0;fontSize=15;" edge="1" parent="1" source="p4RgYQNxMF_yrCPV_QGR-6" target="p4RgYQNxMF_yrCPV_QGR-19">
          <mxGeometry width="50" height="50" relative="1" as="geometry">
            <mxPoint x="1650" y="1500" as="sourcePoint" />
            <mxPoint x="1700" y="1450" as="targetPoint" />
            <Array as="points">
              <mxPoint x="1520" y="1480" />
            </Array>
          </mxGeometry>
        </mxCell>
        <mxCell id="p4RgYQNxMF_yrCPV_QGR-43" value="" style="rhombus;whiteSpace=wrap;html=1;fontSize=15;" vertex="1" parent="1">
          <mxGeometry x="1720" y="1600" width="80" height="80" as="geometry" />
        </mxCell>
        <mxCell id="p4RgYQNxMF_yrCPV_QGR-44" value="" style="endArrow=classic;html=1;rounded=0;fontSize=15;" edge="1" parent="1" source="p4RgYQNxMF_yrCPV_QGR-19" target="p4RgYQNxMF_yrCPV_QGR-43">
          <mxGeometry width="50" height="50" relative="1" as="geometry">
            <mxPoint x="1650" y="1700" as="sourcePoint" />
            <mxPoint x="1700" y="1650" as="targetPoint" />
          </mxGeometry>
        </mxCell>
        <mxCell id="p4RgYQNxMF_yrCPV_QGR-45" value="Tidak Valid" style="endArrow=classic;html=1;rounded=0;fontSize=15;" edge="1" parent="1" source="p4RgYQNxMF_yrCPV_QGR-43" target="p4RgYQNxMF_yrCPV_QGR-6">
          <mxGeometry x="-0.5294" width="50" height="50" relative="1" as="geometry">
            <mxPoint x="1650" y="1680" as="sourcePoint" />
            <mxPoint x="1700" y="1630" as="targetPoint" />
            <Array as="points">
              <mxPoint x="1400" y="1640" />
              <mxPoint x="1400" y="1320" />
            </Array>
            <mxPoint as="offset" />
          </mxGeometry>
        </mxCell>
        <mxCell id="p4RgYQNxMF_yrCPV_QGR-46" value="Valid" style="endArrow=classic;html=1;rounded=0;fontSize=15;" edge="1" parent="1" source="p4RgYQNxMF_yrCPV_QGR-43" target="p4RgYQNxMF_yrCPV_QGR-47">
          <mxGeometry x="-0.5714" width="50" height="50" relative="1" as="geometry">
            <mxPoint x="1640" y="1820" as="sourcePoint" />
            <mxPoint x="1760" y="1920" as="targetPoint" />
            <Array as="points">
              <mxPoint x="1760" y="1800" />
            </Array>
            <mxPoint as="offset" />
          </mxGeometry>
        </mxCell>
        <mxCell id="p4RgYQNxMF_yrCPV_QGR-47" value="Menyetujui syarat&lt;div style=&quot;font-size: 15px;&quot;&gt;dan ketentuan&lt;/div&gt;" style="rounded=1;whiteSpace=wrap;html=1;fontSize=15;" vertex="1" parent="1">
          <mxGeometry x="1440" y="1760" width="160" height="80" as="geometry" />
        </mxCell>
        <mxCell id="p4RgYQNxMF_yrCPV_QGR-48" value="Menekan tombol&lt;br style=&quot;font-size: 15px;&quot;&gt;Kirim" style="rounded=1;whiteSpace=wrap;html=1;fontSize=15;" vertex="1" parent="1">
          <mxGeometry x="1440" y="1920" width="160" height="80" as="geometry" />
        </mxCell>
        <mxCell id="p4RgYQNxMF_yrCPV_QGR-49" value="" style="rhombus;whiteSpace=wrap;html=1;fontSize=15;" vertex="1" parent="1">
          <mxGeometry x="1720" y="2080" width="80" height="80" as="geometry" />
        </mxCell>
        <mxCell id="p4RgYQNxMF_yrCPV_QGR-50" value="" style="endArrow=classic;html=1;rounded=0;fontSize=15;" edge="1" parent="1" source="p4RgYQNxMF_yrCPV_QGR-48" target="p4RgYQNxMF_yrCPV_QGR-53">
          <mxGeometry width="50" height="50" relative="1" as="geometry">
            <mxPoint x="1520" y="2250" as="sourcePoint" />
            <mxPoint x="1570" y="2200" as="targetPoint" />
          </mxGeometry>
        </mxCell>
        <mxCell id="p4RgYQNxMF_yrCPV_QGR-51" value="Sudah dicentang" style="endArrow=classic;html=1;rounded=0;fontSize=15;" edge="1" parent="1" source="p4RgYQNxMF_yrCPV_QGR-49" target="p4RgYQNxMF_yrCPV_QGR-13">
          <mxGeometry width="50" height="50" relative="1" as="geometry">
            <mxPoint x="1520" y="2250" as="sourcePoint" />
            <mxPoint x="1570" y="2200" as="targetPoint" />
            <mxPoint as="offset" />
          </mxGeometry>
        </mxCell>
        <mxCell id="p4RgYQNxMF_yrCPV_QGR-52" value="Belum dicentang" style="endArrow=classic;html=1;rounded=0;fontSize=15;" edge="1" parent="1" source="p4RgYQNxMF_yrCPV_QGR-49" target="p4RgYQNxMF_yrCPV_QGR-47">
          <mxGeometry x="-0.5294" width="50" height="50" relative="1" as="geometry">
            <mxPoint x="1520" y="2250" as="sourcePoint" />
            <mxPoint x="1570" y="2200" as="targetPoint" />
            <Array as="points">
              <mxPoint x="1400" y="2120" />
              <mxPoint x="1400" y="1800" />
            </Array>
            <mxPoint as="offset" />
          </mxGeometry>
        </mxCell>
        <mxCell id="p4RgYQNxMF_yrCPV_QGR-53" value="Validasi checklist" style="rounded=1;whiteSpace=wrap;html=1;fontSize=15;" vertex="1" parent="1">
          <mxGeometry x="1680" y="1920" width="160" height="80" as="geometry" />
        </mxCell>
        <mxCell id="p4RgYQNxMF_yrCPV_QGR-54" value="" style="endArrow=classic;html=1;rounded=0;fontSize=15;" edge="1" parent="1" source="p4RgYQNxMF_yrCPV_QGR-53" target="p4RgYQNxMF_yrCPV_QGR-49">
          <mxGeometry width="50" height="50" relative="1" as="geometry">
            <mxPoint x="1700" y="2090" as="sourcePoint" />
            <mxPoint x="1750" y="2040" as="targetPoint" />
          </mxGeometry>
        </mxCell>
        <mxCell id="p4RgYQNxMF_yrCPV_QGR-112" value="" style="ellipse;whiteSpace=wrap;html=1;aspect=fixed;fontSize=15;" vertex="1" parent="1">
          <mxGeometry x="860" y="200" width="40" height="40" as="geometry" />
        </mxCell>
        <mxCell id="p4RgYQNxMF_yrCPV_QGR-113" value="Pengguna" style="swimlane;whiteSpace=wrap;html=1;fontSize=15;" vertex="1" parent="1">
          <mxGeometry x="720" y="140" width="280" height="1540" as="geometry" />
        </mxCell>
        <mxCell id="p4RgYQNxMF_yrCPV_QGR-114" value="Mengakses&lt;div style=&quot;font-size: 15px;&quot;&gt;halaman Beranda&lt;/div&gt;" style="rounded=1;whiteSpace=wrap;html=1;fontSize=15;" vertex="1" parent="p4RgYQNxMF_yrCPV_QGR-113">
          <mxGeometry x="80" y="180" width="160" height="80" as="geometry" />
        </mxCell>
        <mxCell id="p4RgYQNxMF_yrCPV_QGR-115" value="Menekan tombol Masuk" style="rounded=1;whiteSpace=wrap;html=1;fontSize=15;" vertex="1" parent="p4RgYQNxMF_yrCPV_QGR-113">
          <mxGeometry x="80" y="340" width="160" height="80" as="geometry" />
        </mxCell>
        <mxCell id="p4RgYQNxMF_yrCPV_QGR-116" value="Memilih menu&lt;div style=&quot;font-size: 15px;&quot;&gt;Login Pengguna&lt;/div&gt;" style="rounded=1;whiteSpace=wrap;html=1;fontSize=15;" vertex="1" parent="p4RgYQNxMF_yrCPV_QGR-113">
          <mxGeometry x="80" y="500" width="160" height="80" as="geometry" />
        </mxCell>
        <mxCell id="p4RgYQNxMF_yrCPV_QGR-117" value="Mengisi form dan memasukkan file" style="rounded=1;whiteSpace=wrap;html=1;fontSize=15;" vertex="1" parent="p4RgYQNxMF_yrCPV_QGR-113">
          <mxGeometry x="80" y="820" width="160" height="80" as="geometry" />
        </mxCell>
        <mxCell id="p4RgYQNxMF_yrCPV_QGR-146" value="Menekan tombol Simpan" style="rounded=1;whiteSpace=wrap;html=1;fontSize=15;" vertex="1" parent="p4RgYQNxMF_yrCPV_QGR-113">
          <mxGeometry x="80" y="980" width="160" height="80" as="geometry" />
        </mxCell>
        <mxCell id="p4RgYQNxMF_yrCPV_QGR-149" value="" style="endArrow=classic;html=1;rounded=0;fontSize=15;" edge="1" parent="p4RgYQNxMF_yrCPV_QGR-113" source="p4RgYQNxMF_yrCPV_QGR-117" target="p4RgYQNxMF_yrCPV_QGR-146">
          <mxGeometry width="50" height="50" relative="1" as="geometry">
            <mxPoint x="310" y="1110" as="sourcePoint" />
            <mxPoint x="360" y="1060" as="targetPoint" />
          </mxGeometry>
        </mxCell>
        <mxCell id="p4RgYQNxMF_yrCPV_QGR-118" value="Start" style="endArrow=classic;html=1;rounded=0;fontSize=15;" edge="1" parent="1" source="p4RgYQNxMF_yrCPV_QGR-112" target="p4RgYQNxMF_yrCPV_QGR-114">
          <mxGeometry width="50" height="50" relative="1" as="geometry">
            <mxPoint x="1130" y="490" as="sourcePoint" />
            <mxPoint x="1160" y="220" as="targetPoint" />
            <mxPoint as="offset" />
          </mxGeometry>
        </mxCell>
        <mxCell id="p4RgYQNxMF_yrCPV_QGR-119" value="Sistem" style="swimlane;whiteSpace=wrap;html=1;fontSize=15;" vertex="1" parent="1">
          <mxGeometry x="1000" y="140" width="240" height="1540" as="geometry" />
        </mxCell>
        <mxCell id="p4RgYQNxMF_yrCPV_QGR-120" value="Menampilkan halaman Pilihan Login" style="rounded=1;whiteSpace=wrap;html=1;fontSize=15;" vertex="1" parent="p4RgYQNxMF_yrCPV_QGR-119">
          <mxGeometry x="40" y="340" width="160" height="80" as="geometry" />
        </mxCell>
        <mxCell id="p4RgYQNxMF_yrCPV_QGR-121" value="Menekan tautan&lt;div style=&quot;font-size: 15px;&quot;&gt;Daftar Sekarang&lt;/div&gt;" style="rounded=1;whiteSpace=wrap;html=1;fontSize=15;" vertex="1" parent="p4RgYQNxMF_yrCPV_QGR-119">
          <mxGeometry x="-200" y="660" width="160" height="80" as="geometry" />
        </mxCell>
        <mxCell id="p4RgYQNxMF_yrCPV_QGR-122" value="" style="rhombus;whiteSpace=wrap;html=1;fontSize=15;" vertex="1" parent="p4RgYQNxMF_yrCPV_QGR-119">
          <mxGeometry x="80" y="1140" width="80" height="80" as="geometry" />
        </mxCell>
        <mxCell id="p4RgYQNxMF_yrCPV_QGR-123" value="Validasi login" style="rounded=1;whiteSpace=wrap;html=1;fontSize=15;" vertex="1" parent="p4RgYQNxMF_yrCPV_QGR-119">
          <mxGeometry x="40" y="980" width="160" height="80" as="geometry" />
        </mxCell>
        <mxCell id="p4RgYQNxMF_yrCPV_QGR-124" value="" style="endArrow=classic;html=1;rounded=0;fontSize=15;" edge="1" parent="p4RgYQNxMF_yrCPV_QGR-119" source="p4RgYQNxMF_yrCPV_QGR-123" target="p4RgYQNxMF_yrCPV_QGR-122">
          <mxGeometry width="50" height="50" relative="1" as="geometry">
            <mxPoint x="-100" y="250" as="sourcePoint" />
            <mxPoint x="-50" y="200" as="targetPoint" />
          </mxGeometry>
        </mxCell>
        <mxCell id="p4RgYQNxMF_yrCPV_QGR-125" value="Menampilkan&lt;div style=&quot;font-size: 15px;&quot;&gt;halaman Beranda&lt;/div&gt;" style="rounded=1;whiteSpace=wrap;html=1;fontSize=15;" vertex="1" parent="p4RgYQNxMF_yrCPV_QGR-119">
          <mxGeometry x="40" y="1300" width="160" height="80" as="geometry" />
        </mxCell>
        <mxCell id="p4RgYQNxMF_yrCPV_QGR-126" value="Valid" style="endArrow=classic;html=1;rounded=0;fontSize=15;" edge="1" parent="p4RgYQNxMF_yrCPV_QGR-119" source="p4RgYQNxMF_yrCPV_QGR-122" target="p4RgYQNxMF_yrCPV_QGR-125">
          <mxGeometry width="50" height="50" relative="1" as="geometry">
            <mxPoint x="-100" y="910" as="sourcePoint" />
            <mxPoint x="-50" y="860" as="targetPoint" />
            <mxPoint as="offset" />
          </mxGeometry>
        </mxCell>
        <mxCell id="p4RgYQNxMF_yrCPV_QGR-127" value="" style="ellipse;html=1;shape=endState;fillColor=#000000;fontSize=15;" vertex="1" parent="p4RgYQNxMF_yrCPV_QGR-119">
          <mxGeometry x="100" y="1460" width="40" height="40" as="geometry" />
        </mxCell>
        <mxCell id="p4RgYQNxMF_yrCPV_QGR-128" value="End" style="endArrow=classic;html=1;rounded=0;fontSize=15;" edge="1" parent="p4RgYQNxMF_yrCPV_QGR-119" source="p4RgYQNxMF_yrCPV_QGR-125" target="p4RgYQNxMF_yrCPV_QGR-127">
          <mxGeometry width="50" height="50" relative="1" as="geometry">
            <mxPoint x="290" y="700" as="sourcePoint" />
            <mxPoint x="120" y="980" as="targetPoint" />
          </mxGeometry>
        </mxCell>
        <mxCell id="p4RgYQNxMF_yrCPV_QGR-129" value="Menampilkan&lt;div style=&quot;font-size: 15px;&quot;&gt;halaman Beranda&lt;/div&gt;" style="rounded=1;whiteSpace=wrap;html=1;fontSize=15;" vertex="1" parent="p4RgYQNxMF_yrCPV_QGR-119">
          <mxGeometry x="40" y="180" width="160" height="80" as="geometry" />
        </mxCell>
        <mxCell id="p4RgYQNxMF_yrCPV_QGR-130" value="Menampilkan halaman Login Pengguna" style="rounded=1;whiteSpace=wrap;html=1;fontSize=15;" vertex="1" parent="p4RgYQNxMF_yrCPV_QGR-119">
          <mxGeometry x="40" y="500" width="160" height="80" as="geometry" />
        </mxCell>
        <mxCell id="p4RgYQNxMF_yrCPV_QGR-131" value="" style="endArrow=classic;html=1;rounded=0;fontSize=15;" edge="1" parent="p4RgYQNxMF_yrCPV_QGR-119" source="p4RgYQNxMF_yrCPV_QGR-130" target="p4RgYQNxMF_yrCPV_QGR-121">
          <mxGeometry width="50" height="50" relative="1" as="geometry">
            <mxPoint x="-20" y="640" as="sourcePoint" />
            <mxPoint x="30" y="590" as="targetPoint" />
            <Array as="points">
              <mxPoint x="120" y="620" />
              <mxPoint x="-120" y="620" />
            </Array>
          </mxGeometry>
        </mxCell>
        <mxCell id="p4RgYQNxMF_yrCPV_QGR-140" value="Menampilkan halaman Registrasi Pengguna" style="rounded=1;whiteSpace=wrap;html=1;fontSize=15;" vertex="1" parent="p4RgYQNxMF_yrCPV_QGR-119">
          <mxGeometry x="40" y="660" width="160" height="80" as="geometry" />
        </mxCell>
        <mxCell id="p4RgYQNxMF_yrCPV_QGR-142" value="" style="endArrow=classic;html=1;rounded=0;fontSize=15;" edge="1" parent="p4RgYQNxMF_yrCPV_QGR-119" source="p4RgYQNxMF_yrCPV_QGR-121" target="p4RgYQNxMF_yrCPV_QGR-140">
          <mxGeometry width="50" height="50" relative="1" as="geometry">
            <mxPoint x="-180" y="780" as="sourcePoint" />
            <mxPoint x="-130" y="730" as="targetPoint" />
          </mxGeometry>
        </mxCell>
        <mxCell id="p4RgYQNxMF_yrCPV_QGR-133" value="" style="endArrow=classic;html=1;rounded=0;fontSize=15;" edge="1" parent="1" source="p4RgYQNxMF_yrCPV_QGR-114" target="p4RgYQNxMF_yrCPV_QGR-129">
          <mxGeometry width="50" height="50" relative="1" as="geometry">
            <mxPoint x="1060" y="420" as="sourcePoint" />
            <mxPoint x="1110" y="370" as="targetPoint" />
          </mxGeometry>
        </mxCell>
        <mxCell id="p4RgYQNxMF_yrCPV_QGR-134" value="" style="endArrow=classic;html=1;rounded=0;fontSize=15;" edge="1" parent="1" source="p4RgYQNxMF_yrCPV_QGR-129" target="p4RgYQNxMF_yrCPV_QGR-115">
          <mxGeometry width="50" height="50" relative="1" as="geometry">
            <mxPoint x="970" y="370" as="sourcePoint" />
            <mxPoint x="1050" y="370" as="targetPoint" />
            <Array as="points">
              <mxPoint x="1120" y="440" />
              <mxPoint x="880" y="440" />
            </Array>
          </mxGeometry>
        </mxCell>
        <mxCell id="p4RgYQNxMF_yrCPV_QGR-135" value="" style="endArrow=classic;html=1;rounded=0;fontSize=15;" edge="1" parent="1" source="p4RgYQNxMF_yrCPV_QGR-115" target="p4RgYQNxMF_yrCPV_QGR-120">
          <mxGeometry width="50" height="50" relative="1" as="geometry">
            <mxPoint x="980" y="380" as="sourcePoint" />
            <mxPoint x="1060" y="380" as="targetPoint" />
          </mxGeometry>
        </mxCell>
        <mxCell id="p4RgYQNxMF_yrCPV_QGR-136" value="" style="endArrow=classic;html=1;rounded=0;fontSize=15;" edge="1" parent="1" source="p4RgYQNxMF_yrCPV_QGR-120" target="p4RgYQNxMF_yrCPV_QGR-116">
          <mxGeometry width="50" height="50" relative="1" as="geometry">
            <mxPoint x="980" y="690" as="sourcePoint" />
            <mxPoint x="1030" y="640" as="targetPoint" />
            <Array as="points">
              <mxPoint x="1120" y="600" />
              <mxPoint x="880" y="600" />
            </Array>
          </mxGeometry>
        </mxCell>
        <mxCell id="p4RgYQNxMF_yrCPV_QGR-137" value="" style="endArrow=classic;html=1;rounded=0;fontSize=15;" edge="1" parent="1" source="p4RgYQNxMF_yrCPV_QGR-116" target="p4RgYQNxMF_yrCPV_QGR-130">
          <mxGeometry width="50" height="50" relative="1" as="geometry">
            <mxPoint x="980" y="690" as="sourcePoint" />
            <mxPoint x="1030" y="640" as="targetPoint" />
          </mxGeometry>
        </mxCell>
        <mxCell id="p4RgYQNxMF_yrCPV_QGR-141" value="" style="endArrow=classic;html=1;rounded=0;fontSize=15;" edge="1" parent="1" source="p4RgYQNxMF_yrCPV_QGR-140" target="p4RgYQNxMF_yrCPV_QGR-117">
          <mxGeometry width="50" height="50" relative="1" as="geometry">
            <mxPoint x="810" y="890" as="sourcePoint" />
            <mxPoint x="860" y="840" as="targetPoint" />
            <Array as="points">
              <mxPoint x="1120" y="920" />
              <mxPoint x="880" y="920" />
            </Array>
          </mxGeometry>
        </mxCell>
        <mxCell id="p4RgYQNxMF_yrCPV_QGR-147" value="Tidak Valid" style="endArrow=classic;html=1;rounded=0;fontSize=15;" edge="1" parent="1" source="p4RgYQNxMF_yrCPV_QGR-122" target="p4RgYQNxMF_yrCPV_QGR-117">
          <mxGeometry x="-0.5294" width="50" height="50" relative="1" as="geometry">
            <mxPoint x="1030" y="1250" as="sourcePoint" />
            <mxPoint x="1080" y="1200" as="targetPoint" />
            <Array as="points">
              <mxPoint x="760" y="1320" />
              <mxPoint x="760" y="1000" />
            </Array>
            <mxPoint as="offset" />
          </mxGeometry>
        </mxCell>
        <mxCell id="p4RgYQNxMF_yrCPV_QGR-148" value="" style="endArrow=classic;html=1;rounded=0;fontSize=15;" edge="1" parent="1" source="p4RgYQNxMF_yrCPV_QGR-146" target="p4RgYQNxMF_yrCPV_QGR-123">
          <mxGeometry width="50" height="50" relative="1" as="geometry">
            <mxPoint x="1030" y="1250" as="sourcePoint" />
            <mxPoint x="1080" y="1200" as="targetPoint" />
          </mxGeometry>
        </mxCell>
        <mxCell id="p4RgYQNxMF_yrCPV_QGR-150" value="Mengakes&lt;div style=&quot;font-size: 15px;&quot;&gt;halaman Beranda&lt;/div&gt;" style="rounded=1;whiteSpace=wrap;html=1;fontSize=15;" vertex="1" parent="1">
          <mxGeometry x="2240" y="320" width="160" height="80" as="geometry" />
        </mxCell>
        <mxCell id="p4RgYQNxMF_yrCPV_QGR-151" value="Autentikasi&amp;nbsp;&lt;div style=&quot;font-size: 15px;&quot;&gt;pengguna&lt;/div&gt;" style="rounded=1;whiteSpace=wrap;html=1;fontSize=15;" vertex="1" parent="1">
          <mxGeometry x="2480" y="320" width="160" height="80" as="geometry" />
        </mxCell>
        <mxCell id="p4RgYQNxMF_yrCPV_QGR-152" value="" style="rhombus;whiteSpace=wrap;html=1;fontSize=15;" vertex="1" parent="1">
          <mxGeometry x="2520" y="480" width="80" height="80" as="geometry" />
        </mxCell>
        <mxCell id="p4RgYQNxMF_yrCPV_QGR-153" value="" style="endArrow=classic;html=1;rounded=0;fontSize=15;" edge="1" parent="1" source="p4RgYQNxMF_yrCPV_QGR-151" target="p4RgYQNxMF_yrCPV_QGR-152">
          <mxGeometry width="50" height="50" relative="1" as="geometry">
            <mxPoint x="2230" y="340" as="sourcePoint" />
            <mxPoint x="2280" y="290" as="targetPoint" />
          </mxGeometry>
        </mxCell>
        <mxCell id="p4RgYQNxMF_yrCPV_QGR-154" value="Menampilkan&lt;div style=&quot;font-size: 15px;&quot;&gt;halaman Login&lt;/div&gt;" style="rounded=1;whiteSpace=wrap;html=1;fontSize=15;" vertex="1" parent="1">
          <mxGeometry x="2480" y="640" width="160" height="80" as="geometry" />
        </mxCell>
        <mxCell id="p4RgYQNxMF_yrCPV_QGR-156" value="Menekan nama pengguna&amp;nbsp;&lt;span style=&quot;background-color: initial; font-size: 15px;&quot;&gt;pada&lt;/span&gt;&lt;div style=&quot;font-size: 15px;&quot;&gt;&lt;span style=&quot;background-color: initial; font-size: 15px;&quot;&gt;Navigation Bar&lt;/span&gt;&lt;/div&gt;" style="rounded=1;whiteSpace=wrap;html=1;fontSize=15;" vertex="1" parent="1">
          <mxGeometry x="2240" y="800" width="160" height="80" as="geometry" />
        </mxCell>
        <mxCell id="p4RgYQNxMF_yrCPV_QGR-157" value="Melakukan login" style="rounded=1;whiteSpace=wrap;html=1;fontSize=15;" vertex="1" parent="1">
          <mxGeometry x="2240" y="640" width="160" height="80" as="geometry" />
        </mxCell>
        <mxCell id="p4RgYQNxMF_yrCPV_QGR-158" value="" style="endArrow=classic;html=1;rounded=0;fontSize=15;" edge="1" parent="1" source="p4RgYQNxMF_yrCPV_QGR-157" target="p4RgYQNxMF_yrCPV_QGR-156">
          <mxGeometry width="50" height="50" relative="1" as="geometry">
            <mxPoint x="2230" y="710" as="sourcePoint" />
            <mxPoint x="2280" y="660" as="targetPoint" />
          </mxGeometry>
        </mxCell>
        <mxCell id="p4RgYQNxMF_yrCPV_QGR-159" value="" style="endArrow=classic;html=1;rounded=0;fontSize=15;" edge="1" parent="1" source="p4RgYQNxMF_yrCPV_QGR-154" target="p4RgYQNxMF_yrCPV_QGR-157">
          <mxGeometry width="50" height="50" relative="1" as="geometry">
            <mxPoint x="2230" y="710" as="sourcePoint" />
            <mxPoint x="2280" y="660" as="targetPoint" />
          </mxGeometry>
        </mxCell>
        <mxCell id="p4RgYQNxMF_yrCPV_QGR-160" value="Belum Login" style="endArrow=classic;html=1;rounded=0;fontSize=15;" edge="1" parent="1" source="p4RgYQNxMF_yrCPV_QGR-152" target="p4RgYQNxMF_yrCPV_QGR-154">
          <mxGeometry width="50" height="50" relative="1" as="geometry">
            <mxPoint x="2230" y="710" as="sourcePoint" />
            <mxPoint x="2280" y="660" as="targetPoint" />
            <mxPoint as="offset" />
          </mxGeometry>
        </mxCell>
        <mxCell id="p4RgYQNxMF_yrCPV_QGR-161" value="Sudah Login" style="endArrow=classic;html=1;rounded=0;fontSize=15;" edge="1" parent="1" source="p4RgYQNxMF_yrCPV_QGR-152" target="p4RgYQNxMF_yrCPV_QGR-156">
          <mxGeometry x="-0.5294" width="50" height="50" relative="1" as="geometry">
            <mxPoint x="2230" y="710" as="sourcePoint" />
            <mxPoint x="2280" y="660" as="targetPoint" />
            <Array as="points">
              <mxPoint x="2200" y="520" />
              <mxPoint x="2200" y="840" />
            </Array>
            <mxPoint as="offset" />
          </mxGeometry>
        </mxCell>
        <mxCell id="p4RgYQNxMF_yrCPV_QGR-162" value="" style="endArrow=classic;html=1;rounded=0;fontSize=15;" edge="1" parent="1" source="p4RgYQNxMF_yrCPV_QGR-150" target="p4RgYQNxMF_yrCPV_QGR-151">
          <mxGeometry width="50" height="50" relative="1" as="geometry">
            <mxPoint x="2230" y="620" as="sourcePoint" />
            <mxPoint x="2280" y="570" as="targetPoint" />
          </mxGeometry>
        </mxCell>
        <mxCell id="p4RgYQNxMF_yrCPV_QGR-164" value="Memilih menu akun" style="rounded=1;whiteSpace=wrap;html=1;fontSize=15;" vertex="1" parent="1">
          <mxGeometry x="2240" y="960" width="160" height="80" as="geometry" />
        </mxCell>
        <mxCell id="p4RgYQNxMF_yrCPV_QGR-165" value="Menampilkan halaman Profil Pengguna" style="rounded=1;whiteSpace=wrap;html=1;fontSize=15;" vertex="1" parent="1">
          <mxGeometry x="2480" y="960" width="160" height="80" as="geometry" />
        </mxCell>
        <mxCell id="p4RgYQNxMF_yrCPV_QGR-166" value="Menampilkan&lt;div style=&quot;font-size: 15px;&quot;&gt;menu dropdown&lt;/div&gt;" style="rounded=1;whiteSpace=wrap;html=1;fontSize=15;" vertex="1" parent="1">
          <mxGeometry x="2480" y="800" width="160" height="80" as="geometry" />
        </mxCell>
        <mxCell id="p4RgYQNxMF_yrCPV_QGR-167" value="End" style="endArrow=classic;html=1;rounded=0;fontSize=15;" edge="1" parent="1" source="p4RgYQNxMF_yrCPV_QGR-165" target="p4RgYQNxMF_yrCPV_QGR-168">
          <mxGeometry width="50" height="50" relative="1" as="geometry">
            <mxPoint x="2570" y="1310" as="sourcePoint" />
            <mxPoint x="2570" y="1440" as="targetPoint" />
          </mxGeometry>
        </mxCell>
        <mxCell id="p4RgYQNxMF_yrCPV_QGR-168" value="" style="ellipse;html=1;shape=endState;fillColor=#000000;fontSize=15;" vertex="1" parent="1">
          <mxGeometry x="2540" y="1120" width="40" height="40" as="geometry" />
        </mxCell>
        <mxCell id="p4RgYQNxMF_yrCPV_QGR-169" value="" style="endArrow=classic;html=1;rounded=0;fontSize=15;" edge="1" parent="1" source="p4RgYQNxMF_yrCPV_QGR-166" target="p4RgYQNxMF_yrCPV_QGR-164">
          <mxGeometry width="50" height="50" relative="1" as="geometry">
            <mxPoint x="2410" y="850" as="sourcePoint" />
            <mxPoint x="2490" y="850" as="targetPoint" />
            <Array as="points">
              <mxPoint x="2560" y="920" />
              <mxPoint x="2320" y="920" />
            </Array>
          </mxGeometry>
        </mxCell>
        <mxCell id="p4RgYQNxMF_yrCPV_QGR-170" value="" style="endArrow=classic;html=1;rounded=0;fontSize=15;" edge="1" parent="1" source="p4RgYQNxMF_yrCPV_QGR-164" target="p4RgYQNxMF_yrCPV_QGR-165">
          <mxGeometry width="50" height="50" relative="1" as="geometry">
            <mxPoint x="2420" y="860" as="sourcePoint" />
            <mxPoint x="2500" y="860" as="targetPoint" />
          </mxGeometry>
        </mxCell>
        <mxCell id="p4RgYQNxMF_yrCPV_QGR-171" value="" style="endArrow=classic;html=1;rounded=0;fontSize=15;" edge="1" parent="1" source="p4RgYQNxMF_yrCPV_QGR-156" target="p4RgYQNxMF_yrCPV_QGR-166">
          <mxGeometry width="50" height="50" relative="1" as="geometry">
            <mxPoint x="2230" y="920" as="sourcePoint" />
            <mxPoint x="2280" y="870" as="targetPoint" />
          </mxGeometry>
        </mxCell>
        <mxCell id="p4RgYQNxMF_yrCPV_QGR-175" value="Start" style="endArrow=classic;html=1;rounded=0;fontSize=15;" edge="1" parent="1" source="p4RgYQNxMF_yrCPV_QGR-174" target="p4RgYQNxMF_yrCPV_QGR-150">
          <mxGeometry width="50" height="50" relative="1" as="geometry">
            <mxPoint x="2930" y="250" as="sourcePoint" />
            <mxPoint x="2930" y="330" as="targetPoint" />
          </mxGeometry>
        </mxCell>
        <mxCell id="p4RgYQNxMF_yrCPV_QGR-176" value="" style="ellipse;whiteSpace=wrap;html=1;aspect=fixed;fontSize=15;" vertex="1" parent="1">
          <mxGeometry x="220" y="3160" width="40" height="40" as="geometry" />
        </mxCell>
        <mxCell id="p4RgYQNxMF_yrCPV_QGR-177" value="Admin" style="swimlane;whiteSpace=wrap;html=1;fontSize=15;" vertex="1" parent="1">
          <mxGeometry x="80" y="3100" width="280" height="1380" as="geometry" />
        </mxCell>
        <mxCell id="p4RgYQNxMF_yrCPV_QGR-178" value="Mengakses&lt;div style=&quot;font-size: 15px;&quot;&gt;halaman Beranda&lt;/div&gt;" style="rounded=1;whiteSpace=wrap;html=1;fontSize=15;" vertex="1" parent="p4RgYQNxMF_yrCPV_QGR-177">
          <mxGeometry x="80" y="180" width="160" height="80" as="geometry" />
        </mxCell>
        <mxCell id="p4RgYQNxMF_yrCPV_QGR-179" value="Menekan tombol Masuk" style="rounded=1;whiteSpace=wrap;html=1;fontSize=15;" vertex="1" parent="p4RgYQNxMF_yrCPV_QGR-177">
          <mxGeometry x="80" y="340" width="160" height="80" as="geometry" />
        </mxCell>
        <mxCell id="p4RgYQNxMF_yrCPV_QGR-180" value="Memilih menu&lt;div style=&quot;font-size: 15px;&quot;&gt;Login Admin&lt;/div&gt;" style="rounded=1;whiteSpace=wrap;html=1;fontSize=15;" vertex="1" parent="p4RgYQNxMF_yrCPV_QGR-177">
          <mxGeometry x="80" y="500" width="160" height="80" as="geometry" />
        </mxCell>
        <mxCell id="p4RgYQNxMF_yrCPV_QGR-181" value="Menekan tombol&lt;br style=&quot;font-size: 15px;&quot;&gt;Masuk" style="rounded=1;whiteSpace=wrap;html=1;fontSize=15;" vertex="1" parent="p4RgYQNxMF_yrCPV_QGR-177">
          <mxGeometry x="80" y="820" width="160" height="80" as="geometry" />
        </mxCell>
        <mxCell id="p4RgYQNxMF_yrCPV_QGR-182" value="Start" style="endArrow=classic;html=1;rounded=0;fontSize=15;" edge="1" parent="1" source="p4RgYQNxMF_yrCPV_QGR-176" target="p4RgYQNxMF_yrCPV_QGR-178">
          <mxGeometry width="50" height="50" relative="1" as="geometry">
            <mxPoint x="490" y="3450" as="sourcePoint" />
            <mxPoint x="520" y="3180" as="targetPoint" />
            <mxPoint as="offset" />
          </mxGeometry>
        </mxCell>
        <mxCell id="p4RgYQNxMF_yrCPV_QGR-183" value="Sistem" style="swimlane;whiteSpace=wrap;html=1;fontSize=15;" vertex="1" parent="1">
          <mxGeometry x="360" y="3100" width="240" height="1380" as="geometry" />
        </mxCell>
        <mxCell id="p4RgYQNxMF_yrCPV_QGR-184" value="Menampilkan halaman Pilihan Login" style="rounded=1;whiteSpace=wrap;html=1;fontSize=15;" vertex="1" parent="p4RgYQNxMF_yrCPV_QGR-183">
          <mxGeometry x="40" y="340" width="160" height="80" as="geometry" />
        </mxCell>
        <mxCell id="p4RgYQNxMF_yrCPV_QGR-185" value="Memasukkan NIK&lt;div style=&quot;font-size: 15px;&quot;&gt;dan Password&lt;/div&gt;" style="rounded=1;whiteSpace=wrap;html=1;fontSize=15;" vertex="1" parent="p4RgYQNxMF_yrCPV_QGR-183">
          <mxGeometry x="-200" y="660" width="160" height="80" as="geometry" />
        </mxCell>
        <mxCell id="p4RgYQNxMF_yrCPV_QGR-186" value="" style="rhombus;whiteSpace=wrap;html=1;fontSize=15;" vertex="1" parent="p4RgYQNxMF_yrCPV_QGR-183">
          <mxGeometry x="80" y="980" width="80" height="80" as="geometry" />
        </mxCell>
        <mxCell id="p4RgYQNxMF_yrCPV_QGR-187" value="Validasi login" style="rounded=1;whiteSpace=wrap;html=1;fontSize=15;" vertex="1" parent="p4RgYQNxMF_yrCPV_QGR-183">
          <mxGeometry x="40" y="820" width="160" height="80" as="geometry" />
        </mxCell>
        <mxCell id="p4RgYQNxMF_yrCPV_QGR-188" value="" style="endArrow=classic;html=1;rounded=0;fontSize=15;" edge="1" parent="p4RgYQNxMF_yrCPV_QGR-183" source="p4RgYQNxMF_yrCPV_QGR-187" target="p4RgYQNxMF_yrCPV_QGR-186">
          <mxGeometry width="50" height="50" relative="1" as="geometry">
            <mxPoint x="-100" y="250" as="sourcePoint" />
            <mxPoint x="-50" y="200" as="targetPoint" />
          </mxGeometry>
        </mxCell>
        <mxCell id="p4RgYQNxMF_yrCPV_QGR-189" value="Menampilkan&lt;div style=&quot;font-size: 15px;&quot;&gt;halaman Beranda&lt;/div&gt;" style="rounded=1;whiteSpace=wrap;html=1;fontSize=15;" vertex="1" parent="p4RgYQNxMF_yrCPV_QGR-183">
          <mxGeometry x="40" y="1140" width="160" height="80" as="geometry" />
        </mxCell>
        <mxCell id="p4RgYQNxMF_yrCPV_QGR-190" value="Valid" style="endArrow=classic;html=1;rounded=0;fontSize=15;" edge="1" parent="p4RgYQNxMF_yrCPV_QGR-183" source="p4RgYQNxMF_yrCPV_QGR-186" target="p4RgYQNxMF_yrCPV_QGR-189">
          <mxGeometry width="50" height="50" relative="1" as="geometry">
            <mxPoint x="-100" y="750" as="sourcePoint" />
            <mxPoint x="-50" y="700" as="targetPoint" />
            <mxPoint as="offset" />
          </mxGeometry>
        </mxCell>
        <mxCell id="p4RgYQNxMF_yrCPV_QGR-191" value="" style="ellipse;html=1;shape=endState;fillColor=#000000;fontSize=15;" vertex="1" parent="p4RgYQNxMF_yrCPV_QGR-183">
          <mxGeometry x="100" y="1300" width="40" height="40" as="geometry" />
        </mxCell>
        <mxCell id="p4RgYQNxMF_yrCPV_QGR-192" value="End" style="endArrow=classic;html=1;rounded=0;fontSize=15;" edge="1" parent="p4RgYQNxMF_yrCPV_QGR-183" source="p4RgYQNxMF_yrCPV_QGR-189" target="p4RgYQNxMF_yrCPV_QGR-191">
          <mxGeometry width="50" height="50" relative="1" as="geometry">
            <mxPoint x="290" y="700" as="sourcePoint" />
            <mxPoint x="120" y="980" as="targetPoint" />
          </mxGeometry>
        </mxCell>
        <mxCell id="p4RgYQNxMF_yrCPV_QGR-193" value="Menampilkan&lt;div style=&quot;font-size: 15px;&quot;&gt;halaman Beranda&lt;/div&gt;" style="rounded=1;whiteSpace=wrap;html=1;fontSize=15;" vertex="1" parent="p4RgYQNxMF_yrCPV_QGR-183">
          <mxGeometry x="40" y="180" width="160" height="80" as="geometry" />
        </mxCell>
        <mxCell id="p4RgYQNxMF_yrCPV_QGR-194" value="Menampilkan halaman Login Admin" style="rounded=1;whiteSpace=wrap;html=1;fontSize=15;" vertex="1" parent="p4RgYQNxMF_yrCPV_QGR-183">
          <mxGeometry x="40" y="500" width="160" height="80" as="geometry" />
        </mxCell>
        <mxCell id="p4RgYQNxMF_yrCPV_QGR-195" value="" style="endArrow=classic;html=1;rounded=0;fontSize=15;" edge="1" parent="p4RgYQNxMF_yrCPV_QGR-183" source="p4RgYQNxMF_yrCPV_QGR-194" target="p4RgYQNxMF_yrCPV_QGR-185">
          <mxGeometry width="50" height="50" relative="1" as="geometry">
            <mxPoint x="-20" y="640" as="sourcePoint" />
            <mxPoint x="30" y="590" as="targetPoint" />
            <Array as="points">
              <mxPoint x="120" y="620" />
              <mxPoint x="-120" y="620" />
            </Array>
          </mxGeometry>
        </mxCell>
        <mxCell id="p4RgYQNxMF_yrCPV_QGR-196" value="Tidak Valid" style="endArrow=classic;html=1;rounded=0;fontSize=15;" edge="1" parent="p4RgYQNxMF_yrCPV_QGR-183" source="p4RgYQNxMF_yrCPV_QGR-186" target="p4RgYQNxMF_yrCPV_QGR-185">
          <mxGeometry x="-0.5294" width="50" height="50" relative="1" as="geometry">
            <mxPoint x="40" y="690" as="sourcePoint" />
            <mxPoint x="90" y="640" as="targetPoint" />
            <Array as="points">
              <mxPoint x="-240" y="1020" />
              <mxPoint x="-240" y="700" />
            </Array>
            <mxPoint as="offset" />
          </mxGeometry>
        </mxCell>
        <mxCell id="p4RgYQNxMF_yrCPV_QGR-197" value="" style="endArrow=classic;html=1;rounded=0;fontSize=15;" edge="1" parent="1" source="p4RgYQNxMF_yrCPV_QGR-178" target="p4RgYQNxMF_yrCPV_QGR-193">
          <mxGeometry width="50" height="50" relative="1" as="geometry">
            <mxPoint x="420" y="3380" as="sourcePoint" />
            <mxPoint x="470" y="3330" as="targetPoint" />
          </mxGeometry>
        </mxCell>
        <mxCell id="p4RgYQNxMF_yrCPV_QGR-198" value="" style="endArrow=classic;html=1;rounded=0;fontSize=15;" edge="1" parent="1" source="p4RgYQNxMF_yrCPV_QGR-193" target="p4RgYQNxMF_yrCPV_QGR-179">
          <mxGeometry width="50" height="50" relative="1" as="geometry">
            <mxPoint x="330" y="3330" as="sourcePoint" />
            <mxPoint x="410" y="3330" as="targetPoint" />
            <Array as="points">
              <mxPoint x="480" y="3400" />
              <mxPoint x="240" y="3400" />
            </Array>
          </mxGeometry>
        </mxCell>
        <mxCell id="p4RgYQNxMF_yrCPV_QGR-199" value="" style="endArrow=classic;html=1;rounded=0;fontSize=15;" edge="1" parent="1" source="p4RgYQNxMF_yrCPV_QGR-179" target="p4RgYQNxMF_yrCPV_QGR-184">
          <mxGeometry width="50" height="50" relative="1" as="geometry">
            <mxPoint x="340" y="3340" as="sourcePoint" />
            <mxPoint x="420" y="3340" as="targetPoint" />
          </mxGeometry>
        </mxCell>
        <mxCell id="p4RgYQNxMF_yrCPV_QGR-200" value="" style="endArrow=classic;html=1;rounded=0;fontSize=15;" edge="1" parent="1" source="p4RgYQNxMF_yrCPV_QGR-184" target="p4RgYQNxMF_yrCPV_QGR-180">
          <mxGeometry width="50" height="50" relative="1" as="geometry">
            <mxPoint x="340" y="3650" as="sourcePoint" />
            <mxPoint x="390" y="3600" as="targetPoint" />
            <Array as="points">
              <mxPoint x="480" y="3560" />
              <mxPoint x="240" y="3560" />
            </Array>
          </mxGeometry>
        </mxCell>
        <mxCell id="p4RgYQNxMF_yrCPV_QGR-201" value="" style="endArrow=classic;html=1;rounded=0;fontSize=15;" edge="1" parent="1" source="p4RgYQNxMF_yrCPV_QGR-180" target="p4RgYQNxMF_yrCPV_QGR-194">
          <mxGeometry width="50" height="50" relative="1" as="geometry">
            <mxPoint x="340" y="3650" as="sourcePoint" />
            <mxPoint x="390" y="3600" as="targetPoint" />
          </mxGeometry>
        </mxCell>
        <mxCell id="p4RgYQNxMF_yrCPV_QGR-202" value="" style="endArrow=classic;html=1;rounded=0;fontSize=15;" edge="1" parent="1" source="p4RgYQNxMF_yrCPV_QGR-181" target="p4RgYQNxMF_yrCPV_QGR-187">
          <mxGeometry width="50" height="50" relative="1" as="geometry">
            <mxPoint x="440" y="4010" as="sourcePoint" />
            <mxPoint x="490" y="3960" as="targetPoint" />
          </mxGeometry>
        </mxCell>
        <mxCell id="p4RgYQNxMF_yrCPV_QGR-203" value="" style="endArrow=classic;html=1;rounded=0;fontSize=15;" edge="1" parent="1" source="p4RgYQNxMF_yrCPV_QGR-185" target="p4RgYQNxMF_yrCPV_QGR-181">
          <mxGeometry width="50" height="50" relative="1" as="geometry">
            <mxPoint x="360" y="3360" as="sourcePoint" />
            <mxPoint x="440" y="3360" as="targetPoint" />
          </mxGeometry>
        </mxCell>
        <mxCell id="p4RgYQNxMF_yrCPV_QGR-210" value="" style="ellipse;whiteSpace=wrap;html=1;aspect=fixed;fontSize=15;" vertex="1" parent="1">
          <mxGeometry x="3500" y="3160" width="40" height="40" as="geometry" />
        </mxCell>
        <mxCell id="p4RgYQNxMF_yrCPV_QGR-211" value="Admin" style="swimlane;whiteSpace=wrap;html=1;fontSize=15;" vertex="1" parent="1">
          <mxGeometry x="3360" y="3100" width="280" height="1540" as="geometry" />
        </mxCell>
        <mxCell id="p4RgYQNxMF_yrCPV_QGR-212" value="Mengakses&amp;nbsp;&lt;span style=&quot;background-color: initial; font-size: 15px;&quot;&gt;halaman&lt;/span&gt;&lt;div style=&quot;font-size: 15px;&quot;&gt;Upload Informasi&lt;/div&gt;" style="rounded=1;whiteSpace=wrap;html=1;fontSize=15;" vertex="1" parent="p4RgYQNxMF_yrCPV_QGR-211">
          <mxGeometry x="80" y="180" width="160" height="80" as="geometry" />
        </mxCell>
        <mxCell id="p4RgYQNxMF_yrCPV_QGR-213" value="Memasukkan banner" style="rounded=1;whiteSpace=wrap;html=1;fontSize=15;" vertex="1" parent="p4RgYQNxMF_yrCPV_QGR-211">
          <mxGeometry x="80" y="340" width="160" height="80" as="geometry" />
        </mxCell>
        <mxCell id="p4RgYQNxMF_yrCPV_QGR-214" value="Memilih&lt;div style=&quot;font-size: 15px;&quot;&gt;tombol aksi&lt;/div&gt;" style="rounded=1;whiteSpace=wrap;html=1;fontSize=15;" vertex="1" parent="p4RgYQNxMF_yrCPV_QGR-211">
          <mxGeometry x="80" y="820" width="160" height="80" as="geometry" />
        </mxCell>
        <mxCell id="p4RgYQNxMF_yrCPV_QGR-215" value="" style="rhombus;whiteSpace=wrap;html=1;fontSize=15;" vertex="1" parent="p4RgYQNxMF_yrCPV_QGR-211">
          <mxGeometry x="120" y="980" width="80" height="80" as="geometry" />
        </mxCell>
        <mxCell id="p4RgYQNxMF_yrCPV_QGR-216" value="" style="endArrow=classic;html=1;rounded=0;fontSize=15;" edge="1" parent="p4RgYQNxMF_yrCPV_QGR-211" source="p4RgYQNxMF_yrCPV_QGR-214" target="p4RgYQNxMF_yrCPV_QGR-215">
          <mxGeometry width="50" height="50" relative="1" as="geometry">
            <mxPoint x="270" y="970" as="sourcePoint" />
            <mxPoint x="350" y="1000" as="targetPoint" />
          </mxGeometry>
        </mxCell>
        <mxCell id="p4RgYQNxMF_yrCPV_QGR-217" value="Batalkan" style="endArrow=classic;html=1;rounded=0;fontSize=15;" edge="1" parent="p4RgYQNxMF_yrCPV_QGR-211" target="p4RgYQNxMF_yrCPV_QGR-213">
          <mxGeometry x="-0.8947" width="50" height="50" relative="1" as="geometry">
            <mxPoint x="120" y="1020" as="sourcePoint" />
            <mxPoint x="140" y="600" as="targetPoint" />
            <Array as="points">
              <mxPoint x="40" y="1020" />
              <mxPoint x="40" y="380" />
            </Array>
            <mxPoint as="offset" />
          </mxGeometry>
        </mxCell>
        <mxCell id="p4RgYQNxMF_yrCPV_QGR-218" value="Start" style="endArrow=classic;html=1;rounded=0;fontSize=15;" edge="1" parent="1" source="p4RgYQNxMF_yrCPV_QGR-210" target="p4RgYQNxMF_yrCPV_QGR-212">
          <mxGeometry width="50" height="50" relative="1" as="geometry">
            <mxPoint x="3770" y="3450" as="sourcePoint" />
            <mxPoint x="3800" y="3180" as="targetPoint" />
          </mxGeometry>
        </mxCell>
        <mxCell id="p4RgYQNxMF_yrCPV_QGR-219" value="Sistem" style="swimlane;whiteSpace=wrap;html=1;fontSize=15;" vertex="1" parent="1">
          <mxGeometry x="3640" y="3100" width="240" height="1540" as="geometry" />
        </mxCell>
        <mxCell id="p4RgYQNxMF_yrCPV_QGR-220" value="Validasi Data" style="rounded=1;whiteSpace=wrap;html=1;fontSize=15;" vertex="1" parent="p4RgYQNxMF_yrCPV_QGR-219">
          <mxGeometry x="40" y="340" width="160" height="80" as="geometry" />
        </mxCell>
        <mxCell id="p4RgYQNxMF_yrCPV_QGR-221" value="Menampilkan&lt;div style=&quot;font-size: 15px;&quot;&gt;halaman Upload Informasi&lt;/div&gt;" style="rounded=1;whiteSpace=wrap;html=1;fontSize=15;" vertex="1" parent="p4RgYQNxMF_yrCPV_QGR-219">
          <mxGeometry x="40" y="180" width="160" height="80" as="geometry" />
        </mxCell>
        <mxCell id="p4RgYQNxMF_yrCPV_QGR-222" value="" style="endArrow=classic;html=1;rounded=0;fontSize=15;" edge="1" parent="p4RgYQNxMF_yrCPV_QGR-219" source="p4RgYQNxMF_yrCPV_QGR-220">
          <mxGeometry width="50" height="50" relative="1" as="geometry">
            <mxPoint x="-160" y="570" as="sourcePoint" />
            <mxPoint x="120" y="500" as="targetPoint" />
          </mxGeometry>
        </mxCell>
        <mxCell id="p4RgYQNxMF_yrCPV_QGR-223" value="" style="rhombus;whiteSpace=wrap;html=1;fontSize=15;" vertex="1" parent="p4RgYQNxMF_yrCPV_QGR-219">
          <mxGeometry x="80" y="500" width="80" height="80" as="geometry" />
        </mxCell>
        <mxCell id="p4RgYQNxMF_yrCPV_QGR-224" value="Menampilkan&lt;div style=&quot;font-size: 15px;&quot;&gt;preview banner&lt;/div&gt;" style="rounded=1;whiteSpace=wrap;html=1;fontSize=15;" vertex="1" parent="p4RgYQNxMF_yrCPV_QGR-219">
          <mxGeometry x="40" y="660" width="160" height="80" as="geometry" />
        </mxCell>
        <mxCell id="p4RgYQNxMF_yrCPV_QGR-225" value="&lt;font style=&quot;font-size: 15px;&quot;&gt;Valid&lt;/font&gt;" style="endArrow=classic;html=1;rounded=0;fontSize=15;" edge="1" parent="p4RgYQNxMF_yrCPV_QGR-219" source="p4RgYQNxMF_yrCPV_QGR-223" target="p4RgYQNxMF_yrCPV_QGR-224">
          <mxGeometry width="50" height="50" relative="1" as="geometry">
            <mxPoint x="30" y="590" as="sourcePoint" />
            <mxPoint x="80" y="540" as="targetPoint" />
            <mxPoint as="offset" />
          </mxGeometry>
        </mxCell>
        <mxCell id="p4RgYQNxMF_yrCPV_QGR-226" value="Menampilkan tombol Batalkan dan Unggah" style="rounded=1;whiteSpace=wrap;html=1;fontSize=15;" vertex="1" parent="p4RgYQNxMF_yrCPV_QGR-219">
          <mxGeometry x="40" y="820" width="160" height="80" as="geometry" />
        </mxCell>
        <mxCell id="p4RgYQNxMF_yrCPV_QGR-227" value="" style="endArrow=classic;html=1;rounded=0;fontSize=15;" edge="1" parent="p4RgYQNxMF_yrCPV_QGR-219" source="p4RgYQNxMF_yrCPV_QGR-224" target="p4RgYQNxMF_yrCPV_QGR-226">
          <mxGeometry width="50" height="50" relative="1" as="geometry">
            <mxPoint x="30" y="740" as="sourcePoint" />
            <mxPoint x="80" y="690" as="targetPoint" />
          </mxGeometry>
        </mxCell>
        <mxCell id="p4RgYQNxMF_yrCPV_QGR-228" value="Menyimpan data" style="rounded=1;whiteSpace=wrap;html=1;fontSize=15;" vertex="1" parent="p4RgYQNxMF_yrCPV_QGR-219">
          <mxGeometry x="40" y="980" width="160" height="80" as="geometry" />
        </mxCell>
        <mxCell id="p4RgYQNxMF_yrCPV_QGR-229" value="Menampilkan banner yang tersimpan" style="rounded=1;whiteSpace=wrap;html=1;fontSize=15;" vertex="1" parent="p4RgYQNxMF_yrCPV_QGR-219">
          <mxGeometry x="40" y="1300" width="160" height="80" as="geometry" />
        </mxCell>
        <mxCell id="p4RgYQNxMF_yrCPV_QGR-230" value="" style="endArrow=classic;html=1;rounded=0;fontSize=15;" edge="1" parent="p4RgYQNxMF_yrCPV_QGR-219" source="p4RgYQNxMF_yrCPV_QGR-228">
          <mxGeometry width="50" height="50" relative="1" as="geometry">
            <mxPoint x="-20" y="980" as="sourcePoint" />
            <mxPoint x="120" y="1140" as="targetPoint" />
          </mxGeometry>
        </mxCell>
        <mxCell id="p4RgYQNxMF_yrCPV_QGR-231" value="" style="ellipse;html=1;shape=endState;fillColor=#000000;fontSize=15;" vertex="1" parent="p4RgYQNxMF_yrCPV_QGR-219">
          <mxGeometry x="100" y="1460" width="40" height="40" as="geometry" />
        </mxCell>
        <mxCell id="p4RgYQNxMF_yrCPV_QGR-232" value="End" style="endArrow=classic;html=1;rounded=0;fontSize=15;" edge="1" parent="p4RgYQNxMF_yrCPV_QGR-219" source="p4RgYQNxMF_yrCPV_QGR-229" target="p4RgYQNxMF_yrCPV_QGR-231">
          <mxGeometry width="50" height="50" relative="1" as="geometry">
            <mxPoint x="370" y="1250" as="sourcePoint" />
            <mxPoint x="370" y="1170" as="targetPoint" />
          </mxGeometry>
        </mxCell>
        <mxCell id="p4RgYQNxMF_yrCPV_QGR-233" value="Menghilangkan&lt;div style=&quot;font-size: 15px;&quot;&gt;preview banner&lt;/div&gt;" style="rounded=1;whiteSpace=wrap;html=1;fontSize=15;" vertex="1" parent="p4RgYQNxMF_yrCPV_QGR-219">
          <mxGeometry x="40" y="1140" width="160" height="80" as="geometry" />
        </mxCell>
        <mxCell id="p4RgYQNxMF_yrCPV_QGR-234" value="" style="endArrow=classic;html=1;rounded=0;fontSize=15;" edge="1" parent="p4RgYQNxMF_yrCPV_QGR-219" source="p4RgYQNxMF_yrCPV_QGR-233" target="p4RgYQNxMF_yrCPV_QGR-229">
          <mxGeometry width="50" height="50" relative="1" as="geometry">
            <mxPoint x="-140" y="1290" as="sourcePoint" />
            <mxPoint x="-90" y="1240" as="targetPoint" />
          </mxGeometry>
        </mxCell>
        <mxCell id="p4RgYQNxMF_yrCPV_QGR-235" value="" style="endArrow=classic;html=1;rounded=0;fontSize=15;" edge="1" parent="1" source="p4RgYQNxMF_yrCPV_QGR-212" target="p4RgYQNxMF_yrCPV_QGR-221">
          <mxGeometry width="50" height="50" relative="1" as="geometry">
            <mxPoint x="3700" y="3380" as="sourcePoint" />
            <mxPoint x="3750" y="3330" as="targetPoint" />
          </mxGeometry>
        </mxCell>
        <mxCell id="p4RgYQNxMF_yrCPV_QGR-236" value="" style="endArrow=classic;html=1;rounded=0;fontSize=15;" edge="1" parent="1" source="p4RgYQNxMF_yrCPV_QGR-221" target="p4RgYQNxMF_yrCPV_QGR-213">
          <mxGeometry width="50" height="50" relative="1" as="geometry">
            <mxPoint x="3610" y="3330" as="sourcePoint" />
            <mxPoint x="3690" y="3330" as="targetPoint" />
            <Array as="points">
              <mxPoint x="3760" y="3400" />
              <mxPoint x="3520" y="3400" />
            </Array>
          </mxGeometry>
        </mxCell>
        <mxCell id="p4RgYQNxMF_yrCPV_QGR-237" value="" style="endArrow=classic;html=1;rounded=0;fontSize=15;" edge="1" parent="1" source="p4RgYQNxMF_yrCPV_QGR-213" target="p4RgYQNxMF_yrCPV_QGR-220">
          <mxGeometry width="50" height="50" relative="1" as="geometry">
            <mxPoint x="3620" y="3340" as="sourcePoint" />
            <mxPoint x="3700" y="3340" as="targetPoint" />
          </mxGeometry>
        </mxCell>
        <mxCell id="p4RgYQNxMF_yrCPV_QGR-238" value="Tidak Valid" style="endArrow=classic;html=1;rounded=0;fontSize=15;" edge="1" parent="1" source="p4RgYQNxMF_yrCPV_QGR-223" target="p4RgYQNxMF_yrCPV_QGR-213">
          <mxGeometry x="-0.375" width="50" height="50" relative="1" as="geometry">
            <mxPoint x="3470" y="3730" as="sourcePoint" />
            <mxPoint x="3520" y="3680" as="targetPoint" />
            <Array as="points">
              <mxPoint x="3520" y="3640" />
            </Array>
            <mxPoint as="offset" />
          </mxGeometry>
        </mxCell>
        <mxCell id="p4RgYQNxMF_yrCPV_QGR-239" value="" style="endArrow=classic;html=1;rounded=0;fontSize=15;" edge="1" parent="1" source="p4RgYQNxMF_yrCPV_QGR-223">
          <mxGeometry width="50" height="50" relative="1" as="geometry">
            <mxPoint x="3670" y="3690" as="sourcePoint" />
            <mxPoint x="3720" y="3640" as="targetPoint" />
          </mxGeometry>
        </mxCell>
        <mxCell id="p4RgYQNxMF_yrCPV_QGR-240" value="" style="endArrow=classic;html=1;rounded=0;fontSize=15;" edge="1" parent="1" source="p4RgYQNxMF_yrCPV_QGR-226" target="p4RgYQNxMF_yrCPV_QGR-214">
          <mxGeometry width="50" height="50" relative="1" as="geometry">
            <mxPoint x="3450" y="3970" as="sourcePoint" />
            <mxPoint x="3500" y="3920" as="targetPoint" />
          </mxGeometry>
        </mxCell>
        <mxCell id="p4RgYQNxMF_yrCPV_QGR-241" value="Unggah" style="endArrow=classic;html=1;rounded=0;fontSize=15;" edge="1" parent="1" source="p4RgYQNxMF_yrCPV_QGR-215" target="p4RgYQNxMF_yrCPV_QGR-228">
          <mxGeometry width="50" height="50" relative="1" as="geometry">
            <mxPoint x="3450" y="4220" as="sourcePoint" />
            <mxPoint x="3500" y="4170" as="targetPoint" />
            <mxPoint as="offset" />
          </mxGeometry>
        </mxCell>
        <mxCell id="p4RgYQNxMF_yrCPV_QGR-242" value="" style="ellipse;whiteSpace=wrap;html=1;aspect=fixed;fontSize=15;" vertex="1" parent="1">
          <mxGeometry x="4860" y="3160" width="40" height="40" as="geometry" />
        </mxCell>
        <mxCell id="p4RgYQNxMF_yrCPV_QGR-243" value="Admin" style="swimlane;whiteSpace=wrap;html=1;fontSize=15;" vertex="1" parent="1">
          <mxGeometry x="4680" y="3100" width="360" height="1820" as="geometry" />
        </mxCell>
        <mxCell id="p4RgYQNxMF_yrCPV_QGR-244" value="Mengakses&amp;nbsp;&lt;span style=&quot;background-color: initial; font-size: 15px;&quot;&gt;halaman Akun Admin&lt;/span&gt;" style="rounded=1;whiteSpace=wrap;html=1;fontSize=15;" vertex="1" parent="p4RgYQNxMF_yrCPV_QGR-243">
          <mxGeometry x="120" y="180" width="160" height="80" as="geometry" />
        </mxCell>
        <mxCell id="p4RgYQNxMF_yrCPV_QGR-245" value="Memilih&lt;div style=&quot;font-size: 15px;&quot;&gt;tombol aksi&lt;/div&gt;" style="rounded=1;whiteSpace=wrap;html=1;fontSize=15;" vertex="1" parent="p4RgYQNxMF_yrCPV_QGR-243">
          <mxGeometry x="120" y="340" width="160" height="80" as="geometry" />
        </mxCell>
        <mxCell id="p4RgYQNxMF_yrCPV_QGR-246" value="" style="rhombus;whiteSpace=wrap;html=1;fontSize=15;" vertex="1" parent="p4RgYQNxMF_yrCPV_QGR-243">
          <mxGeometry x="160" y="500" width="80" height="80" as="geometry" />
        </mxCell>
        <mxCell id="p4RgYQNxMF_yrCPV_QGR-247" value="Memasukkan data" style="rounded=1;whiteSpace=wrap;html=1;fontSize=15;" vertex="1" parent="p4RgYQNxMF_yrCPV_QGR-243">
          <mxGeometry x="120" y="660" width="160" height="80" as="geometry" />
        </mxCell>
        <mxCell id="p4RgYQNxMF_yrCPV_QGR-248" value="" style="endArrow=classic;html=1;rounded=0;fontSize=15;" edge="1" parent="p4RgYQNxMF_yrCPV_QGR-243" source="p4RgYQNxMF_yrCPV_QGR-245" target="p4RgYQNxMF_yrCPV_QGR-246">
          <mxGeometry width="50" height="50" relative="1" as="geometry">
            <mxPoint x="380" y="580" as="sourcePoint" />
            <mxPoint x="430" y="530" as="targetPoint" />
          </mxGeometry>
        </mxCell>
        <mxCell id="p4RgYQNxMF_yrCPV_QGR-249" value="Memilih&lt;div style=&quot;font-size: 15px;&quot;&gt;tombol aksi&lt;/div&gt;" style="rounded=1;whiteSpace=wrap;html=1;fontSize=15;" vertex="1" parent="p4RgYQNxMF_yrCPV_QGR-243">
          <mxGeometry x="120" y="820" width="160" height="80" as="geometry" />
        </mxCell>
        <mxCell id="p4RgYQNxMF_yrCPV_QGR-250" value="" style="rhombus;whiteSpace=wrap;html=1;fontSize=15;" vertex="1" parent="p4RgYQNxMF_yrCPV_QGR-243">
          <mxGeometry x="160" y="980" width="80" height="80" as="geometry" />
        </mxCell>
        <mxCell id="p4RgYQNxMF_yrCPV_QGR-251" value="" style="endArrow=classic;html=1;rounded=0;fontSize=15;" edge="1" parent="p4RgYQNxMF_yrCPV_QGR-243" source="p4RgYQNxMF_yrCPV_QGR-249" target="p4RgYQNxMF_yrCPV_QGR-250">
          <mxGeometry width="50" height="50" relative="1" as="geometry">
            <mxPoint x="190" y="810" as="sourcePoint" />
            <mxPoint x="240" y="760" as="targetPoint" />
          </mxGeometry>
        </mxCell>
        <mxCell id="p4RgYQNxMF_yrCPV_QGR-252" value="" style="endArrow=classic;html=1;rounded=0;fontSize=15;" edge="1" parent="p4RgYQNxMF_yrCPV_QGR-243" source="p4RgYQNxMF_yrCPV_QGR-247" target="p4RgYQNxMF_yrCPV_QGR-249">
          <mxGeometry width="50" height="50" relative="1" as="geometry">
            <mxPoint x="130" y="780" as="sourcePoint" />
            <mxPoint x="220" y="690" as="targetPoint" />
          </mxGeometry>
        </mxCell>
        <mxCell id="p4RgYQNxMF_yrCPV_QGR-255" value="Start" style="endArrow=classic;html=1;rounded=0;fontSize=15;" edge="1" parent="1" source="p4RgYQNxMF_yrCPV_QGR-242" target="p4RgYQNxMF_yrCPV_QGR-244">
          <mxGeometry width="50" height="50" relative="1" as="geometry">
            <mxPoint x="5170" y="3450" as="sourcePoint" />
            <mxPoint x="5200" y="3180" as="targetPoint" />
          </mxGeometry>
        </mxCell>
        <mxCell id="p4RgYQNxMF_yrCPV_QGR-256" value="Sistem" style="swimlane;whiteSpace=wrap;html=1;fontSize=15;" vertex="1" parent="1">
          <mxGeometry x="5040" y="3100" width="280" height="1820" as="geometry" />
        </mxCell>
        <mxCell id="p4RgYQNxMF_yrCPV_QGR-257" value="Menampilkan&lt;div style=&quot;font-size: 15px;&quot;&gt;halaman Akun Admin&lt;/div&gt;" style="rounded=1;whiteSpace=wrap;html=1;fontSize=15;" vertex="1" parent="p4RgYQNxMF_yrCPV_QGR-256">
          <mxGeometry x="40" y="180" width="160" height="80" as="geometry" />
        </mxCell>
        <mxCell id="p4RgYQNxMF_yrCPV_QGR-258" value="Menampilkan form tambah admin" style="rounded=1;whiteSpace=wrap;html=1;fontSize=15;" vertex="1" parent="p4RgYQNxMF_yrCPV_QGR-256">
          <mxGeometry x="40" y="500" width="160" height="80" as="geometry" />
        </mxCell>
        <mxCell id="p4RgYQNxMF_yrCPV_QGR-261" value="" style="endArrow=classic;html=1;rounded=0;fontSize=15;" edge="1" parent="p4RgYQNxMF_yrCPV_QGR-256" source="p4RgYQNxMF_yrCPV_QGR-259" target="p4RgYQNxMF_yrCPV_QGR-260">
          <mxGeometry width="50" height="50" relative="1" as="geometry">
            <mxPoint x="-140" y="770" as="sourcePoint" />
            <mxPoint x="-90" y="720" as="targetPoint" />
          </mxGeometry>
        </mxCell>
        <mxCell id="p4RgYQNxMF_yrCPV_QGR-263" value="End" style="endArrow=classic;html=1;rounded=0;fontSize=15;" edge="1" parent="p4RgYQNxMF_yrCPV_QGR-256" source="p4RgYQNxMF_yrCPV_QGR-260" target="p4RgYQNxMF_yrCPV_QGR-262">
          <mxGeometry width="50" height="50" relative="1" as="geometry">
            <mxPoint x="170" y="1090" as="sourcePoint" />
            <mxPoint x="430" y="880" as="targetPoint" />
          </mxGeometry>
        </mxCell>
        <mxCell id="p4RgYQNxMF_yrCPV_QGR-264" value="Validasi data" style="rounded=1;whiteSpace=wrap;html=1;fontSize=15;" vertex="1" parent="p4RgYQNxMF_yrCPV_QGR-256">
          <mxGeometry x="40" y="1100" width="160" height="80" as="geometry" />
        </mxCell>
        <mxCell id="p4RgYQNxMF_yrCPV_QGR-274" value="" style="rhombus;whiteSpace=wrap;html=1;fontSize=15;" vertex="1" parent="p4RgYQNxMF_yrCPV_QGR-256">
          <mxGeometry x="80" y="1260" width="80" height="80" as="geometry" />
        </mxCell>
        <mxCell id="p4RgYQNxMF_yrCPV_QGR-275" value="" style="endArrow=classic;html=1;rounded=0;fontSize=15;" edge="1" parent="p4RgYQNxMF_yrCPV_QGR-256" source="p4RgYQNxMF_yrCPV_QGR-264" target="p4RgYQNxMF_yrCPV_QGR-274">
          <mxGeometry width="50" height="50" relative="1" as="geometry">
            <mxPoint x="-350" y="1090" as="sourcePoint" />
            <mxPoint x="-300" y="1040" as="targetPoint" />
          </mxGeometry>
        </mxCell>
        <mxCell id="p4RgYQNxMF_yrCPV_QGR-259" value="Menyimpan data" style="rounded=1;whiteSpace=wrap;html=1;fontSize=15;" vertex="1" parent="p4RgYQNxMF_yrCPV_QGR-256">
          <mxGeometry x="40" y="1420" width="160" height="80" as="geometry" />
        </mxCell>
        <mxCell id="p4RgYQNxMF_yrCPV_QGR-253" value="Menghapus data" style="rounded=1;whiteSpace=wrap;html=1;fontSize=15;" vertex="1" parent="p4RgYQNxMF_yrCPV_QGR-256">
          <mxGeometry x="-240" y="1580" width="160" height="80" as="geometry" />
        </mxCell>
        <mxCell id="p4RgYQNxMF_yrCPV_QGR-270" value="" style="endArrow=classic;html=1;rounded=0;fontSize=15;" edge="1" parent="p4RgYQNxMF_yrCPV_QGR-256" source="p4RgYQNxMF_yrCPV_QGR-253" target="p4RgYQNxMF_yrCPV_QGR-260">
          <mxGeometry width="50" height="50" relative="1" as="geometry">
            <mxPoint x="-190" y="720" as="sourcePoint" />
            <mxPoint x="-140" y="670" as="targetPoint" />
          </mxGeometry>
        </mxCell>
        <mxCell id="p4RgYQNxMF_yrCPV_QGR-260" value="Menampilkan&lt;div style=&quot;font-size: 15px;&quot;&gt;update data&lt;/div&gt;" style="rounded=1;whiteSpace=wrap;html=1;fontSize=15;" vertex="1" parent="p4RgYQNxMF_yrCPV_QGR-256">
          <mxGeometry x="40" y="1580" width="160" height="80" as="geometry" />
        </mxCell>
        <mxCell id="p4RgYQNxMF_yrCPV_QGR-262" value="" style="ellipse;html=1;shape=endState;fillColor=#000000;fontSize=15;" vertex="1" parent="p4RgYQNxMF_yrCPV_QGR-256">
          <mxGeometry x="100" y="1740" width="40" height="40" as="geometry" />
        </mxCell>
        <mxCell id="p4RgYQNxMF_yrCPV_QGR-277" value="Valid" style="endArrow=classic;html=1;rounded=0;fontSize=15;" edge="1" parent="p4RgYQNxMF_yrCPV_QGR-256" source="p4RgYQNxMF_yrCPV_QGR-274" target="p4RgYQNxMF_yrCPV_QGR-259">
          <mxGeometry width="50" height="50" relative="1" as="geometry">
            <mxPoint x="-350" y="1370" as="sourcePoint" />
            <mxPoint x="-300" y="1320" as="targetPoint" />
          </mxGeometry>
        </mxCell>
        <mxCell id="p4RgYQNxMF_yrCPV_QGR-266" value="Kelola Akun Admin" style="text;html=1;align=center;verticalAlign=middle;whiteSpace=wrap;rounded=0;fontSize=25;" vertex="1" parent="1">
          <mxGeometry x="4680" y="3040" width="640" height="40" as="geometry" />
        </mxCell>
        <mxCell id="p4RgYQNxMF_yrCPV_QGR-267" value="" style="endArrow=classic;html=1;rounded=0;fontSize=15;" edge="1" parent="1" source="p4RgYQNxMF_yrCPV_QGR-244" target="p4RgYQNxMF_yrCPV_QGR-257">
          <mxGeometry width="50" height="50" relative="1" as="geometry">
            <mxPoint x="5100" y="3380" as="sourcePoint" />
            <mxPoint x="5150" y="3330" as="targetPoint" />
          </mxGeometry>
        </mxCell>
        <mxCell id="p4RgYQNxMF_yrCPV_QGR-268" value="Tambah&lt;div style=&quot;font-size: 15px;&quot;&gt;Admin&lt;/div&gt;" style="endArrow=classic;html=1;rounded=0;fontSize=15;" edge="1" parent="1" source="p4RgYQNxMF_yrCPV_QGR-246" target="p4RgYQNxMF_yrCPV_QGR-258">
          <mxGeometry width="50" height="50" relative="1" as="geometry">
            <mxPoint x="4850" y="3670" as="sourcePoint" />
            <mxPoint x="4900" y="3620" as="targetPoint" />
          </mxGeometry>
        </mxCell>
        <mxCell id="p4RgYQNxMF_yrCPV_QGR-269" value="" style="endArrow=classic;html=1;rounded=0;fontSize=15;" edge="1" parent="1" source="p4RgYQNxMF_yrCPV_QGR-258" target="p4RgYQNxMF_yrCPV_QGR-247">
          <mxGeometry width="50" height="50" relative="1" as="geometry">
            <mxPoint x="4850" y="3670" as="sourcePoint" />
            <mxPoint x="4900" y="3620" as="targetPoint" />
            <Array as="points">
              <mxPoint x="5160" y="3800" />
            </Array>
          </mxGeometry>
        </mxCell>
        <mxCell id="p4RgYQNxMF_yrCPV_QGR-271" value="" style="endArrow=classic;html=1;rounded=0;fontSize=15;" edge="1" parent="1" source="p4RgYQNxMF_yrCPV_QGR-257" target="p4RgYQNxMF_yrCPV_QGR-245">
          <mxGeometry width="50" height="50" relative="1" as="geometry">
            <mxPoint x="4880" y="3360" as="sourcePoint" />
            <mxPoint x="5110" y="3450" as="targetPoint" />
            <Array as="points">
              <mxPoint x="5160" y="3400" />
              <mxPoint x="4880" y="3400" />
            </Array>
          </mxGeometry>
        </mxCell>
        <mxCell id="p4RgYQNxMF_yrCPV_QGR-272" value="Simpan" style="endArrow=classic;html=1;rounded=0;fontSize=15;" edge="1" parent="1" source="p4RgYQNxMF_yrCPV_QGR-250" target="p4RgYQNxMF_yrCPV_QGR-264">
          <mxGeometry x="0.2857" width="50" height="50" relative="1" as="geometry">
            <mxPoint x="4790" y="4220" as="sourcePoint" />
            <mxPoint x="4840" y="4170" as="targetPoint" />
            <Array as="points">
              <mxPoint x="4880" y="4240" />
            </Array>
            <mxPoint as="offset" />
          </mxGeometry>
        </mxCell>
        <mxCell id="p4RgYQNxMF_yrCPV_QGR-273" value="Batalkan" style="endArrow=classic;html=1;rounded=0;fontSize=15;" edge="1" parent="1" source="p4RgYQNxMF_yrCPV_QGR-250" target="p4RgYQNxMF_yrCPV_QGR-257">
          <mxGeometry x="-0.7" width="50" height="50" relative="1" as="geometry">
            <mxPoint x="4850" y="4060" as="sourcePoint" />
            <mxPoint x="4900" y="4010" as="targetPoint" />
            <Array as="points">
              <mxPoint x="5280" y="4120" />
              <mxPoint x="5280" y="3320" />
            </Array>
            <mxPoint as="offset" />
          </mxGeometry>
        </mxCell>
        <mxCell id="p4RgYQNxMF_yrCPV_QGR-276" value="Tidak Valid" style="endArrow=classic;html=1;rounded=0;fontSize=15;" edge="1" parent="1" source="p4RgYQNxMF_yrCPV_QGR-274" target="p4RgYQNxMF_yrCPV_QGR-247">
          <mxGeometry x="-0.64" width="50" height="50" relative="1" as="geometry">
            <mxPoint x="4690" y="4330" as="sourcePoint" />
            <mxPoint x="4740" y="4280" as="targetPoint" />
            <Array as="points">
              <mxPoint x="4760" y="4400" />
              <mxPoint x="4760" y="3800" />
            </Array>
            <mxPoint as="offset" />
          </mxGeometry>
        </mxCell>
        <mxCell id="p4RgYQNxMF_yrCPV_QGR-254" value="Hapus&lt;div style=&quot;font-size: 15px;&quot;&gt;Akun&lt;/div&gt;" style="endArrow=classic;html=1;rounded=0;fontSize=15;" edge="1" parent="1" source="p4RgYQNxMF_yrCPV_QGR-246" target="p4RgYQNxMF_yrCPV_QGR-253">
          <mxGeometry x="-0.9062" width="50" height="50" relative="1" as="geometry">
            <mxPoint x="4850" y="3820" as="sourcePoint" />
            <mxPoint x="4900" y="3770" as="targetPoint" />
            <Array as="points">
              <mxPoint x="4720" y="3640" />
              <mxPoint x="4720" y="4720" />
            </Array>
            <mxPoint as="offset" />
          </mxGeometry>
        </mxCell>
        <mxCell id="p4RgYQNxMF_yrCPV_QGR-341" value="Beranda Dashboard Admin" style="text;html=1;align=center;verticalAlign=middle;whiteSpace=wrap;rounded=0;fontSize=25;" vertex="1" parent="1">
          <mxGeometry x="720" y="3040" width="760" height="40" as="geometry" />
        </mxCell>
        <mxCell id="p4RgYQNxMF_yrCPV_QGR-342" value="Admin" style="swimlane;whiteSpace=wrap;html=1;fontSize=15;" vertex="1" parent="1">
          <mxGeometry x="720" y="3100" width="480" height="1540" as="geometry" />
        </mxCell>
        <mxCell id="p4RgYQNxMF_yrCPV_QGR-343" value="Mengakses&amp;nbsp;&lt;span style=&quot;background-color: initial; font-size: 15px;&quot;&gt;halaman&lt;/span&gt;&lt;div style=&quot;font-size: 15px;&quot;&gt;Beranda Dashboard Admin&lt;br&gt;&lt;/div&gt;" style="rounded=1;whiteSpace=wrap;html=1;fontSize=15;" vertex="1" parent="p4RgYQNxMF_yrCPV_QGR-342">
          <mxGeometry x="40" y="180" width="160" height="80" as="geometry" />
        </mxCell>
        <mxCell id="p4RgYQNxMF_yrCPV_QGR-344" value="Memilih menu" style="rounded=1;whiteSpace=wrap;html=1;fontSize=15;" vertex="1" parent="p4RgYQNxMF_yrCPV_QGR-342">
          <mxGeometry x="40" y="340" width="160" height="80" as="geometry" />
        </mxCell>
        <mxCell id="p4RgYQNxMF_yrCPV_QGR-345" value="" style="ellipse;whiteSpace=wrap;html=1;aspect=fixed;fontSize=15;" vertex="1" parent="p4RgYQNxMF_yrCPV_QGR-342">
          <mxGeometry x="100" y="60" width="40" height="40" as="geometry" />
        </mxCell>
        <mxCell id="p4RgYQNxMF_yrCPV_QGR-346" value="Start" style="endArrow=classic;html=1;rounded=0;fontSize=15;" edge="1" parent="p4RgYQNxMF_yrCPV_QGR-342" source="p4RgYQNxMF_yrCPV_QGR-345" target="p4RgYQNxMF_yrCPV_QGR-343">
          <mxGeometry width="50" height="50" relative="1" as="geometry">
            <mxPoint x="650" y="350" as="sourcePoint" />
            <mxPoint x="680" y="80" as="targetPoint" />
          </mxGeometry>
        </mxCell>
        <mxCell id="p4RgYQNxMF_yrCPV_QGR-347" value="" style="rhombus;whiteSpace=wrap;html=1;fontSize=15;" vertex="1" parent="p4RgYQNxMF_yrCPV_QGR-342">
          <mxGeometry x="80" y="500" width="80" height="80" as="geometry" />
        </mxCell>
        <mxCell id="p4RgYQNxMF_yrCPV_QGR-348" value="" style="endArrow=classic;html=1;rounded=0;fontSize=15;" edge="1" parent="p4RgYQNxMF_yrCPV_QGR-342" source="p4RgYQNxMF_yrCPV_QGR-344" target="p4RgYQNxMF_yrCPV_QGR-347">
          <mxGeometry width="50" height="50" relative="1" as="geometry">
            <mxPoint x="120" y="390" as="sourcePoint" />
            <mxPoint x="170" y="340" as="targetPoint" />
          </mxGeometry>
        </mxCell>
        <mxCell id="p4RgYQNxMF_yrCPV_QGR-351" value="Memilih&lt;div style=&quot;font-size: 15px;&quot;&gt;tombol aksi&lt;/div&gt;" style="rounded=1;whiteSpace=wrap;html=1;fontSize=15;" vertex="1" parent="p4RgYQNxMF_yrCPV_QGR-342">
          <mxGeometry x="40" y="660" width="160" height="80" as="geometry" />
        </mxCell>
        <mxCell id="p4RgYQNxMF_yrCPV_QGR-352" value="Memverifikasi&lt;div style=&quot;font-size: 15px;&quot;&gt;status&lt;/div&gt;" style="endArrow=classic;html=1;rounded=0;fontSize=15;" edge="1" parent="p4RgYQNxMF_yrCPV_QGR-342" source="p4RgYQNxMF_yrCPV_QGR-347" target="p4RgYQNxMF_yrCPV_QGR-351">
          <mxGeometry width="50" height="50" relative="1" as="geometry">
            <mxPoint x="140" y="530" as="sourcePoint" />
            <mxPoint x="190" y="480" as="targetPoint" />
            <Array as="points" />
          </mxGeometry>
        </mxCell>
        <mxCell id="p4RgYQNxMF_yrCPV_QGR-353" value="" style="rhombus;whiteSpace=wrap;html=1;fontSize=15;" vertex="1" parent="p4RgYQNxMF_yrCPV_QGR-342">
          <mxGeometry x="80" y="820" width="80" height="80" as="geometry" />
        </mxCell>
        <mxCell id="p4RgYQNxMF_yrCPV_QGR-354" value="" style="endArrow=classic;html=1;rounded=0;fontSize=15;" edge="1" parent="p4RgYQNxMF_yrCPV_QGR-342" source="p4RgYQNxMF_yrCPV_QGR-351" target="p4RgYQNxMF_yrCPV_QGR-353">
          <mxGeometry width="50" height="50" relative="1" as="geometry">
            <mxPoint x="600" y="740" as="sourcePoint" />
            <mxPoint x="170" y="790" as="targetPoint" />
          </mxGeometry>
        </mxCell>
        <mxCell id="p4RgYQNxMF_yrCPV_QGR-355" value="Sistem" style="swimlane;whiteSpace=wrap;html=1;fontSize=15;" vertex="1" parent="1">
          <mxGeometry x="1200" y="3100" width="280" height="1540" as="geometry" />
        </mxCell>
        <mxCell id="p4RgYQNxMF_yrCPV_QGR-356" value="Menampilkan&lt;div style=&quot;font-size: 15px;&quot;&gt;halaman&amp;nbsp;&lt;span style=&quot;background-color: initial;&quot;&gt;Beranda Dashboard Admin&lt;/span&gt;&lt;/div&gt;" style="rounded=1;whiteSpace=wrap;html=1;fontSize=15;" vertex="1" parent="p4RgYQNxMF_yrCPV_QGR-355">
          <mxGeometry x="40" y="180" width="160" height="80" as="geometry" />
        </mxCell>
        <mxCell id="p4RgYQNxMF_yrCPV_QGR-357" value="" style="ellipse;html=1;shape=endState;fillColor=#000000;fontSize=15;" vertex="1" parent="p4RgYQNxMF_yrCPV_QGR-355">
          <mxGeometry x="100" y="1460" width="40" height="40" as="geometry" />
        </mxCell>
        <mxCell id="p4RgYQNxMF_yrCPV_QGR-358" value="End" style="endArrow=classic;html=1;rounded=0;fontSize=15;" edge="1" parent="p4RgYQNxMF_yrCPV_QGR-355" source="p4RgYQNxMF_yrCPV_QGR-363" target="p4RgYQNxMF_yrCPV_QGR-357">
          <mxGeometry width="50" height="50" relative="1" as="geometry">
            <mxPoint x="120" y="1380" as="sourcePoint" />
            <mxPoint x="380" y="1170" as="targetPoint" />
          </mxGeometry>
        </mxCell>
        <mxCell id="p4RgYQNxMF_yrCPV_QGR-359" value="Mengubah status menjadi Verifying" style="rounded=1;whiteSpace=wrap;html=1;fontSize=15;" vertex="1" parent="p4RgYQNxMF_yrCPV_QGR-355">
          <mxGeometry x="40" y="980" width="160" height="80" as="geometry" />
        </mxCell>
        <mxCell id="p4RgYQNxMF_yrCPV_QGR-360" value="Mengubah status menjadi Not Verifying" style="rounded=1;whiteSpace=wrap;html=1;fontSize=15;" vertex="1" parent="p4RgYQNxMF_yrCPV_QGR-355">
          <mxGeometry x="40" y="820" width="160" height="80" as="geometry" />
        </mxCell>
        <mxCell id="p4RgYQNxMF_yrCPV_QGR-361" value="Menampilkan&lt;div&gt;halaman&amp;nbsp;&lt;span style=&quot;background-color: initial;&quot;&gt;Data&lt;/span&gt;&lt;/div&gt;&lt;div&gt;&lt;span style=&quot;background-color: initial;&quot;&gt;Pelamar&lt;/span&gt;&lt;/div&gt;" style="rounded=1;whiteSpace=wrap;html=1;fontSize=15;" vertex="1" parent="p4RgYQNxMF_yrCPV_QGR-355">
          <mxGeometry x="40" y="500" width="160" height="80" as="geometry" />
        </mxCell>
        <mxCell id="p4RgYQNxMF_yrCPV_QGR-362" value="Menyimpan data" style="rounded=1;whiteSpace=wrap;html=1;fontSize=15;" vertex="1" parent="p4RgYQNxMF_yrCPV_QGR-355">
          <mxGeometry x="40" y="1140" width="160" height="80" as="geometry" />
        </mxCell>
        <mxCell id="p4RgYQNxMF_yrCPV_QGR-363" value="Menampilkan&lt;div style=&quot;font-size: 15px;&quot;&gt;update status&lt;/div&gt;" style="rounded=1;whiteSpace=wrap;html=1;fontSize=15;" vertex="1" parent="p4RgYQNxMF_yrCPV_QGR-355">
          <mxGeometry x="40" y="1300" width="160" height="80" as="geometry" />
        </mxCell>
        <mxCell id="p4RgYQNxMF_yrCPV_QGR-364" value="" style="endArrow=classic;html=1;rounded=0;fontSize=15;" edge="1" parent="p4RgYQNxMF_yrCPV_QGR-355" source="p4RgYQNxMF_yrCPV_QGR-362" target="p4RgYQNxMF_yrCPV_QGR-363">
          <mxGeometry width="50" height="50" relative="1" as="geometry">
            <mxPoint x="120" y="1280" as="sourcePoint" />
            <mxPoint x="170" y="1230" as="targetPoint" />
          </mxGeometry>
        </mxCell>
        <mxCell id="p4RgYQNxMF_yrCPV_QGR-365" value="" style="endArrow=classic;html=1;rounded=0;fontSize=15;" edge="1" parent="p4RgYQNxMF_yrCPV_QGR-355" source="p4RgYQNxMF_yrCPV_QGR-359" target="p4RgYQNxMF_yrCPV_QGR-362">
          <mxGeometry width="50" height="50" relative="1" as="geometry">
            <mxPoint x="130" y="1280" as="sourcePoint" />
            <mxPoint x="130" y="1140" as="targetPoint" />
            <Array as="points" />
          </mxGeometry>
        </mxCell>
        <mxCell id="p4RgYQNxMF_yrCPV_QGR-366" value="" style="endArrow=classic;html=1;rounded=0;startArrow=none;startFill=0;endFill=1;fontSize=15;" edge="1" parent="p4RgYQNxMF_yrCPV_QGR-355" source="p4RgYQNxMF_yrCPV_QGR-360" target="p4RgYQNxMF_yrCPV_QGR-362">
          <mxGeometry width="50" height="50" relative="1" as="geometry">
            <mxPoint x="130" y="1280" as="sourcePoint" />
            <mxPoint x="210" y="1180" as="targetPoint" />
            <Array as="points">
              <mxPoint x="240" y="860" />
              <mxPoint x="240" y="1180" />
            </Array>
          </mxGeometry>
        </mxCell>
        <mxCell id="p4RgYQNxMF_yrCPV_QGR-368" value="" style="endArrow=classic;html=1;rounded=0;fontSize=15;" edge="1" parent="1" source="p4RgYQNxMF_yrCPV_QGR-343" target="p4RgYQNxMF_yrCPV_QGR-356">
          <mxGeometry width="50" height="50" relative="1" as="geometry">
            <mxPoint x="1270" y="3380" as="sourcePoint" />
            <mxPoint x="1320" y="3330" as="targetPoint" />
          </mxGeometry>
        </mxCell>
        <mxCell id="p4RgYQNxMF_yrCPV_QGR-369" value="" style="endArrow=classic;html=1;rounded=0;fontSize=15;" edge="1" parent="1" source="p4RgYQNxMF_yrCPV_QGR-356" target="p4RgYQNxMF_yrCPV_QGR-344">
          <mxGeometry width="50" height="50" relative="1" as="geometry">
            <mxPoint x="1180" y="3330" as="sourcePoint" />
            <mxPoint x="1260" y="3330" as="targetPoint" />
            <Array as="points">
              <mxPoint x="1320" y="3400" />
              <mxPoint x="840" y="3400" />
            </Array>
          </mxGeometry>
        </mxCell>
        <mxCell id="p4RgYQNxMF_yrCPV_QGR-371" value="Terima" style="endArrow=classic;html=1;rounded=0;fontSize=15;" edge="1" parent="1" source="p4RgYQNxMF_yrCPV_QGR-353" target="p4RgYQNxMF_yrCPV_QGR-359">
          <mxGeometry x="0.2308" width="50" height="50" relative="1" as="geometry">
            <mxPoint x="850" y="3940" as="sourcePoint" />
            <mxPoint x="900" y="3890" as="targetPoint" />
            <Array as="points">
              <mxPoint x="840" y="4120" />
            </Array>
            <mxPoint as="offset" />
          </mxGeometry>
        </mxCell>
        <mxCell id="p4RgYQNxMF_yrCPV_QGR-372" value="Tolak" style="endArrow=classic;html=1;rounded=0;fontSize=15;" edge="1" parent="1" source="p4RgYQNxMF_yrCPV_QGR-353" target="p4RgYQNxMF_yrCPV_QGR-360">
          <mxGeometry width="50" height="50" relative="1" as="geometry">
            <mxPoint x="1410" y="4160" as="sourcePoint" />
            <mxPoint x="1460" y="4110" as="targetPoint" />
            <Array as="points" />
          </mxGeometry>
        </mxCell>
        <mxCell id="p4RgYQNxMF_yrCPV_QGR-350" value="Lihat&lt;div&gt;Selengkapnya&lt;/div&gt;" style="endArrow=classic;html=1;rounded=0;fontSize=15;" edge="1" parent="1" source="p4RgYQNxMF_yrCPV_QGR-347" target="p4RgYQNxMF_yrCPV_QGR-361">
          <mxGeometry width="50" height="50" relative="1" as="geometry">
            <mxPoint x="880" y="3640" as="sourcePoint" />
            <mxPoint x="1000" y="3640" as="targetPoint" />
          </mxGeometry>
        </mxCell>
      </root>
    </mxGraphModel>
  </diagram>
  <diagram id="TxXv6VRp5jR31rUpoE-x" name="Page-3">
    <mxGraphModel dx="927" dy="1153" grid="1" gridSize="10" guides="1" tooltips="1" connect="1" arrows="1" fold="1" page="1" pageScale="1" pageWidth="850" pageHeight="1100" math="0" shadow="0">
      <root>
        <mxCell id="0" />
        <mxCell id="1" parent="0" />
        <mxCell id="DmDW6QgHfBVeKbV9XOSL-37" value="" style="ellipse;whiteSpace=wrap;html=1;aspect=fixed;fontSize=15;" vertex="1" parent="1">
          <mxGeometry x="1540" y="200" width="40" height="40" as="geometry" />
        </mxCell>
        <mxCell id="DmDW6QgHfBVeKbV9XOSL-38" value="Pengguna" style="swimlane;whiteSpace=wrap;html=1;fontSize=15;" vertex="1" parent="1">
          <mxGeometry x="1400" y="140" width="280" height="2500" as="geometry" />
        </mxCell>
        <mxCell id="DmDW6QgHfBVeKbV9XOSL-39" value="Mengakses halaman Daftar Magang" style="rounded=1;whiteSpace=wrap;html=1;fontSize=15;" vertex="1" parent="DmDW6QgHfBVeKbV9XOSL-38">
          <mxGeometry x="80" y="180" width="160" height="80" as="geometry" />
        </mxCell>
        <mxCell id="DmDW6QgHfBVeKbV9XOSL-40" value="Menekan tombol&lt;div style=&quot;font-size: 15px;&quot;&gt;Daftar Magang&lt;/div&gt;" style="rounded=1;whiteSpace=wrap;html=1;fontSize=15;" vertex="1" parent="DmDW6QgHfBVeKbV9XOSL-38">
          <mxGeometry x="80" y="340" width="160" height="80" as="geometry" />
        </mxCell>
        <mxCell id="DmDW6QgHfBVeKbV9XOSL-41" value="Menekan tombol Selanjutnya" style="rounded=1;whiteSpace=wrap;html=1;fontSize=15;" vertex="1" parent="DmDW6QgHfBVeKbV9XOSL-38">
          <mxGeometry x="80" y="820" width="160" height="80" as="geometry" />
        </mxCell>
        <mxCell id="DmDW6QgHfBVeKbV9XOSL-42" value="&lt;div style=&quot;font-size: 15px;&quot;&gt;Memasukkan file&lt;/div&gt;&lt;div style=&quot;font-size: 15px;&quot;&gt;yang diperlukan&lt;/div&gt;" style="rounded=1;whiteSpace=wrap;html=1;fontSize=15;" vertex="1" parent="DmDW6QgHfBVeKbV9XOSL-38">
          <mxGeometry x="80" y="1140" width="160" height="80" as="geometry" />
        </mxCell>
        <mxCell id="DmDW6QgHfBVeKbV9XOSL-43" value="Start" style="endArrow=classic;html=1;rounded=0;fontSize=15;" edge="1" parent="1" source="DmDW6QgHfBVeKbV9XOSL-37" target="DmDW6QgHfBVeKbV9XOSL-39">
          <mxGeometry width="50" height="50" relative="1" as="geometry">
            <mxPoint x="1810" y="810" as="sourcePoint" />
            <mxPoint x="1840" y="540" as="targetPoint" />
          </mxGeometry>
        </mxCell>
        <mxCell id="DmDW6QgHfBVeKbV9XOSL-44" value="Sistem" style="swimlane;whiteSpace=wrap;html=1;fontSize=15;" vertex="1" parent="1">
          <mxGeometry x="1680" y="140" width="400" height="2500" as="geometry" />
        </mxCell>
        <mxCell id="DmDW6QgHfBVeKbV9XOSL-45" value="Menampilkan halaman Form Pendaftaran 1" style="rounded=1;whiteSpace=wrap;html=1;fontSize=15;" vertex="1" parent="DmDW6QgHfBVeKbV9XOSL-44">
          <mxGeometry x="40" y="660" width="160" height="80" as="geometry" />
        </mxCell>
        <mxCell id="DmDW6QgHfBVeKbV9XOSL-46" value="Memilih opsi Ketersediaan Penempatan" style="rounded=1;whiteSpace=wrap;html=1;fontSize=15;" vertex="1" parent="DmDW6QgHfBVeKbV9XOSL-44">
          <mxGeometry x="-200" y="660" width="160" height="80" as="geometry" />
        </mxCell>
        <mxCell id="DmDW6QgHfBVeKbV9XOSL-47" value="Menampilkan halaman Daftar Magang" style="rounded=1;whiteSpace=wrap;html=1;fontSize=15;" vertex="1" parent="DmDW6QgHfBVeKbV9XOSL-44">
          <mxGeometry x="40" y="180" width="160" height="80" as="geometry" />
        </mxCell>
        <mxCell id="DmDW6QgHfBVeKbV9XOSL-49" value="Menampilkan halaman Form Pendaftaran 2" style="rounded=1;whiteSpace=wrap;html=1;fontSize=15;" vertex="1" parent="DmDW6QgHfBVeKbV9XOSL-44">
          <mxGeometry x="40" y="1140" width="160" height="80" as="geometry" />
        </mxCell>
        <mxCell id="DmDW6QgHfBVeKbV9XOSL-50" value="Menyimpan data" style="rounded=1;whiteSpace=wrap;html=1;fontSize=15;" vertex="1" parent="DmDW6QgHfBVeKbV9XOSL-44">
          <mxGeometry x="40" y="2100" width="160" height="80" as="geometry" />
        </mxCell>
        <mxCell id="DmDW6QgHfBVeKbV9XOSL-51" value="" style="rhombus;whiteSpace=wrap;html=1;fontSize=15;" vertex="1" parent="DmDW6QgHfBVeKbV9XOSL-44">
          <mxGeometry x="80" y="980" width="80" height="80" as="geometry" />
        </mxCell>
        <mxCell id="DmDW6QgHfBVeKbV9XOSL-52" value="Validasi input" style="rounded=1;whiteSpace=wrap;html=1;fontSize=15;" vertex="1" parent="DmDW6QgHfBVeKbV9XOSL-44">
          <mxGeometry x="40" y="820" width="160" height="80" as="geometry" />
        </mxCell>
        <mxCell id="DmDW6QgHfBVeKbV9XOSL-53" value="" style="endArrow=classic;html=1;rounded=0;" edge="1" parent="DmDW6QgHfBVeKbV9XOSL-44" source="DmDW6QgHfBVeKbV9XOSL-52" target="DmDW6QgHfBVeKbV9XOSL-51">
          <mxGeometry width="50" height="50" relative="1" as="geometry">
            <mxPoint x="-120" y="1080" as="sourcePoint" />
            <mxPoint x="-70" y="1030" as="targetPoint" />
          </mxGeometry>
        </mxCell>
        <mxCell id="DmDW6QgHfBVeKbV9XOSL-54" value="Belum Dipilih" style="endArrow=classic;html=1;rounded=0;" edge="1" parent="DmDW6QgHfBVeKbV9XOSL-44" source="DmDW6QgHfBVeKbV9XOSL-51" target="DmDW6QgHfBVeKbV9XOSL-46">
          <mxGeometry x="-0.5294" width="50" height="50" relative="1" as="geometry">
            <mxPoint x="-120" y="980" as="sourcePoint" />
            <mxPoint x="-70" y="930" as="targetPoint" />
            <Array as="points">
              <mxPoint x="-240" y="1020" />
              <mxPoint x="-240" y="700" />
            </Array>
            <mxPoint as="offset" />
          </mxGeometry>
        </mxCell>
        <mxCell id="DmDW6QgHfBVeKbV9XOSL-55" value="Sudah Dipilih" style="endArrow=classic;html=1;rounded=0;" edge="1" parent="DmDW6QgHfBVeKbV9XOSL-44" source="DmDW6QgHfBVeKbV9XOSL-51">
          <mxGeometry width="50" height="50" relative="1" as="geometry">
            <mxPoint x="10" y="1110" as="sourcePoint" />
            <mxPoint x="120" y="1140" as="targetPoint" />
            <mxPoint as="offset" />
          </mxGeometry>
        </mxCell>
        <mxCell id="DmDW6QgHfBVeKbV9XOSL-56" value="Validasi data" style="rounded=1;whiteSpace=wrap;html=1;fontSize=15;" vertex="1" parent="DmDW6QgHfBVeKbV9XOSL-44">
          <mxGeometry x="40" y="1300" width="160" height="80" as="geometry" />
        </mxCell>
        <mxCell id="DmDW6QgHfBVeKbV9XOSL-90" value="Melakukan Login" style="rounded=1;whiteSpace=wrap;html=1;fontSize=15;" vertex="1" parent="DmDW6QgHfBVeKbV9XOSL-44">
          <mxGeometry x="-200" y="500" width="160" height="80" as="geometry" />
        </mxCell>
        <mxCell id="DmDW6QgHfBVeKbV9XOSL-91" value="Autentikasi&lt;div style=&quot;font-size: 15px;&quot;&gt;Pengguna&lt;/div&gt;" style="rounded=1;whiteSpace=wrap;html=1;fontSize=15;" vertex="1" parent="DmDW6QgHfBVeKbV9XOSL-44">
          <mxGeometry x="40" y="340" width="160" height="80" as="geometry" />
        </mxCell>
        <mxCell id="DmDW6QgHfBVeKbV9XOSL-92" value="" style="rhombus;whiteSpace=wrap;html=1;fontSize=15;" vertex="1" parent="DmDW6QgHfBVeKbV9XOSL-44">
          <mxGeometry x="275" y="500" width="80" height="80" as="geometry" />
        </mxCell>
        <mxCell id="DmDW6QgHfBVeKbV9XOSL-93" value="Menampilkan&lt;div style=&quot;font-size: 15px;&quot;&gt;halaman Login&lt;/div&gt;" style="rounded=1;whiteSpace=wrap;html=1;fontSize=15;" vertex="1" parent="DmDW6QgHfBVeKbV9XOSL-44">
          <mxGeometry x="40" y="500" width="160" height="80" as="geometry" />
        </mxCell>
        <mxCell id="DmDW6QgHfBVeKbV9XOSL-94" value="Sudah&lt;div style=&quot;font-size: 15px;&quot;&gt;Login&lt;/div&gt;" style="endArrow=classic;html=1;rounded=0;fontSize=15;" edge="1" parent="DmDW6QgHfBVeKbV9XOSL-44" source="DmDW6QgHfBVeKbV9XOSL-92">
          <mxGeometry width="50" height="50" relative="1" as="geometry">
            <mxPoint x="30" y="570" as="sourcePoint" />
            <mxPoint x="200" y="700" as="targetPoint" />
            <Array as="points">
              <mxPoint x="315" y="700" />
            </Array>
          </mxGeometry>
        </mxCell>
        <mxCell id="DmDW6QgHfBVeKbV9XOSL-95" value="Belum&lt;div style=&quot;font-size: 15px;&quot;&gt;Login&lt;/div&gt;" style="endArrow=none;html=1;rounded=0;endFill=0;startArrow=classic;startFill=1;fontSize=15;" edge="1" parent="DmDW6QgHfBVeKbV9XOSL-44" source="DmDW6QgHfBVeKbV9XOSL-93" target="DmDW6QgHfBVeKbV9XOSL-92">
          <mxGeometry width="50" height="50" relative="1" as="geometry">
            <mxPoint x="30" y="570" as="sourcePoint" />
            <mxPoint x="80" y="520" as="targetPoint" />
            <Array as="points" />
          </mxGeometry>
        </mxCell>
        <mxCell id="DmDW6QgHfBVeKbV9XOSL-96" value="" style="endArrow=classic;html=1;rounded=0;fontSize=15;" edge="1" parent="DmDW6QgHfBVeKbV9XOSL-44" source="DmDW6QgHfBVeKbV9XOSL-91" target="DmDW6QgHfBVeKbV9XOSL-92">
          <mxGeometry width="50" height="50" relative="1" as="geometry">
            <mxPoint x="30" y="500" as="sourcePoint" />
            <mxPoint x="80" y="450" as="targetPoint" />
            <Array as="points">
              <mxPoint x="315" y="380" />
            </Array>
          </mxGeometry>
        </mxCell>
        <mxCell id="DmDW6QgHfBVeKbV9XOSL-97" value="" style="endArrow=classic;html=1;rounded=0;fontSize=15;" edge="1" parent="DmDW6QgHfBVeKbV9XOSL-44" source="DmDW6QgHfBVeKbV9XOSL-93" target="DmDW6QgHfBVeKbV9XOSL-90">
          <mxGeometry width="50" height="50" relative="1" as="geometry">
            <mxPoint x="30" y="590" as="sourcePoint" />
            <mxPoint x="80" y="540" as="targetPoint" />
          </mxGeometry>
        </mxCell>
        <mxCell id="DmDW6QgHfBVeKbV9XOSL-98" value="" style="endArrow=classic;html=1;rounded=0;fontSize=15;" edge="1" parent="DmDW6QgHfBVeKbV9XOSL-44" source="DmDW6QgHfBVeKbV9XOSL-90">
          <mxGeometry width="50" height="50" relative="1" as="geometry">
            <mxPoint x="30" y="590" as="sourcePoint" />
            <mxPoint x="120" y="660" as="targetPoint" />
            <Array as="points">
              <mxPoint x="-120" y="620" />
              <mxPoint x="120" y="620" />
            </Array>
          </mxGeometry>
        </mxCell>
        <mxCell id="DmDW6QgHfBVeKbV9XOSL-99" value="" style="endArrow=classic;html=1;rounded=0;" edge="1" parent="DmDW6QgHfBVeKbV9XOSL-44" source="DmDW6QgHfBVeKbV9XOSL-45" target="DmDW6QgHfBVeKbV9XOSL-46">
          <mxGeometry width="50" height="50" relative="1" as="geometry">
            <mxPoint x="-100" y="750" as="sourcePoint" />
            <mxPoint x="-50" y="700" as="targetPoint" />
          </mxGeometry>
        </mxCell>
        <mxCell id="DmDW6QgHfBVeKbV9XOSL-57" value="Pendaftaran Magang" style="text;html=1;align=center;verticalAlign=middle;whiteSpace=wrap;rounded=0;fontSize=25;" vertex="1" parent="1">
          <mxGeometry x="1400" y="80" width="680" height="40" as="geometry" />
        </mxCell>
        <mxCell id="DmDW6QgHfBVeKbV9XOSL-58" value="" style="endArrow=classic;html=1;rounded=0;fontSize=15;" edge="1" parent="1" source="DmDW6QgHfBVeKbV9XOSL-39" target="DmDW6QgHfBVeKbV9XOSL-47">
          <mxGeometry width="50" height="50" relative="1" as="geometry">
            <mxPoint x="1740" y="740" as="sourcePoint" />
            <mxPoint x="1790" y="690" as="targetPoint" />
          </mxGeometry>
        </mxCell>
        <mxCell id="DmDW6QgHfBVeKbV9XOSL-59" value="" style="endArrow=classic;html=1;rounded=0;fontSize=15;" edge="1" parent="1" source="DmDW6QgHfBVeKbV9XOSL-47" target="DmDW6QgHfBVeKbV9XOSL-40">
          <mxGeometry width="50" height="50" relative="1" as="geometry">
            <mxPoint x="1650" y="690" as="sourcePoint" />
            <mxPoint x="1730" y="690" as="targetPoint" />
            <Array as="points">
              <mxPoint x="1800" y="440" />
              <mxPoint x="1560" y="440" />
            </Array>
          </mxGeometry>
        </mxCell>
        <mxCell id="DmDW6QgHfBVeKbV9XOSL-60" value="" style="endArrow=classic;html=1;rounded=0;fontSize=15;" edge="1" parent="1" source="DmDW6QgHfBVeKbV9XOSL-40" target="DmDW6QgHfBVeKbV9XOSL-91">
          <mxGeometry width="50" height="50" relative="1" as="geometry">
            <mxPoint x="1660" y="700" as="sourcePoint" />
            <mxPoint x="1740" y="700" as="targetPoint" />
          </mxGeometry>
        </mxCell>
        <mxCell id="DmDW6QgHfBVeKbV9XOSL-61" value="End" style="endArrow=classic;html=1;rounded=0;fontSize=15;" edge="1" parent="1" source="DmDW6QgHfBVeKbV9XOSL-67" target="DmDW6QgHfBVeKbV9XOSL-62">
          <mxGeometry width="50" height="50" relative="1" as="geometry">
            <mxPoint x="1280" y="1870" as="sourcePoint" />
            <mxPoint x="1280" y="2000" as="targetPoint" />
          </mxGeometry>
        </mxCell>
        <mxCell id="DmDW6QgHfBVeKbV9XOSL-62" value="" style="ellipse;html=1;shape=endState;fillColor=#000000;fontSize=15;" vertex="1" parent="1">
          <mxGeometry x="1780" y="2560" width="40" height="40" as="geometry" />
        </mxCell>
        <mxCell id="DmDW6QgHfBVeKbV9XOSL-63" value="" style="endArrow=classic;html=1;rounded=0;fontSize=15;" edge="1" parent="1" source="DmDW6QgHfBVeKbV9XOSL-46" target="DmDW6QgHfBVeKbV9XOSL-41">
          <mxGeometry width="50" height="50" relative="1" as="geometry">
            <mxPoint x="1680" y="560" as="sourcePoint" />
            <mxPoint x="1720" y="840" as="targetPoint" />
          </mxGeometry>
        </mxCell>
        <mxCell id="DmDW6QgHfBVeKbV9XOSL-64" value="" style="endArrow=classic;html=1;rounded=0;fontSize=15;" edge="1" parent="1" source="DmDW6QgHfBVeKbV9XOSL-41" target="DmDW6QgHfBVeKbV9XOSL-52">
          <mxGeometry width="50" height="50" relative="1" as="geometry">
            <mxPoint x="1570" y="890" as="sourcePoint" />
            <mxPoint x="1570" y="970" as="targetPoint" />
          </mxGeometry>
        </mxCell>
        <mxCell id="DmDW6QgHfBVeKbV9XOSL-65" value="" style="endArrow=classic;html=1;rounded=0;fontSize=15;" edge="1" parent="1" source="DmDW6QgHfBVeKbV9XOSL-82" target="DmDW6QgHfBVeKbV9XOSL-83">
          <mxGeometry width="50" height="50" relative="1" as="geometry">
            <mxPoint x="990" y="1830" as="sourcePoint" />
            <mxPoint x="1040" y="1780" as="targetPoint" />
          </mxGeometry>
        </mxCell>
        <mxCell id="DmDW6QgHfBVeKbV9XOSL-66" value="" style="endArrow=classic;html=1;rounded=0;fontSize=15;" edge="1" parent="1" source="DmDW6QgHfBVeKbV9XOSL-49" target="DmDW6QgHfBVeKbV9XOSL-42">
          <mxGeometry width="50" height="50" relative="1" as="geometry">
            <mxPoint x="1510" y="1340" as="sourcePoint" />
            <mxPoint x="1560" y="1290" as="targetPoint" />
          </mxGeometry>
        </mxCell>
        <mxCell id="DmDW6QgHfBVeKbV9XOSL-67" value="Menampilkan&lt;div style=&quot;font-size: 15px;&quot;&gt;halaman Beranda&lt;/div&gt;" style="rounded=1;whiteSpace=wrap;html=1;fontSize=15;" vertex="1" parent="1">
          <mxGeometry x="1720" y="2400" width="160" height="80" as="geometry" />
        </mxCell>
        <mxCell id="DmDW6QgHfBVeKbV9XOSL-68" value="" style="endArrow=classic;html=1;rounded=0;fontSize=15;" edge="1" parent="1" source="DmDW6QgHfBVeKbV9XOSL-50" target="DmDW6QgHfBVeKbV9XOSL-67">
          <mxGeometry width="50" height="50" relative="1" as="geometry">
            <mxPoint x="990" y="1740" as="sourcePoint" />
            <mxPoint x="1040" y="1690" as="targetPoint" />
          </mxGeometry>
        </mxCell>
        <mxCell id="DmDW6QgHfBVeKbV9XOSL-77" value="" style="endArrow=classic;html=1;rounded=0;" edge="1" parent="1" source="DmDW6QgHfBVeKbV9XOSL-42" target="DmDW6QgHfBVeKbV9XOSL-56">
          <mxGeometry width="50" height="50" relative="1" as="geometry">
            <mxPoint x="1690" y="1500" as="sourcePoint" />
            <mxPoint x="1740" y="1450" as="targetPoint" />
            <Array as="points">
              <mxPoint x="1560" y="1480" />
            </Array>
          </mxGeometry>
        </mxCell>
        <mxCell id="DmDW6QgHfBVeKbV9XOSL-78" value="" style="rhombus;whiteSpace=wrap;html=1;fontSize=15;" vertex="1" parent="1">
          <mxGeometry x="1760" y="1600" width="80" height="80" as="geometry" />
        </mxCell>
        <mxCell id="DmDW6QgHfBVeKbV9XOSL-79" value="" style="endArrow=classic;html=1;rounded=0;" edge="1" parent="1" source="DmDW6QgHfBVeKbV9XOSL-56" target="DmDW6QgHfBVeKbV9XOSL-78">
          <mxGeometry width="50" height="50" relative="1" as="geometry">
            <mxPoint x="1690" y="1700" as="sourcePoint" />
            <mxPoint x="1740" y="1650" as="targetPoint" />
          </mxGeometry>
        </mxCell>
        <mxCell id="DmDW6QgHfBVeKbV9XOSL-80" value="Tidak Valid" style="endArrow=classic;html=1;rounded=0;" edge="1" parent="1" source="DmDW6QgHfBVeKbV9XOSL-78" target="DmDW6QgHfBVeKbV9XOSL-42">
          <mxGeometry x="-0.5" width="50" height="50" relative="1" as="geometry">
            <mxPoint x="1690" y="1680" as="sourcePoint" />
            <mxPoint x="1740" y="1630" as="targetPoint" />
            <Array as="points">
              <mxPoint x="1440" y="1640" />
              <mxPoint x="1440" y="1320" />
            </Array>
            <mxPoint as="offset" />
          </mxGeometry>
        </mxCell>
        <mxCell id="DmDW6QgHfBVeKbV9XOSL-81" value="Valid" style="endArrow=classic;html=1;rounded=0;" edge="1" parent="1" source="DmDW6QgHfBVeKbV9XOSL-78" target="DmDW6QgHfBVeKbV9XOSL-82">
          <mxGeometry x="0.4286" width="50" height="50" relative="1" as="geometry">
            <mxPoint x="1680" y="1820" as="sourcePoint" />
            <mxPoint x="1800" y="1920" as="targetPoint" />
            <Array as="points">
              <mxPoint x="1800" y="1800" />
            </Array>
            <mxPoint as="offset" />
          </mxGeometry>
        </mxCell>
        <mxCell id="DmDW6QgHfBVeKbV9XOSL-82" value="Menyetujui syarat&lt;div style=&quot;font-size: 15px;&quot;&gt;dan ketentuan&lt;/div&gt;" style="rounded=1;whiteSpace=wrap;html=1;fontSize=15;" vertex="1" parent="1">
          <mxGeometry x="1480" y="1760" width="160" height="80" as="geometry" />
        </mxCell>
        <mxCell id="DmDW6QgHfBVeKbV9XOSL-83" value="Menekan tombol&lt;br&gt;Kirim" style="rounded=1;whiteSpace=wrap;html=1;fontSize=15;" vertex="1" parent="1">
          <mxGeometry x="1480" y="1920" width="160" height="80" as="geometry" />
        </mxCell>
        <mxCell id="DmDW6QgHfBVeKbV9XOSL-84" value="" style="rhombus;whiteSpace=wrap;html=1;fontSize=15;" vertex="1" parent="1">
          <mxGeometry x="1760" y="2080" width="80" height="80" as="geometry" />
        </mxCell>
        <mxCell id="DmDW6QgHfBVeKbV9XOSL-85" value="" style="endArrow=classic;html=1;rounded=0;" edge="1" parent="1" source="DmDW6QgHfBVeKbV9XOSL-83" target="DmDW6QgHfBVeKbV9XOSL-88">
          <mxGeometry width="50" height="50" relative="1" as="geometry">
            <mxPoint x="1560" y="2250" as="sourcePoint" />
            <mxPoint x="1610" y="2200" as="targetPoint" />
          </mxGeometry>
        </mxCell>
        <mxCell id="DmDW6QgHfBVeKbV9XOSL-86" value="Sudah dicentang" style="endArrow=classic;html=1;rounded=0;" edge="1" parent="1" source="DmDW6QgHfBVeKbV9XOSL-84" target="DmDW6QgHfBVeKbV9XOSL-50">
          <mxGeometry width="50" height="50" relative="1" as="geometry">
            <mxPoint x="1560" y="2250" as="sourcePoint" />
            <mxPoint x="1610" y="2200" as="targetPoint" />
          </mxGeometry>
        </mxCell>
        <mxCell id="DmDW6QgHfBVeKbV9XOSL-87" value="Belum dicentang" style="endArrow=classic;html=1;rounded=0;" edge="1" parent="1" source="DmDW6QgHfBVeKbV9XOSL-84" target="DmDW6QgHfBVeKbV9XOSL-82">
          <mxGeometry x="-0.5294" width="50" height="50" relative="1" as="geometry">
            <mxPoint x="1560" y="2250" as="sourcePoint" />
            <mxPoint x="1610" y="2200" as="targetPoint" />
            <Array as="points">
              <mxPoint x="1440" y="2120" />
              <mxPoint x="1440" y="1800" />
            </Array>
            <mxPoint as="offset" />
          </mxGeometry>
        </mxCell>
        <mxCell id="DmDW6QgHfBVeKbV9XOSL-88" value="Validasi checklist" style="rounded=1;whiteSpace=wrap;html=1;fontSize=15;" vertex="1" parent="1">
          <mxGeometry x="1720" y="1920" width="160" height="80" as="geometry" />
        </mxCell>
        <mxCell id="DmDW6QgHfBVeKbV9XOSL-89" value="" style="endArrow=classic;html=1;rounded=0;" edge="1" parent="1" source="DmDW6QgHfBVeKbV9XOSL-88" target="DmDW6QgHfBVeKbV9XOSL-84">
          <mxGeometry width="50" height="50" relative="1" as="geometry">
            <mxPoint x="1740" y="2090" as="sourcePoint" />
            <mxPoint x="1790" y="2040" as="targetPoint" />
          </mxGeometry>
        </mxCell>
      </root>
    </mxGraphModel>
  </diagram>
</mxfile>
